<svg width="527" height="371" viewBox="0 0 527 371" fill="none" xmlns="http://www.w3.org/2000/svg">
<g clip-path="url(#clip0_146_16)">
<path d="M269.149 370.214C285 370.214 297.849 357.378 297.849 341.544C297.849 325.71 285 312.874 269.149 312.874C253.299 312.874 240.45 325.71 240.45 341.544C240.45 357.378 253.299 370.214 269.149 370.214Z" fill="#A19BFD"/>
<path d="M440.604 368.603C456.66 363.786 473.729 358.763 486.463 347.312C497.842 337.079 505.523 321.454 500.81 306.108C496.105 290.793 482.015 280.581 467.467 275.503C459.216 272.622 450.583 271.024 441.954 269.768C432.574 268.404 423.152 267.285 413.735 266.209C375.603 261.853 337.327 259.191 298.908 258.225C279.951 257.748 260.997 257.759 242.038 258.034C225.105 258.28 207.272 258.274 191.564 251.085C179.349 245.494 168.262 235.323 164.859 221.958C160.93 206.529 168.177 190.818 178.572 179.644C184.052 173.754 190.456 168.797 197.062 164.239C204.229 159.294 211.646 154.699 219.224 150.41C234.149 141.966 249.752 134.78 265.872 128.927C273.824 126.039 281.894 123.547 290.034 121.248C296.908 119.306 303.803 117.362 310.446 114.717C323.288 109.604 335.503 100.944 338.768 86.7448C341.863 73.2878 336.645 58.6792 327.497 48.6823C316.914 37.1165 300.956 32.0465 285.658 31.2261C268.483 30.3052 251.703 34.5992 235.56 40.0488C218.342 45.8613 201.495 52.5446 183.914 57.2527C166.479 61.9168 148.707 65.2168 130.76 67.1229C121.973 68.0575 112.922 69.1128 104.084 68.3973C96.6762 67.7977 89.3067 65.6215 83.8476 60.37C79.1667 55.8671 76.3783 49.6787 77.337 43.148C77.5111 41.9618 79.3149 42.4661 79.1418 43.645C77.9749 51.5947 83.3844 58.9202 90.0503 62.6726C97.7545 67.0094 107.129 67.0153 115.707 66.5193C134.305 65.3972 152.777 62.7297 170.932 58.5444C188.771 54.4742 205.973 48.6556 223.155 42.44C239.474 36.5369 256.158 30.7753 273.592 29.4967C288.719 28.3873 304.632 30.5888 317.811 38.486C329.393 45.4266 337.91 57.0012 340.624 70.2833C343.276 83.2624 339.603 96.3261 329.768 105.383C319.585 114.761 305.622 118.77 292.61 122.463C276.106 127.146 259.956 132.621 244.324 139.729C228.479 146.914 213.283 155.448 198.904 165.238C185.024 174.712 171.326 186.634 166.937 203.537C164.892 211.411 165.269 219.762 168.691 227.199C171.733 233.812 176.743 239.374 182.58 243.665C196.506 253.901 214.058 256.003 230.879 256.212C249.772 256.447 268.666 255.81 287.565 256.12C326.08 256.751 364.517 259.093 402.875 263.145C412.486 264.162 422.085 265.285 431.673 266.515C440.296 267.622 448.949 268.722 457.427 270.688C472.502 274.183 487.171 280.904 496.541 293.672C500.699 299.207 503.275 305.765 503.995 312.648C504.65 319.83 502.89 327.026 499.64 333.415C492.444 347.557 478.967 356.552 464.655 362.462C456.989 365.627 449.037 368.025 441.101 370.406C439.945 370.753 439.451 368.949 440.604 368.603L440.604 368.603Z" fill="#F2F2F2"/>
<path d="M78.5456 58.2744C86.8154 58.2744 93.5194 51.5774 93.5194 43.3163C93.5194 35.0551 86.8154 28.3581 78.5456 28.3581C70.2758 28.3581 63.5718 35.0551 63.5718 43.3163C63.5718 51.5774 70.2758 58.2744 78.5456 58.2744Z" fill="#F2F2F2"/>
<path d="M182.426 86.6325C190.696 86.6325 197.4 79.9355 197.4 71.6744C197.4 63.4132 190.696 56.7162 182.426 56.7162C174.157 56.7162 167.453 63.4132 167.453 71.6744C167.453 79.9355 174.157 86.6325 182.426 86.6325Z" fill="#F2F2F2"/>
<path d="M270.398 29.9163C278.667 29.9163 285.371 23.2193 285.371 14.9581C285.371 6.69698 278.667 0 270.398 0C262.128 0 255.424 6.69698 255.424 14.9581C255.424 23.2193 262.128 29.9163 270.398 29.9163Z" fill="#F2F2F2"/>
<path d="M325.301 93.4883C333.571 93.4883 340.275 86.7913 340.275 78.5302C340.275 70.269 333.571 63.5721 325.301 63.5721C317.032 63.5721 310.328 70.269 310.328 78.5302C310.328 86.7913 317.032 93.4883 325.301 93.4883Z" fill="#F2F2F2"/>
<path d="M251.056 167.032C259.326 167.032 266.03 160.335 266.03 152.074C266.03 143.813 259.326 137.116 251.056 137.116C242.787 137.116 236.083 143.813 236.083 152.074C236.083 160.335 242.787 167.032 251.056 167.032Z" fill="#F2F2F2"/>
<path d="M156.846 202.558C165.116 202.558 171.82 195.861 171.82 187.6C171.82 179.339 165.116 172.642 156.846 172.642C148.576 172.642 141.872 179.339 141.872 187.6C141.872 195.861 148.576 202.558 156.846 202.558Z" fill="#F2F2F2"/>
<path d="M256.672 258.028C264.941 258.028 271.645 251.331 271.645 243.07C271.645 234.808 264.941 228.111 256.672 228.111C248.402 228.111 241.698 234.808 241.698 243.07C241.698 251.331 248.402 258.028 256.672 258.028Z" fill="#F2F2F2"/>
<path d="M363.984 289.191C372.253 289.191 378.957 282.494 378.957 274.232C378.957 265.971 372.253 259.274 363.984 259.274C355.714 259.274 349.01 265.971 349.01 274.232C349.01 282.494 355.714 289.191 363.984 289.191Z" fill="#F2F2F2"/>
<path d="M489.389 282.335C497.659 282.335 504.363 275.638 504.363 267.377C504.363 259.115 497.659 252.418 489.389 252.418C481.12 252.418 474.416 259.115 474.416 267.377C474.416 275.638 481.12 282.335 489.389 282.335Z" fill="#F2F2F2"/>
<path d="M266.075 42.3835C221.221 42.7 184.496 79.1119 183.858 123.916C183.852 124.329 183.85 127.238 183.85 131.042C183.85 136.62 186.069 141.969 190.017 145.913C193.965 149.858 199.32 152.074 204.903 152.074H204.903C207.671 152.074 210.412 151.528 212.969 150.469C215.525 149.41 217.848 147.858 219.804 145.902C221.761 143.946 223.312 141.624 224.369 139.068C225.426 136.513 225.969 133.775 225.967 131.01C225.965 128.422 225.964 126.631 225.964 126.521C225.962 119.597 227.765 112.791 231.195 106.774C234.625 100.757 239.564 95.7353 245.526 92.2033C251.488 88.6713 258.268 86.7506 265.199 86.63C272.129 86.5094 278.972 88.1932 285.053 91.5156C291.135 94.8381 296.246 99.6847 299.884 105.579C303.521 111.473 305.561 118.212 305.8 125.132C306.04 132.052 304.473 138.915 301.252 145.047C298.031 151.178 293.268 156.367 287.431 160.101L287.439 160.11C287.439 160.11 257.473 179.381 248.338 205.817L248.345 205.819C246.739 211.235 245.925 216.854 245.929 222.502C245.929 224.824 246.065 245.14 246.33 261.629C246.422 267.318 248.75 272.743 252.81 276.733C256.871 280.724 262.339 282.959 268.035 282.958H268.036C270.898 282.958 273.732 282.392 276.374 281.294C279.017 280.196 281.416 278.586 283.433 276.558C285.451 274.53 287.047 272.124 288.13 269.477C289.213 266.831 289.761 263.997 289.744 261.137C289.652 246.036 289.602 228.453 289.602 227.177C289.602 210.944 305.278 194.771 318.155 184.223C332.982 172.078 343.653 155.527 347.938 136.857C348.887 133.013 349.409 129.076 349.498 125.119C349.498 114.203 347.335 103.395 343.136 93.3184C338.936 83.2413 332.781 74.0941 325.027 66.4036C317.273 58.7131 308.072 52.6314 297.954 48.5089C287.836 44.3864 277.002 42.3047 266.075 42.3835Z" fill="#A19BFD"/>
<path d="M526.257 371H0.742682C0.546032 370.999 0.357635 370.921 0.218783 370.782C0.0799307 370.643 0.00195312 370.454 0.00195312 370.258C0.00195312 370.061 0.0799307 369.873 0.218783 369.734C0.357635 369.595 0.546032 369.516 0.742682 369.516H526.257C526.454 369.516 526.643 369.594 526.782 369.733C526.922 369.872 527 370.061 527 370.258C527 370.455 526.922 370.643 526.782 370.783C526.643 370.922 526.454 371 526.257 371Z" fill="#3F3D56"/>
<path d="M392.095 170.146C402.432 170.146 410.812 161.775 410.812 151.449C410.812 141.122 402.432 132.751 392.095 132.751C381.757 132.751 373.377 141.122 373.377 151.449C373.377 161.775 381.757 170.146 392.095 170.146Z" fill="#2F2E41"/>
<path d="M357.507 362.815H349.859L346.219 333.343H357.509L357.507 362.815Z" fill="#A0616A"/>
<path d="M344.394 360.632H359.146V369.91H335.106C335.106 368.691 335.347 367.485 335.813 366.359C336.28 365.234 336.964 364.211 337.827 363.349C338.689 362.488 339.713 361.804 340.84 361.338C341.967 360.872 343.175 360.632 344.394 360.632Z" fill="#2F2E41"/>
<path d="M416.778 362.815H409.13L405.491 333.343H416.78L416.778 362.815Z" fill="#A0616A"/>
<path d="M403.666 360.632H418.418V369.91H394.378C394.378 368.691 394.618 367.485 395.085 366.359C395.552 365.234 396.236 364.211 397.098 363.349C397.961 362.488 398.985 361.804 400.112 361.338C401.238 360.872 402.446 360.632 403.666 360.632Z" fill="#2F2E41"/>
<path d="M389.25 170.255C397.713 170.255 404.574 163.402 404.574 154.948C404.574 146.493 397.713 139.64 389.25 139.64C380.787 139.64 373.926 146.493 373.926 154.948C373.926 163.402 380.787 170.255 389.25 170.255Z" fill="#A0616A"/>
<path d="M398.383 219.639L405.24 203.902C406.905 200.21 407.383 196.093 406.606 192.119C405.829 188.144 403.837 184.509 400.904 181.714C400.302 181.119 399.662 180.563 398.988 180.05C395.605 177.406 391.436 175.965 387.141 175.955C384.253 175.966 381.401 176.6 378.78 177.812C378.555 177.912 378.337 178.018 378.112 178.124C377.682 178.33 377.258 178.554 376.846 178.784C374.16 180.325 371.874 182.475 370.173 185.06C368.471 187.645 367.402 190.594 367.051 193.668L364.025 218.997C363.264 220.985 336.111 292.784 345.607 347.599C345.708 348.185 345.994 348.723 346.423 349.134C346.851 349.546 347.401 349.809 347.99 349.887L357.617 351.196C358.32 351.292 359.034 351.118 359.613 350.71C360.193 350.302 360.597 349.689 360.743 348.996L376.896 272.08C376.997 271.602 377.255 271.171 377.629 270.857C378.004 270.543 378.472 270.363 378.961 270.347C379.45 270.33 379.93 270.478 380.324 270.766C380.719 271.054 381.006 271.466 381.138 271.936L403.961 352.822C404.124 353.41 404.475 353.928 404.961 354.297C405.446 354.667 406.04 354.867 406.65 354.867C406.832 354.865 407.014 354.849 407.193 354.817L418.953 352.554C419.637 352.427 420.249 352.048 420.668 351.494C421.087 350.939 421.283 350.248 421.219 349.556C419.49 330.304 410.306 233.868 398.383 219.639Z" fill="#2F2E41"/>
<path d="M329.698 167.687C329.591 168.597 329.686 169.519 329.975 170.389C330.264 171.258 330.74 172.054 331.371 172.72C332.001 173.385 332.769 173.905 333.622 174.242C334.475 174.579 335.392 174.725 336.307 174.669L344.873 195.232L351.352 185.637L342.225 167.582C342.03 166.051 341.28 164.646 340.117 163.631C338.954 162.616 337.459 162.063 335.915 162.076C334.37 162.089 332.885 162.667 331.739 163.701C330.593 164.735 329.867 166.153 329.698 167.687L329.698 167.687Z" fill="#A0616A"/>
<path d="M388.4 240.344C389.311 240.235 390.187 239.928 390.966 239.445C391.745 238.961 392.409 238.313 392.91 237.546C393.411 236.778 393.738 235.911 393.867 235.003C393.996 234.096 393.925 233.172 393.658 232.296L411.679 219.183L400.829 215.124L385.379 228.198C383.935 228.744 382.741 229.8 382.024 231.167C381.307 232.533 381.117 234.114 381.489 235.612C381.862 237.109 382.771 238.417 384.045 239.289C385.318 240.162 386.868 240.537 388.4 240.344Z" fill="#A0616A"/>
<path d="M359.022 208.941C358.331 208.94 357.642 208.872 356.964 208.738C355.325 208.426 353.787 207.717 352.487 206.672C351.187 205.626 350.165 204.278 349.51 202.745L337.509 188.127C337.256 187.818 337.071 187.459 336.968 187.073C336.864 186.687 336.845 186.283 336.911 185.889C336.976 185.494 337.125 185.119 337.348 184.787C337.571 184.455 337.862 184.174 338.202 183.964L346.74 178.684C347.055 178.489 347.406 178.359 347.772 178.3C348.138 178.241 348.512 178.255 348.873 178.341C349.233 178.428 349.573 178.585 349.873 178.803C350.172 179.021 350.426 179.297 350.618 179.613L359.076 193.533L375.274 181.575C376.563 180.899 378.053 180.71 379.471 181.041C380.889 181.372 382.14 182.202 382.996 183.379C383.853 184.555 384.256 186.001 384.134 187.45C384.011 188.9 383.371 190.257 382.33 191.274L366.163 206.005C364.263 207.886 361.697 208.942 359.022 208.941Z" fill="#2F2E41"/>
<path d="M402.789 230.925C402.767 230.925 402.745 230.925 402.723 230.924C402.329 230.914 401.942 230.822 401.586 230.654C401.23 230.485 400.914 230.244 400.657 229.945L393.067 221.099C392.808 220.798 392.617 220.445 392.505 220.064C392.393 219.684 392.363 219.284 392.417 218.891C392.471 218.497 392.608 218.12 392.819 217.784C393.03 217.448 393.31 217.16 393.641 216.94L407.854 207.475L394.978 192.01C394.229 190.763 393.954 189.288 394.204 187.854C394.454 186.421 395.211 185.126 396.338 184.205C397.465 183.283 398.886 182.798 400.342 182.837C401.797 182.876 403.19 183.437 404.266 184.417L419.916 199.695C421.148 200.819 422.088 202.225 422.656 203.792C423.224 205.358 423.403 207.04 423.178 208.691C422.952 210.342 422.329 211.914 421.361 213.272C420.394 214.629 419.111 215.732 417.623 216.486L404.832 230.044C404.569 230.322 404.253 230.543 403.901 230.695C403.55 230.846 403.172 230.924 402.789 230.925Z" fill="#2F2E41"/>
<path d="M385.353 198.329C385.232 198.329 385.11 198.321 384.989 198.306C384.461 198.242 383.961 198.027 383.551 197.688C383.141 197.349 382.836 196.9 382.674 196.393L376.97 178.924C376.827 178.482 376.849 178.004 377.032 177.577C377.215 177.15 377.546 176.804 377.965 176.602L378.15 176.515C378.318 176.435 378.484 176.356 378.653 176.281C381.313 175.049 384.209 174.406 387.14 174.397C390.947 174.404 394.668 175.521 397.848 177.611C398.274 177.894 398.572 178.333 398.677 178.834C398.782 179.335 398.686 179.857 398.41 180.287L387.71 197.033C387.459 197.43 387.111 197.758 386.699 197.984C386.287 198.211 385.824 198.33 385.353 198.329Z" fill="#E6E6E6"/>
<path d="M406.851 143.101C410.234 143.101 412.976 140.362 412.976 136.983C412.976 133.604 410.234 130.865 406.851 130.865C403.469 130.865 400.727 133.604 400.727 136.983C400.727 140.362 403.469 143.101 406.851 143.101Z" fill="#2F2E41"/>
<path d="M385.855 130.258C381.553 130.258 377.427 131.965 374.385 135.004C371.343 138.043 369.634 142.165 369.634 146.462V153.318H378.075L382.112 146.462L383.323 153.318H408.94L402.077 146.462C402.077 142.165 400.368 138.043 397.326 135.004C394.284 131.965 390.158 130.258 385.855 130.258Z" fill="#2F2E41"/>
<path d="M409.999 132.792C410.676 130.676 412.079 128.867 413.959 127.682C415.84 126.497 418.078 126.012 420.282 126.313C424.185 126.965 427.271 130.099 429.109 133.599C430.948 137.1 431.797 141.018 433.033 144.773C434.27 148.529 436.023 152.304 439.143 154.735C442.264 157.166 447.053 157.826 450.118 155.325C449.768 157.931 448.606 160.361 446.798 162.272C444.989 164.183 442.625 165.477 440.04 165.972C437.454 166.467 434.779 166.137 432.391 165.03C430.004 163.922 428.025 162.093 426.736 159.801C425.118 156.926 424.701 153.558 424.221 150.295C423.742 147.033 423.119 143.658 421.188 140.984C419.257 138.31 415.643 136.563 412.575 137.781L409.999 132.792Z" fill="#2F2E41"/>
<path d="M210.848 142.126C205.264 142.126 199.909 139.909 195.961 135.965C192.013 132.021 189.795 126.672 189.794 121.094C189.794 117.29 189.797 114.381 189.803 113.967C189.98 100.937 193.265 88.1371 199.385 76.6289C189.33 90.3797 183.801 106.912 183.563 123.939C183.558 124.353 183.555 127.262 183.555 131.066C183.556 136.644 185.774 141.993 189.722 145.937C193.67 149.881 199.025 152.098 204.608 152.098C209.197 152.096 213.659 150.599 217.317 147.833C220.976 145.066 223.63 141.183 224.878 136.772C221.023 140.225 216.026 142.132 210.848 142.126Z" fill="#3F3D56"/>
<path d="M267.502 86.7006C273.957 87.0086 280.241 88.8769 285.814 92.1453C291.387 95.4137 296.083 99.9844 299.498 105.465C302.913 110.945 304.946 117.172 305.421 123.61C305.897 130.048 304.801 136.506 302.228 142.428C305.95 138.062 308.685 132.945 310.248 127.427C311.811 121.909 312.164 116.12 311.284 110.453C310.404 104.786 308.31 99.376 305.147 94.5907C301.984 89.8054 297.825 85.7576 292.954 82.7235C288.083 79.6893 282.614 77.74 276.921 77.0085C271.227 76.277 265.443 76.7805 259.962 78.4847C254.48 80.1889 249.432 83.0537 245.159 86.8837C240.887 90.7138 237.492 95.4191 235.205 100.679C239.157 96.0339 244.125 92.358 249.725 89.9344C255.325 87.5109 261.407 86.4045 267.502 86.7006Z" fill="#3F3D56"/>
<path d="M273.98 273.01C268.284 273.011 262.815 270.775 258.755 266.785C254.694 262.795 252.366 257.37 252.274 251.681C252.01 235.191 251.873 214.876 251.873 212.554C251.869 206.906 252.683 201.286 254.29 195.871L254.282 195.869C255.231 193.151 256.376 190.505 257.71 187.953C253.616 193.403 250.358 199.432 248.043 205.841L248.051 205.843C246.444 211.258 245.63 216.878 245.634 222.526C245.634 224.848 245.771 245.164 246.035 261.653C246.127 267.342 248.455 272.767 252.515 276.757C256.576 280.747 262.044 282.983 267.74 282.982C272.437 282.981 277.007 281.459 280.764 278.644C284.521 275.83 287.264 271.874 288.58 267.37C284.589 271.006 279.381 273.017 273.98 273.01Z" fill="#3F3D56"/>
<path d="M78.9501 363.099L86.5986 363.099L90.2379 333.626L78.9482 333.627L78.9501 363.099Z" fill="#FFB8B8"/>
<path d="M101.351 370.193L77.311 370.195L77.3105 360.916L92.0621 360.916C94.5255 360.915 96.888 361.893 98.6299 363.633C100.372 365.373 101.35 367.733 101.351 370.193L101.351 370.193Z" fill="#2F2E41"/>
<path d="M51.498 363.099L59.1465 363.099L62.7857 333.626L51.4961 333.627L51.498 363.099Z" fill="#FFB8B8"/>
<path d="M73.8984 370.193L49.8588 370.195L49.8584 360.916L64.61 360.916C67.0733 360.915 69.4358 361.893 71.1777 363.633C72.9197 365.373 73.8983 367.733 73.8984 370.193L73.8984 370.193Z" fill="#2F2E41"/>
<path d="M58.1823 354.035L50.711 353.642C50.3257 353.622 49.9483 353.526 49.6006 353.359C49.253 353.192 48.9419 352.957 48.6855 352.67C48.4291 352.382 48.2324 352.046 48.1069 351.681C47.9814 351.317 47.9295 350.931 47.9543 350.547L56.884 251.782L98.0065 262.867L101.968 261.787L89.5787 349.22C89.4731 349.878 89.1462 350.48 88.6518 350.927C88.1574 351.374 87.5252 351.639 86.8596 351.679L78.8056 352.054C78.4029 352.076 77.9999 352.015 77.6221 351.874C77.2444 351.732 76.9 351.514 76.6109 351.234C76.3217 350.953 76.094 350.615 75.9422 350.242C75.7904 349.868 75.7177 349.468 75.7288 349.065L77.1881 296.589C77.1949 296.346 77.1106 296.11 76.9516 295.926C76.7926 295.743 76.5705 295.625 76.3291 295.597C76.0878 295.569 75.8446 295.632 75.6475 295.774C75.4505 295.916 75.3138 296.127 75.2645 296.365L61.191 351.717C61.0582 352.374 60.7014 352.965 60.1816 353.388C59.6618 353.811 59.011 354.042 58.3403 354.039C58.288 354.039 58.2353 354.038 58.1823 354.035Z" fill="#2F2E41"/>
<path d="M80.3233 170.971C88.7865 170.971 95.6472 164.118 95.6472 155.664C95.6472 147.209 88.7865 140.356 80.3233 140.356C71.8602 140.356 64.9995 147.209 64.9995 155.664C64.9995 164.118 71.8602 170.971 80.3233 170.971Z" fill="#FFB8B8"/>
<path d="M54.8101 200.637L56.495 236.952L57.1041 250.165C57.1283 250.74 57.3238 251.295 57.6655 251.758C58.0072 252.222 58.4795 252.573 59.0221 252.767L98.538 267.067C98.8572 267.185 99.1954 267.244 99.536 267.241C99.9252 267.243 100.311 267.167 100.67 267.016C101.029 266.866 101.354 266.645 101.625 266.367C101.897 266.088 102.11 265.758 102.25 265.395C102.391 265.033 102.458 264.646 102.446 264.257L100.826 198.96C100.719 193.603 98.7451 188.451 95.2436 184.392C91.7421 180.333 86.9327 177.621 81.6444 176.724C81.2622 176.666 80.8733 176.608 80.4844 176.556C77.2053 176.149 73.8767 176.466 70.733 177.482C67.5892 178.499 64.7067 180.191 62.2881 182.44C59.7838 184.741 57.816 187.564 56.5238 190.708C55.2316 193.852 54.6465 197.242 54.81 200.637L54.8101 200.637Z" fill="#CCCCCC"/>
<path d="M117.414 259.82C116.48 259.53 115.626 259.026 114.921 258.349C114.216 257.671 113.679 256.837 113.354 255.915C113.028 254.994 112.923 254.008 113.047 253.039C113.17 252.069 113.519 251.141 114.065 250.33L100.665 232.53L112.228 231.815L123.181 248.828C124.353 249.734 125.169 251.023 125.485 252.469C125.801 253.916 125.598 255.427 124.91 256.738C124.222 258.05 123.094 259.077 121.723 259.641C120.353 260.204 118.827 260.268 117.414 259.82H117.414Z" fill="#FFB8B8"/>
<path d="M107.993 247.109C107.638 246.965 107.315 246.752 107.043 246.483C106.771 246.213 106.555 245.893 106.408 245.539L86.2191 197.49C85.823 196.549 85.6163 195.54 85.6109 194.519C85.6056 193.498 85.8016 192.487 86.1877 191.542C86.5739 190.597 87.1427 189.737 87.8616 189.012C88.5805 188.287 89.4354 187.71 90.3775 187.315C91.3195 186.92 92.3303 186.715 93.3519 186.71C94.3736 186.706 95.3861 186.902 96.3317 187.289C97.2773 187.675 98.1373 188.244 98.8627 188.963C99.5881 189.681 100.165 190.536 100.559 191.477L120.748 239.527C121.046 240.24 121.05 241.041 120.757 241.756C120.465 242.471 119.9 243.041 119.188 243.341L110.225 247.098C109.872 247.247 109.493 247.325 109.11 247.327C108.727 247.329 108.347 247.255 107.993 247.109L107.993 247.109Z" fill="#CCCCCC"/>
<path d="M75.3964 245.414L94.787 208.325C95.161 207.612 95.8029 207.076 96.5719 206.835C97.3409 206.593 98.1743 206.667 98.8892 207.039L127.035 221.723C127.749 222.096 128.285 222.738 128.527 223.506C128.768 224.274 128.694 225.107 128.322 225.821L108.931 262.91C108.557 263.623 107.916 264.159 107.147 264.4C106.378 264.641 105.544 264.568 104.829 264.196L76.6838 249.512C75.9698 249.138 75.4333 248.497 75.1919 247.729C74.9505 246.961 75.0241 246.128 75.3964 245.414Z" fill="#3F3D56"/>
<path d="M88.4007 228.469C88.056 227.554 87.5019 226.732 86.7828 226.069C86.0637 225.406 85.1994 224.92 84.2589 224.65C83.3184 224.38 82.3278 224.334 81.366 224.514C80.4042 224.694 79.4979 225.097 78.7195 225.689L60.1405 213.377L60.1089 224.951L77.7567 234.868C78.7308 235.984 80.0672 236.721 81.5313 236.951C82.9954 237.181 84.4938 236.889 85.7636 236.125C87.0335 235.362 87.9937 234.176 88.4759 232.776C88.9581 231.376 88.9315 229.851 88.4007 228.469Z" fill="#FFB8B8"/>
<path d="M64.9104 231.072L49.7265 219.057C48.0839 218.506 46.5996 217.565 45.4012 216.315C44.2027 215.065 43.3259 213.543 42.8459 211.879C42.3658 210.216 42.297 208.462 42.6453 206.766C42.9936 205.07 43.7485 203.485 44.8454 202.145L58.632 184.095C59.59 182.926 60.9374 182.14 62.4278 181.881C63.9182 181.622 65.4521 181.908 66.7491 182.686C68.046 183.464 69.0195 184.682 69.4914 186.117C69.9633 187.553 69.9022 189.111 69.3193 190.505L58.411 208.33L74.4416 215.926C74.8144 216.102 75.1454 216.356 75.4128 216.67C75.6802 216.984 75.8779 217.351 75.9927 217.747C76.1076 218.142 76.1371 218.558 76.0793 218.966C76.0214 219.374 75.8775 219.765 75.6571 220.114L69.1861 230.344C68.9673 230.689 68.6784 230.985 68.3381 231.211C67.9977 231.438 67.6135 231.591 67.2104 231.66C67.1944 231.663 67.1782 231.665 67.1621 231.667C66.766 231.727 66.3617 231.705 65.9744 231.603C65.5871 231.5 65.225 231.32 64.9104 231.072Z" fill="#CCCCCC"/>
<path d="M68.7443 165.914C68.6785 165.722 68.6577 165.517 68.6833 165.316C68.7089 165.114 68.7804 164.921 68.8922 164.752C69.004 164.582 69.1531 164.44 69.3283 164.337C69.5034 164.234 69.6998 164.172 69.9025 164.157C70.3175 164.179 70.7237 164.286 71.0964 164.469C71.4692 164.653 71.8008 164.91 72.0712 165.226C72.6258 165.864 73.2714 166.418 73.9874 166.869C74.7286 167.243 75.734 167.189 76.1566 166.478C76.5534 165.81 76.2815 164.915 76.0413 164.138C75.43 162.164 75.0879 160.115 75.0244 158.049C74.9552 155.743 75.2809 153.336 76.559 151.537C78.2085 149.216 81.1581 148.335 83.9495 148.398C86.7408 148.462 89.4869 149.323 92.2519 149.867C93.2064 150.055 94.3284 150.151 94.9668 149.412C95.6457 148.626 95.3964 147.355 95.1076 146.294C94.3584 143.54 93.5634 140.694 91.8226 138.47C89.9403 136.16 87.2515 134.648 84.2977 134.238C81.462 133.887 78.5833 134.214 75.8985 135.191C71.5242 136.568 67.6751 139.247 64.866 142.868C61.9702 146.72 60.719 151.56 61.3858 156.331C62.0372 160.486 64.2413 164.24 67.5536 166.836L68.7443 165.914Z" fill="#2F2E41"/>
<path d="M262.826 363.221C258.75 361.447 255.141 358.751 252.286 355.345C249.43 351.94 247.407 347.918 246.374 343.597C245.341 339.276 245.328 334.775 246.335 330.448C247.341 326.121 249.341 322.088 252.176 318.665C248.889 321.062 246.151 324.131 244.142 327.666C242.132 331.202 240.899 335.124 240.523 339.172C240.148 343.22 240.638 347.301 241.962 351.145C243.286 354.99 245.414 358.509 248.203 361.469C250.993 364.429 254.381 366.762 258.142 368.315C261.904 369.867 265.952 370.602 270.02 370.472C274.088 370.341 278.081 369.348 281.735 367.558C285.389 365.768 288.62 363.222 291.213 360.089C287.168 363.043 282.418 364.886 277.438 365.436C272.457 365.985 267.42 365.221 262.826 363.221Z" fill="#3F3D56"/>
</g>
<defs>
<clipPath id="clip0_146_16">
<rect width="527" height="371" fill="white"/>
</clipPath>
</defs>
</svg>
