<svg width="110" height="122" viewBox="0 0 110 122" fill="none" xmlns="http://www.w3.org/2000/svg">
<g clip-path="url(#clip0_15_1050)">
<path d="M81.219 18.7593L67.7191 18.8911C67.0846 15.7624 64.9526 7.55317 66.8726 5.31402C66.9601 4.47127 67.3688 3.69479 68.0135 3.14623C68.6583 2.59767 69.4895 2.31929 70.334 2.36905C72.4264 -0.911329 75.9116 -0.418802 78.2671 1.62994C80.6378 2.4492 81.5315 3.90467 81.219 5.87981C82.9746 7.41896 83.2985 9.29154 82.5104 11.4231L81.219 18.7593Z" fill="#2F2E41"/>
<path d="M79.9193 27.0885L70.1795 25.7378L68.2316 22.8864C70.9149 21.1037 71.8645 18.6138 70.6291 15.2326L77.372 15.0825C77.056 18.0935 78.0502 20.4249 80.8184 21.8359L79.9193 27.0885Z" fill="#FFB9B9"/>
<path d="M67.8769 115.075L67.5044 120.174C67.4876 120.405 67.5202 120.637 67.6001 120.854C67.68 121.071 67.8053 121.268 67.9677 121.433C68.1301 121.598 68.3257 121.726 68.5415 121.808C68.7573 121.891 68.9883 121.927 69.2189 121.913L71.8341 121.754C71.9552 121.747 72.0733 121.713 72.1799 121.654C72.2864 121.596 72.3789 121.515 72.4507 121.417C72.5224 121.319 72.5718 121.206 72.5952 121.087C72.6185 120.968 72.6154 120.845 72.586 120.727L71.1343 114.912L67.8769 115.075Z" fill="#E6E6E6"/>
<path d="M76.3431 114.912L74.8915 120.727C74.8621 120.845 74.8589 120.968 74.8823 121.087C74.9057 121.206 74.955 121.319 75.0268 121.417C75.0986 121.515 75.191 121.596 75.2976 121.654C75.4041 121.713 75.5222 121.747 75.6434 121.754L78.2585 121.913C78.4892 121.927 78.7201 121.891 78.9359 121.808C79.1517 121.726 79.3474 121.598 79.5098 121.433C79.6721 121.268 79.7975 121.071 79.8774 120.854C79.9573 120.637 79.9899 120.405 79.973 120.174L79.6006 115.075L76.3431 114.912Z" fill="#E6E6E6"/>
<path d="M79.7695 115.783L76.2403 115.428L72.727 77.8138L71.3991 115.307L67.9318 115.182L62.088 63.2564H84.4145L79.7695 115.783Z" fill="#673AB7"/>
<path d="M74.3751 17.6338C78.0991 17.6338 81.118 14.6102 81.118 10.8804C81.118 7.15066 78.0991 4.12708 74.3751 4.12708C70.6511 4.12708 67.6322 7.15066 67.6322 10.8804C67.6322 14.6102 70.6511 17.6338 74.3751 17.6338Z" fill="#FFB9B9"/>
<path d="M87.7111 64.4571L60.4397 64.7572C64.4869 49.3261 66.9079 34.9919 62.6873 25.1375L69.4303 21.8359C72.6815 25.2323 76.3024 24.8821 80.2189 21.5357L86.6622 23.1865C85.5586 36.109 86.0532 49.9491 87.7111 64.4571Z" fill="#673AB7"/>
<path d="M52.9476 48.5492L69.8799 55.3025L73.6655 56.4177C73.8348 56.4676 74.0125 56.4826 74.1878 56.462C74.3631 56.4414 74.5324 56.3855 74.6856 56.2977C74.8387 56.2099 74.9726 56.092 75.0791 55.951C75.1857 55.8101 75.2626 55.649 75.3055 55.4775C75.3805 55.1768 75.3468 54.8592 75.2103 54.581C75.0739 54.3028 74.8434 54.082 74.5599 53.9578L70.6291 52.7513L58.7915 45.8478L61.2639 39.3196L56.0943 36.5432L52.9476 48.5492Z" fill="#FFB9B9"/>
<path d="M53.0974 36.243C56.3189 37.5018 58.8812 39.65 60.8892 42.5462L67.1826 33.3916L62.6874 25.1375L53.0974 36.243Z" fill="#673AB7"/>
<path d="M81.9748 9.78591C79.238 9.07967 76.5473 8.9827 73.9317 9.8785C72.2656 10.6867 70.2647 10.6123 68.0394 9.94633V3.2085L80.0527 3.52935L81.9748 9.78591Z" fill="#2F2E41"/>
<path d="M95.395 47.3006L80.6363 53.1864L79.5228 53.6305C79.4873 53.6443 79.4519 53.6562 79.4144 53.668L75.6838 54.7674C75.2069 54.9075 74.5467 54.2641 74.1605 53.82C73.9692 53.606 73.8609 53.3304 73.8551 53.0432C73.8493 52.7561 73.9465 52.4764 74.1289 52.2548C74.1805 52.1953 74.2372 52.1404 74.2984 52.091C74.4422 51.9789 74.6115 51.9043 74.7911 51.8739L78.5178 51.1396C78.6514 51.1133 78.7799 51.0653 78.8981 50.9975L80.6363 49.983L89.6602 44.7209C89.9112 44.5748 90.1022 44.3442 90.1993 44.0702C90.2964 43.7963 90.2932 43.4967 90.1903 43.2248L88.4679 38.6752C88.3623 38.3969 88.3614 38.0895 88.4655 37.8106C88.5696 37.5316 88.7715 37.3002 89.0335 37.1594L91.8871 35.6277C92.0502 35.5401 92.231 35.4906 92.4159 35.4831C92.6008 35.4755 92.785 35.5101 92.9546 35.5842C93.1243 35.6584 93.2749 35.7701 93.3951 35.9109C93.5154 36.0518 93.6022 36.2182 93.6489 36.3975L96.1261 45.8479C96.2023 46.1377 96.17 46.4454 96.0353 46.713C95.9006 46.9806 95.6729 47.1896 95.395 47.3006Z" fill="#FFB9B9"/>
<path d="M96.2522 34.5922C93.0307 35.8509 90.4684 37.9992 88.4604 40.8953L82.167 31.7408L86.6623 23.1865L96.2522 34.5922Z" fill="#673AB7"/>
<path d="M78.8627 16.8912C75.9128 18.1201 72.8198 18.0702 69.6003 16.8912C70.5371 15.2897 69.1368 14.0354 68.4178 12.4187L80.4392 12.0609C79.5199 13.4654 78.1635 15.1247 78.8627 16.8912Z" fill="white"/>
<path d="M80.3119 12.3281L80.1724 12.1886L80.3694 11.9912L81.5467 10.6151L81.6965 10.7434L80.5141 12.125L80.3119 12.3281Z" fill="white"/>
<path d="M67.5941 11.4917L67.4679 11.6434L68.6503 12.6303L68.7766 12.4786L67.5941 11.4917Z" fill="white"/>
<path d="M80.6515 13.4886L78.5818 16.745L78.7481 16.851L80.8178 13.5946L80.6515 13.4886Z" fill="white"/>
<path d="M67.8112 13.4883L67.6449 13.5943L69.7142 16.851L69.8805 16.745L67.8112 13.4883Z" fill="white"/>
<path d="M68.9445 39.6241C69.3378 39.6241 69.6566 39.3048 69.6566 38.9108C69.6566 38.5169 69.3378 38.1976 68.9445 38.1976C68.5511 38.1976 68.2323 38.5169 68.2323 38.9108C68.2323 39.3048 68.5511 39.6241 68.9445 39.6241Z" fill="#3F3D56"/>
<path d="M63.2472 39.6241C63.6405 39.6241 63.9594 39.3048 63.9594 38.9108C63.9594 38.5169 63.6405 38.1976 63.2472 38.1976C62.8539 38.1976 62.535 38.5169 62.535 38.9108C62.535 39.3048 62.8539 39.6241 63.2472 39.6241Z" fill="#3F3D56"/>
<path d="M1.80737 121.408H43.1925V71.1327C43.1925 68.4705 40.5744 66.3047 37.3564 66.3047H7.64352C4.42541 66.3047 1.80737 68.4705 1.80737 71.1327V121.408Z" fill="#E6E6E6"/>
<path d="M4.96057 119.329H40.0394V76.7147C40.0394 74.4582 37.8202 72.6224 35.0926 72.6224H9.9074C7.17967 72.6224 4.96057 74.4582 4.96057 76.7147V119.329Z" fill="white"/>
<path d="M1.4948 62.3921C0.471912 62.3921 -0.360352 63.0806 -0.360352 63.9268V68.3567C-0.360352 69.2028 0.471912 69.8913 1.4948 69.8913H43.5053C44.5282 69.8913 45.3604 69.2028 45.3604 68.3567V63.9268C45.3604 63.0806 44.5282 62.3921 43.5053 62.3921H1.4948Z" fill="#3F3D56"/>
<path d="M10.12 113.865C9.63977 113.866 9.1796 114.058 8.84001 114.398C8.50043 114.738 8.30902 115.199 8.30762 115.68C8.30902 116.161 8.50042 116.622 8.84 116.962C9.17959 117.302 9.63977 117.494 10.12 117.495H13.5125V113.865H10.12Z" fill="#3F3D56"/>
<path d="M16.6262 113.865H13.3267V117.495H16.6262C17.1064 117.494 17.5666 117.302 17.9062 116.962C18.2458 116.622 18.4372 116.161 18.4386 115.68C18.4372 115.199 18.2458 114.738 17.9062 114.398C17.5666 114.058 17.1064 113.866 16.6262 113.865Z" fill="#673AB7"/>
<path opacity="0.2" d="M17.8088 114.309C18.0946 114.637 18.2523 115.058 18.2527 115.494C18.2513 115.975 18.0599 116.436 17.7203 116.776C17.3807 117.116 16.9205 117.307 16.4403 117.309H13.3267V117.495H16.6262C17.1064 117.494 17.5666 117.302 17.9062 116.962C18.2458 116.622 18.4372 116.161 18.4386 115.68C18.4381 115.419 18.3817 115.162 18.273 114.926C18.1643 114.689 18.006 114.479 17.8088 114.309Z" fill="black"/>
<path d="M25.4287 86.5227C25.0983 86.1737 24.6434 85.9698 24.1633 85.9556C23.6833 85.9414 23.2171 86.1181 22.8667 86.447C22.5182 86.7779 22.3146 87.2336 22.3005 87.7143C22.2863 88.1951 22.4627 88.662 22.7911 89.013L25.1181 91.4854L27.7557 88.9951L25.4287 86.5227Z" fill="#3F3D56"/>
<path d="M29.8915 91.2643L27.6283 88.8597L24.9906 91.3499L27.2538 93.7546C27.5843 94.1036 28.0392 94.3075 28.5192 94.3217C28.9993 94.3359 29.4654 94.1592 29.8158 93.8303C30.1643 93.4994 30.3679 93.0437 30.3821 92.563C30.3963 92.0822 30.2199 91.6153 29.8915 91.2643Z" fill="#673AB7"/>
<path opacity="0.2" d="M30.3797 92.4311C30.3373 92.8646 30.1398 93.2681 29.8236 93.5671C29.4732 93.896 29.0071 94.0726 28.527 94.0585C28.047 94.0443 27.592 93.8404 27.2616 93.4913L25.1259 91.2222L24.9906 91.3499L27.2538 93.7545C27.5843 94.1036 28.0392 94.3074 28.5192 94.3216C28.9993 94.3358 29.4654 94.1592 29.8158 93.8303C30.0047 93.6514 30.1529 93.4338 30.2502 93.1923C30.3475 92.9509 30.3917 92.6912 30.3797 92.4311Z" fill="black"/>
<path d="M15.7722 92.2467C15.4418 91.8976 14.9869 91.6938 14.5068 91.6796C14.0268 91.6654 13.5606 91.842 13.2102 92.1709C12.8617 92.5019 12.6582 92.9575 12.644 93.4383C12.6298 93.9191 12.8062 94.3859 13.1346 94.7369L15.4616 97.2093L18.0992 94.7191L15.7722 92.2467Z" fill="#3F3D56"/>
<path d="M20.235 96.9883L17.9718 94.5836L15.3341 97.0738L17.5973 99.4785C17.9278 99.8275 18.3827 100.031 18.8627 100.046C19.3428 100.06 19.8089 99.8832 20.1594 99.5543C20.5079 99.2233 20.7114 98.7677 20.7256 98.2869C20.7398 97.8061 20.5634 97.3392 20.235 96.9883Z" fill="#673AB7"/>
<path opacity="0.2" d="M20.7232 98.1551C20.6808 98.5885 20.4833 98.992 20.1671 99.291C19.8167 99.6199 19.3506 99.7966 18.8705 99.7824C18.3905 99.7682 17.9356 99.5643 17.6051 99.2153L15.4694 96.9461L15.3341 97.0738L17.5973 99.4785C17.9278 99.8275 18.3827 100.031 18.8627 100.046C19.3428 100.06 19.8089 99.8831 20.1594 99.5542C20.3482 99.3753 20.4964 99.1577 20.5937 98.9163C20.691 98.6748 20.7352 98.4152 20.7232 98.1551Z" fill="black"/>
<path d="M25.4287 97.5758C25.0983 97.2268 24.6434 97.0229 24.1633 97.0087C23.6833 96.9945 23.2171 97.1712 22.8667 97.5001C22.5182 97.831 22.3146 98.2867 22.3005 98.7675C22.2863 99.2482 22.4627 99.7151 22.7911 100.066L25.1181 102.538L27.7557 100.048L25.4287 97.5758Z" fill="#3F3D56"/>
<path d="M29.8915 102.317L27.6283 99.9128L24.9906 102.403L27.2538 104.808C27.5843 105.157 28.0392 105.361 28.5192 105.375C28.9993 105.389 29.4654 105.212 29.8158 104.883C30.1643 104.552 30.3679 104.097 30.3821 103.616C30.3963 103.135 30.2199 102.668 29.8915 102.317Z" fill="#673AB7"/>
<path opacity="0.2" d="M30.3797 103.484C30.3373 103.918 30.1398 104.321 29.8236 104.62C29.4732 104.949 29.0071 105.126 28.527 105.112C28.047 105.097 27.592 104.894 27.2616 104.544L25.1259 102.275L24.9906 102.403L27.2538 104.808C27.5843 105.157 28.0392 105.361 28.5192 105.375C28.9993 105.389 29.4654 105.212 29.8158 104.883C30.0047 104.705 30.1529 104.487 30.2502 104.245C30.3475 104.004 30.3917 103.744 30.3797 103.484Z" fill="black"/>
<path d="M31.3198 108.919C31.6643 108.583 31.8623 108.125 31.8706 107.644C31.879 107.164 31.6969 106.699 31.3643 106.352C31.0297 106.007 30.5723 105.809 30.0921 105.8C29.6119 105.792 29.148 105.974 28.8016 106.307L26.3615 108.668L28.8797 111.279L31.3198 108.919Z" fill="#3F3D56"/>
<path d="M26.6401 113.445L29.0134 111.15L26.4951 108.538L24.1219 110.834C23.7774 111.169 23.5794 111.627 23.5711 112.108C23.5627 112.589 23.7448 113.054 24.0774 113.401C24.412 113.746 24.8694 113.944 25.3496 113.953C25.8298 113.961 26.2937 113.779 26.6401 113.445Z" fill="#673AB7"/>
<path opacity="0.2" d="M25.4811 113.949C25.0478 113.911 24.6426 113.718 24.3402 113.405C24.0076 113.059 23.8256 112.594 23.8339 112.113C23.8423 111.632 24.0403 111.174 24.3847 110.839L26.6243 108.672L26.4951 108.538L24.1219 110.834C23.7774 111.169 23.5794 111.627 23.5711 112.108C23.5627 112.589 23.7448 113.054 24.0774 113.401C24.2583 113.588 24.4774 113.734 24.7196 113.828C24.9618 113.923 25.2216 113.964 25.4811 113.949Z" fill="black"/>
<path d="M18.313 103.195C18.6574 102.859 18.8555 102.401 18.8638 101.92C18.8721 101.44 18.6901 100.975 18.3575 100.628C18.0228 100.283 17.5655 100.085 17.0853 100.076C16.6051 100.068 16.1411 100.25 15.7947 100.583L13.3546 102.944L15.8729 105.555L18.313 103.195Z" fill="#3F3D56"/>
<path d="M13.6333 107.722L16.0066 105.426L13.4883 102.814L11.1151 105.11C10.7706 105.445 10.5726 105.903 10.5642 106.384C10.5559 106.865 10.7379 107.33 11.0706 107.677C11.4052 108.022 11.8626 108.22 12.3427 108.229C12.8229 108.237 13.2869 108.055 13.6333 107.722Z" fill="#673AB7"/>
<path opacity="0.2" d="M12.4743 108.225C12.041 108.187 11.6358 107.995 11.3334 107.682C11.0008 107.335 10.8187 106.87 10.8271 106.389C10.8354 105.908 11.0335 105.45 11.3779 105.115L13.6174 102.948L13.4883 102.814L11.1151 105.11C10.7706 105.445 10.5726 105.903 10.5642 106.384C10.5559 106.865 10.7379 107.33 11.0706 107.677C11.2515 107.864 11.4705 108.01 11.7128 108.104C11.955 108.199 12.2147 108.24 12.4743 108.225Z" fill="black"/>
<path d="M36.8378 96.2864C37.1822 95.9512 37.3802 95.4931 37.3886 95.0122C37.3969 94.5313 37.2149 94.0666 36.8823 93.7197C36.5476 93.3747 36.0902 93.1764 35.6101 93.168C35.1299 93.1596 34.6659 93.3419 34.3195 93.6751L31.8794 96.0356L34.3976 98.6468L36.8378 96.2864Z" fill="#3F3D56"/>
<path d="M32.1581 100.813L34.5313 98.5175L32.0131 95.9062L29.6398 98.202C29.2954 98.5372 29.0974 98.9953 29.089 99.4762C29.0807 99.9571 29.2627 100.422 29.5953 100.769C29.93 101.114 30.3874 101.312 30.8675 101.32C31.3477 101.329 31.8117 101.146 32.1581 100.813Z" fill="#673AB7"/>
<path opacity="0.2" d="M30.9991 101.316C30.5658 101.279 30.1606 101.086 29.8582 100.773C29.5256 100.426 29.3435 99.9617 29.3519 99.4808C29.3602 98.9999 29.5582 98.5418 29.9027 98.2066L32.1422 96.0402L32.0131 95.9062L29.6398 98.202C29.2954 98.5372 29.0974 98.9953 29.089 99.4762C29.0807 99.9571 29.2627 100.422 29.5953 100.769C29.7763 100.956 29.9953 101.101 30.2375 101.196C30.4798 101.29 30.7395 101.332 30.9991 101.316Z" fill="black"/>
<path d="M32.7205 110.603C32.39 110.254 31.9351 110.05 31.4551 110.036C30.975 110.021 30.5089 110.198 30.1585 110.527C29.81 110.858 29.6064 111.314 29.5922 111.794C29.5781 112.275 29.7544 112.742 30.0828 113.093L32.4098 115.565L35.0475 113.075L32.7205 110.603Z" fill="#3F3D56"/>
<path d="M37.1831 115.344L34.9199 112.94L32.2822 115.43L34.5455 117.835C34.8759 118.184 35.3308 118.387 35.8109 118.402C36.2909 118.416 36.757 118.239 37.1075 117.91C37.456 117.579 37.6595 117.124 37.6737 116.643C37.6879 116.162 37.5115 115.695 37.1831 115.344Z" fill="#673AB7"/>
<path opacity="0.2" d="M37.6714 116.511C37.6289 116.945 37.4314 117.348 37.1152 117.647C36.7648 117.976 36.2987 118.153 35.8186 118.139C35.3386 118.124 34.8837 117.92 34.5532 117.571L32.4175 115.302L32.2822 115.43L34.5455 117.835C34.8759 118.184 35.3308 118.388 35.8109 118.402C36.2909 118.416 36.757 118.239 37.1075 117.91C37.2964 117.731 37.4445 117.514 37.5418 117.272C37.6391 117.031 37.6833 116.771 37.6714 116.511Z" fill="black"/>
<path d="M19.9108 110.405C19.5803 110.056 19.1254 109.852 18.6454 109.838C18.1653 109.824 17.6992 110.001 17.3488 110.33C17.0003 110.661 16.7967 111.116 16.7825 111.597C16.7684 112.078 16.9447 112.545 17.2731 112.896L19.6001 115.368L22.2378 112.878L19.9108 110.405Z" fill="#3F3D56"/>
<path d="M24.3735 115.147L22.1103 112.742L19.4727 115.233L21.7359 117.637C22.0663 117.986 22.5213 118.19 23.0013 118.204C23.4813 118.218 23.9475 118.042 24.2979 117.713C24.6464 117.382 24.85 116.926 24.8641 116.446C24.8783 115.965 24.7019 115.498 24.3735 115.147Z" fill="#673AB7"/>
<path opacity="0.2" d="M24.8618 116.314C24.8193 116.747 24.6218 117.151 24.3057 117.45C23.9552 117.779 23.4891 117.955 23.0091 117.941C22.529 117.927 22.0741 117.723 21.7437 117.374L19.6079 115.105L19.4727 115.233L21.7359 117.637C22.0663 117.986 22.5213 118.19 23.0013 118.204C23.4813 118.219 23.9475 118.042 24.2979 117.713C24.4868 117.534 24.6349 117.316 24.7322 117.075C24.8295 116.834 24.8737 116.574 24.8618 116.314Z" fill="black"/>
<path d="M23.5164 103.893C23.5165 104.497 23.3085 105.082 22.9274 105.549C22.5464 106.017 22.0158 106.338 21.4254 106.459C21.0804 106.529 20.7249 106.529 20.3799 106.459C19.7895 106.338 19.259 106.017 18.878 105.549C18.4969 105.082 18.2888 104.497 18.2888 103.893C18.2888 103.29 18.4969 102.705 18.878 102.237C19.259 101.77 19.7895 101.449 20.3799 101.328C20.7249 101.258 21.0804 101.258 21.4254 101.328C22.0158 101.448 22.5464 101.77 22.9274 102.237C23.3085 102.705 23.5165 103.29 23.5164 103.893Z" fill="#673AB7"/>
<path opacity="0.2" d="M21.4254 101.328V106.459C21.0804 106.529 20.7249 106.529 20.3799 106.459V101.328C20.7249 101.258 21.0804 101.258 21.4254 101.328Z" fill="black"/>
<path d="M24.6989 93.4322C24.699 94.0357 24.491 94.6207 24.1099 95.0882C23.7289 95.5557 23.1983 95.877 22.6079 95.9977C22.2628 96.0675 21.9074 96.0675 21.5624 95.9977C20.972 95.8769 20.4415 95.5556 20.0604 95.0881C19.6794 94.6206 19.4713 94.0357 19.4713 93.4322C19.4713 92.8288 19.6794 92.2438 20.0604 91.7763C20.4415 91.3089 20.972 90.9876 21.5624 90.8667C21.9074 90.7969 22.2628 90.7969 22.6079 90.8667C23.1983 90.9874 23.7289 91.3087 24.1099 91.7762C24.491 92.2437 24.699 92.8287 24.6989 93.4322Z" fill="#673AB7"/>
<path opacity="0.2" d="M22.6079 90.8667V95.9977C22.2629 96.0675 21.9074 96.0675 21.5624 95.9977V90.8667C21.9074 90.7969 22.2629 90.7969 22.6079 90.8667Z" fill="black"/>
<path d="M24.6989 108.433C24.699 109.036 24.491 109.621 24.1099 110.089C23.7289 110.556 23.1983 110.878 22.6079 110.998C22.2628 111.068 21.9074 111.068 21.5624 110.998C20.972 110.878 20.4415 110.556 20.0604 110.089C19.6794 109.621 19.4713 109.036 19.4713 108.433C19.4713 107.829 19.6794 107.244 20.0604 106.777C20.4415 106.31 20.972 105.988 21.5624 105.867C21.9074 105.798 22.2628 105.798 22.6079 105.867C23.1983 105.988 23.7289 106.309 24.1099 106.777C24.491 107.244 24.699 107.829 24.6989 108.433Z" fill="#673AB7"/>
<path opacity="0.2" d="M22.6079 105.867V110.998C22.2629 111.068 21.9074 111.068 21.5624 110.998V105.867C21.9074 105.798 22.2629 105.798 22.6079 105.867Z" fill="black"/>
<path d="M31.2023 115.736C31.2024 116.339 30.9944 116.924 30.6133 117.392C30.2323 117.859 29.7017 118.181 29.1113 118.301C28.7663 118.371 28.4108 118.371 28.0658 118.301C27.4754 118.181 26.9449 117.859 26.5639 117.392C26.1828 116.924 25.9747 116.339 25.9747 115.736C25.9747 115.132 26.1828 114.547 26.5639 114.08C26.9449 113.613 27.4754 113.291 28.0658 113.17C28.4108 113.101 28.7663 113.101 29.1113 113.17C29.7017 113.291 30.2323 113.612 30.6133 114.08C30.9944 114.547 31.2025 115.132 31.2023 115.736Z" fill="#673AB7"/>
<path opacity="0.2" d="M29.1112 113.17V118.301C28.7662 118.371 28.4107 118.371 28.0657 118.301V113.17C28.4107 113.101 28.7662 113.101 29.1112 113.17Z" fill="black"/>
<path d="M36.9472 102.299C37.3811 102.718 37.6573 103.274 37.7289 103.873C37.8006 104.472 37.6633 105.078 37.3404 105.588C37.1511 105.885 36.9044 106.141 36.6148 106.341C36.1183 106.683 35.5191 106.843 34.9186 106.793C34.3181 106.744 33.7532 106.488 33.3194 106.069C32.8856 105.65 32.6095 105.094 32.5378 104.495C32.4662 103.896 32.6034 103.29 32.9262 102.781C33.1155 102.483 33.3622 102.227 33.6518 102.027C34.1483 101.685 34.7475 101.525 35.348 101.575C35.9485 101.624 36.5135 101.88 36.9472 102.299Z" fill="#673AB7"/>
<path opacity="0.2" d="M33.6518 102.027L37.3404 105.587C37.1512 105.885 36.9045 106.141 36.6149 106.341L32.9263 102.781C33.1155 102.483 33.3622 102.227 33.6518 102.027Z" fill="black"/>
<path d="M37.7355 108.023C38.1695 108.442 38.4456 108.998 38.5173 109.597C38.5889 110.196 38.4517 110.802 38.1287 111.311C37.9395 111.609 37.6928 111.865 37.4031 112.065C36.9066 112.407 36.3074 112.567 35.7069 112.517C35.1065 112.468 34.5415 112.212 34.1077 111.793C33.6739 111.374 33.3978 110.818 33.3262 110.219C33.2545 109.62 33.3917 109.014 33.7145 108.505C33.9038 108.207 34.1505 107.951 34.4401 107.751C34.9366 107.409 35.5358 107.249 36.1363 107.299C36.7368 107.348 37.3018 107.604 37.7355 108.023Z" fill="#673AB7"/>
<path opacity="0.2" d="M34.4402 107.751L38.1288 111.311C37.9395 111.609 37.6928 111.865 37.4032 112.065L33.7146 108.505C33.9039 108.207 34.1506 107.951 34.4402 107.751Z" fill="black"/>
<path d="M14.284 109.405C14.7179 109.824 14.9941 110.38 15.0657 110.979C15.1374 111.578 15.0001 112.184 14.6772 112.693C14.4879 112.99 14.2412 113.247 13.9516 113.447C13.4551 113.789 12.8559 113.949 12.2554 113.899C11.6549 113.849 11.09 113.593 10.6562 113.175C10.2224 112.756 9.94627 112.2 9.87463 111.601C9.80299 111.001 9.94018 110.396 10.263 109.886C10.4523 109.589 10.699 109.333 10.9886 109.132C11.4851 108.79 12.0843 108.631 12.6848 108.68C13.2853 108.73 13.8503 108.986 14.284 109.405Z" fill="#673AB7"/>
<path opacity="0.2" d="M10.9885 109.132L14.6771 112.693C14.4879 112.99 14.2412 113.247 13.9515 113.447L10.2629 109.886C10.4522 109.589 10.6989 109.333 10.9885 109.132Z" fill="black"/>
<path opacity="0.2" d="M5.84742 62.3921H4.86206V69.695H5.84742V62.3921Z" fill="black"/>
<path opacity="0.2" d="M11.5625 62.3921H10.5771V69.695H11.5625V62.3921Z" fill="black"/>
<path opacity="0.2" d="M17.2776 62.3921H16.2922V69.695H17.2776V62.3921Z" fill="black"/>
<path opacity="0.2" d="M22.9927 62.3921H22.0073V69.695H22.9927V62.3921Z" fill="black"/>
<path opacity="0.2" d="M28.7078 62.3921H27.7224V69.695H28.7078V62.3921Z" fill="black"/>
<path opacity="0.2" d="M34.4229 62.3921H33.4375V69.695H34.4229V62.3921Z" fill="black"/>
<path opacity="0.2" d="M40.1379 62.3921H39.1526V69.695H40.1379V62.3921Z" fill="black"/>
</g>
<defs>
<clipPath id="clip0_15_1050">
<rect width="110" height="122" fill="white"/>
</clipPath>
</defs>
</svg>
