<svg width="140" height="101" viewBox="0 0 140 101" fill="none" xmlns="http://www.w3.org/2000/svg">
<g clip-path="url(#clip0_15_1663)">
<path d="M6.47056 20.5642C7.70261 20.5642 8.70138 19.555 8.70138 18.3102C8.70138 17.0653 7.70261 16.0562 6.47056 16.0562C5.23852 16.0562 4.23975 17.0653 4.23975 18.3102C4.23975 19.555 5.23852 20.5642 6.47056 20.5642Z" fill="#E6E6E6"/>
<path d="M13.1629 20.5642C14.395 20.5642 15.3938 19.555 15.3938 18.3102C15.3938 17.0653 14.395 16.0562 13.1629 16.0562C11.9309 16.0562 10.9321 17.0653 10.9321 18.3102C10.9321 19.555 11.9309 20.5642 13.1629 20.5642Z" fill="#E6E6E6"/>
<path d="M19.8554 20.5642C21.0875 20.5642 22.0863 19.555 22.0863 18.3102C22.0863 17.0653 21.0875 16.0562 19.8554 16.0562C18.6234 16.0562 17.6246 17.0653 17.6246 18.3102C17.6246 19.555 18.6234 20.5642 19.8554 20.5642Z" fill="#E6E6E6"/>
<path d="M26.5478 20.5642C27.7799 20.5642 28.7786 19.555 28.7786 18.3102C28.7786 17.0653 27.7799 16.0562 26.5478 16.0562C25.3158 16.0562 24.317 17.0653 24.317 18.3102C24.317 19.555 25.3158 20.5642 26.5478 20.5642Z" fill="#E6E6E6"/>
<path d="M33.2403 20.5642C34.4724 20.5642 35.4712 19.555 35.4712 18.3102C35.4712 17.0653 34.4724 16.0562 33.2403 16.0562C32.0083 16.0562 31.0095 17.0653 31.0095 18.3102C31.0095 19.555 32.0083 20.5642 33.2403 20.5642Z" fill="#E6E6E6"/>
<path d="M39.9327 20.5642C41.1648 20.5642 42.1635 19.555 42.1635 18.3102C42.1635 17.0653 41.1648 16.0562 39.9327 16.0562C38.7007 16.0562 37.7019 17.0653 37.7019 18.3102C37.7019 19.555 38.7007 20.5642 39.9327 20.5642Z" fill="#E6E6E6"/>
<path d="M46.6252 20.5642C47.8573 20.5642 48.856 19.555 48.856 18.3102C48.856 17.0653 47.8573 16.0562 46.6252 16.0562C45.3932 16.0562 44.3944 17.0653 44.3944 18.3102C44.3944 19.555 45.3932 20.5642 46.6252 20.5642Z" fill="#E6E6E6"/>
<path d="M51.7801 21.055H1.31554C1.07486 21.0547 0.84411 20.958 0.673921 20.786C0.503732 20.6141 0.407998 20.3809 0.407715 20.1377V16.4826C0.407997 16.2394 0.503732 16.0062 0.673921 15.8343C0.84411 15.6623 1.07485 15.5656 1.31554 15.5653H51.7801C52.0208 15.5656 52.2516 15.6623 52.4218 15.8343C52.592 16.0062 52.6877 16.2394 52.688 16.4826V20.1377C52.6877 20.3809 52.592 20.6141 52.4218 20.786C52.2516 20.958 52.0208 21.0547 51.7801 21.055ZM1.31554 15.9322C1.17112 15.9324 1.03267 15.9904 0.930556 16.0936C0.82844 16.1968 0.771001 16.3367 0.770844 16.4826V20.1377C0.771002 20.2836 0.82844 20.4235 0.930556 20.5267C1.03267 20.6299 1.17112 20.6879 1.31554 20.6881H51.7801C51.9246 20.6879 52.063 20.6299 52.1651 20.5267C52.2672 20.4235 52.3247 20.2836 52.3248 20.1377V16.4826C52.3247 16.3367 52.2672 16.1968 52.1651 16.0936C52.063 15.9904 51.9246 15.9324 51.7801 15.9322L1.31554 15.9322Z" fill="#E6E6E6"/>
<path d="M12.1153 0.527021C12.2536 0.52718 12.3862 0.582757 12.484 0.681557C12.5817 0.780357 12.6367 0.91431 12.6369 1.05403V12.4745C12.6367 12.6142 12.5817 12.7482 12.484 12.847C12.3862 12.9458 12.2536 13.0013 12.1153 13.0015H1.0432C0.904918 13.0013 0.77234 12.9458 0.674556 12.847C0.576773 12.7482 0.521768 12.6142 0.52161 12.4745V1.05404C0.521768 0.91432 0.576773 0.780364 0.674556 0.681565C0.77234 0.582765 0.904918 0.527188 1.0432 0.527028H12.1153M12.1153 7.56974e-06H1.0432C0.76653 7.56974e-06 0.501187 0.111058 0.305549 0.308729C0.109911 0.506401 0 0.774502 0 1.05405V12.4745C0 12.754 0.109911 13.0221 0.305549 13.2198C0.501187 13.4175 0.76653 13.5285 1.0432 13.5285H12.1153C12.392 13.5285 12.6573 13.4175 12.853 13.2198C13.0486 13.0221 13.1585 12.754 13.1585 12.4745V1.05404C13.1585 0.774494 13.0486 0.506393 12.853 0.308722C12.6573 0.11105 12.392 4.3857e-07 12.1153 0V7.56974e-06Z" fill="#E6E6E6"/>
<path d="M10.3883 3.52897H3.00105C2.96667 3.52918 2.93258 3.52253 2.90075 3.50938C2.86893 3.49623 2.83999 3.47686 2.8156 3.45237C2.79121 3.42788 2.77186 3.39876 2.75865 3.36668C2.74545 3.3346 2.73865 3.30021 2.73865 3.26547C2.73865 3.23073 2.74545 3.19633 2.75865 3.16425C2.77186 3.13217 2.79121 3.10305 2.8156 3.07856C2.83999 3.05407 2.86893 3.0347 2.90075 3.02155C2.93258 3.0084 2.96667 3.00174 3.00105 3.00196H10.3883C10.4227 3.00174 10.4567 3.0084 10.4886 3.02155C10.5204 3.0347 10.5493 3.05407 10.5737 3.07856C10.5981 3.10305 10.6175 3.13217 10.6307 3.16425C10.6439 3.19633 10.6507 3.23073 10.6507 3.26547C10.6507 3.30021 10.6439 3.3346 10.6307 3.36668C10.6175 3.39876 10.5981 3.42788 10.5737 3.45237C10.5493 3.47686 10.5204 3.49623 10.4886 3.50938C10.4567 3.52253 10.4227 3.52918 10.3883 3.52897Z" fill="#673AB7"/>
<path d="M10.3883 5.395H3.00105C2.96667 5.39521 2.93258 5.38855 2.90075 5.37541C2.86893 5.36226 2.83999 5.34288 2.8156 5.31839C2.79121 5.2939 2.77186 5.26478 2.75865 5.23271C2.74545 5.20063 2.73865 5.16623 2.73865 5.13149C2.73865 5.09675 2.74545 5.06235 2.75865 5.03028C2.77186 4.9982 2.79121 4.96908 2.8156 4.94459C2.83999 4.9201 2.86893 4.90073 2.90075 4.88758C2.93258 4.87443 2.96667 4.86777 3.00105 4.86799H10.3883C10.4227 4.86777 10.4567 4.87443 10.4886 4.88758C10.5204 4.90073 10.5493 4.9201 10.5737 4.94459C10.5981 4.96908 10.6175 4.9982 10.6307 5.03028C10.6439 5.06235 10.6507 5.09675 10.6507 5.13149C10.6507 5.16623 10.6439 5.20063 10.6307 5.23271C10.6175 5.26478 10.5981 5.2939 10.5737 5.31839C10.5493 5.34288 10.5204 5.36226 10.4886 5.37541C10.4567 5.38855 10.4227 5.39521 10.3883 5.395Z" fill="#673AB7"/>
<path d="M10.3883 7.2609H3.00105C2.96667 7.26112 2.93258 7.25446 2.90075 7.24131C2.86893 7.22816 2.83999 7.20879 2.8156 7.1843C2.79121 7.15981 2.77186 7.13069 2.75865 7.09861C2.74545 7.06654 2.73865 7.03214 2.73865 6.9974C2.73865 6.96266 2.74545 6.92826 2.75865 6.89618C2.77186 6.86411 2.79121 6.83499 2.8156 6.81049C2.83999 6.786 2.86893 6.76663 2.90075 6.75348C2.93258 6.74034 2.96667 6.73368 3.00105 6.73389H10.3883C10.4227 6.73368 10.4567 6.74034 10.4886 6.75348C10.5204 6.76663 10.5493 6.786 10.5737 6.81049C10.5981 6.83499 10.6175 6.86411 10.6307 6.89618C10.6439 6.92826 10.6507 6.96266 10.6507 6.9974C10.6507 7.03214 10.6439 7.06654 10.6307 7.09861C10.6175 7.13069 10.5981 7.15981 10.5737 7.1843C10.5493 7.20879 10.5204 7.22816 10.4886 7.24131C10.4567 7.25446 10.4227 7.26112 10.3883 7.2609Z" fill="#673AB7"/>
<path d="M10.3883 9.12699H3.00105C2.96667 9.12721 2.93258 9.12055 2.90075 9.1074C2.86893 9.09425 2.83999 9.07488 2.8156 9.05039C2.79121 9.0259 2.77186 8.99678 2.75865 8.9647C2.74545 8.93262 2.73865 8.89823 2.73865 8.86349C2.73865 8.82874 2.74545 8.79435 2.75865 8.76227C2.77186 8.73019 2.79121 8.70107 2.8156 8.67658C2.83999 8.65209 2.86893 8.63272 2.90075 8.61957C2.93258 8.60642 2.96667 8.59977 3.00105 8.59998H10.3883C10.4227 8.59977 10.4567 8.60642 10.4886 8.61957C10.5204 8.63272 10.5493 8.65209 10.5737 8.67658C10.5981 8.70107 10.6175 8.73019 10.6307 8.76227C10.6439 8.79435 10.6507 8.82874 10.6507 8.86349C10.6507 8.89823 10.6439 8.93262 10.6307 8.9647C10.6175 8.99678 10.5981 9.0259 10.5737 9.05039C10.5493 9.07488 10.5204 9.09425 10.4886 9.1074C10.4567 9.12055 10.4227 9.12721 10.3883 9.12699Z" fill="#673AB7"/>
<path d="M10.3883 10.9931H3.00103C2.93187 10.9931 2.86553 10.9653 2.81662 10.9159C2.76771 10.8665 2.74023 10.7995 2.74023 10.7296C2.74023 10.6597 2.76771 10.5927 2.81662 10.5432C2.86553 10.4938 2.93187 10.4661 3.00103 10.4661H10.3883C10.4574 10.4661 10.5238 10.4938 10.5727 10.5432C10.6216 10.5927 10.6491 10.6597 10.6491 10.7296C10.6491 10.7995 10.6216 10.8665 10.5727 10.9159C10.5238 10.9653 10.4574 10.9931 10.3883 10.9931Z" fill="#673AB7"/>
<path d="M49.9313 0.527021C50.0696 0.52718 50.2022 0.582757 50.3 0.681557C50.3978 0.780357 50.4528 0.91431 50.4529 1.05403V12.4745C50.4528 12.6142 50.3978 12.7482 50.3 12.847C50.2022 12.9458 50.0696 13.0013 49.9313 13.0015H38.8592C38.721 13.0013 38.5884 12.9458 38.4906 12.847C38.3928 12.7482 38.3378 12.6142 38.3376 12.4745V1.05404C38.3378 0.91432 38.3928 0.780364 38.4906 0.681565C38.5884 0.582765 38.721 0.527188 38.8592 0.527028H49.9313M49.9313 7.56974e-06H38.8592C38.5826 7.56974e-06 38.3172 0.111058 38.1216 0.308729C37.926 0.506401 37.816 0.774502 37.816 1.05405V12.4745C37.816 12.754 37.926 13.0221 38.1216 13.2198C38.3172 13.4175 38.5826 13.5285 38.8592 13.5285H49.9313C50.208 13.5285 50.4734 13.4175 50.669 13.2198C50.8646 13.0221 50.9745 12.754 50.9745 12.4745V1.05404C50.9745 0.774494 50.8646 0.506393 50.669 0.308722C50.4734 0.11105 50.208 0 49.9313 0V7.56974e-06Z" fill="#E6E6E6"/>
<path d="M48.2044 3.52897H40.8172C40.7828 3.52918 40.7487 3.52253 40.7169 3.50938C40.6851 3.49623 40.6561 3.47686 40.6318 3.45237C40.6074 3.42788 40.588 3.39876 40.5748 3.36668C40.5616 3.3346 40.5548 3.30021 40.5548 3.26547C40.5548 3.23073 40.5616 3.19633 40.5748 3.16425C40.588 3.13217 40.6074 3.10305 40.6318 3.07856C40.6561 3.05407 40.6851 3.0347 40.7169 3.02155C40.7487 3.0084 40.7828 3.00174 40.8172 3.00196H48.2044C48.2733 3.00239 48.3393 3.03034 48.3878 3.07971C48.4364 3.12908 48.4636 3.19586 48.4636 3.26547C48.4636 3.33507 48.4364 3.40185 48.3878 3.45122C48.3393 3.50059 48.2733 3.52854 48.2044 3.52897H48.2044Z" fill="#673AB7"/>
<path d="M48.2044 5.395H40.8172C40.7828 5.39521 40.7487 5.38855 40.7169 5.37541C40.6851 5.36226 40.6561 5.34288 40.6318 5.31839C40.6074 5.2939 40.588 5.26478 40.5748 5.23271C40.5616 5.20063 40.5548 5.16623 40.5548 5.13149C40.5548 5.09675 40.5616 5.06235 40.5748 5.03028C40.588 4.9982 40.6074 4.96908 40.6318 4.94459C40.6561 4.9201 40.6851 4.90073 40.7169 4.88758C40.7487 4.87443 40.7828 4.86777 40.8172 4.86799H48.2044C48.2733 4.86841 48.3393 4.89636 48.3878 4.94573C48.4364 4.99511 48.4636 5.06188 48.4636 5.13149C48.4636 5.2011 48.4364 5.26788 48.3878 5.31725C48.3393 5.36662 48.2733 5.39457 48.2044 5.395H48.2044Z" fill="#673AB7"/>
<path d="M48.2044 7.2609H40.8172C40.7828 7.26112 40.7487 7.25446 40.7169 7.24131C40.6851 7.22816 40.6561 7.20879 40.6318 7.1843C40.6074 7.15981 40.588 7.13069 40.5748 7.09861C40.5616 7.06654 40.5548 7.03214 40.5548 6.9974C40.5548 6.96266 40.5616 6.92826 40.5748 6.89618C40.588 6.86411 40.6074 6.83499 40.6318 6.81049C40.6561 6.786 40.6851 6.76663 40.7169 6.75348C40.7487 6.74034 40.7828 6.73368 40.8172 6.73389H48.2044C48.2733 6.73432 48.3393 6.76227 48.3878 6.81164C48.4364 6.86101 48.4636 6.92779 48.4636 6.9974C48.4636 7.067 48.4364 7.13379 48.3878 7.18316C48.3393 7.23253 48.2733 7.26048 48.2044 7.2609H48.2044Z" fill="#673AB7"/>
<path d="M48.2044 9.12699H40.8172C40.7828 9.12721 40.7487 9.12055 40.7169 9.1074C40.6851 9.09425 40.6561 9.07488 40.6318 9.05039C40.6074 9.0259 40.588 8.99678 40.5748 8.9647C40.5616 8.93262 40.5548 8.89823 40.5548 8.86349C40.5548 8.82874 40.5616 8.79435 40.5748 8.76227C40.588 8.73019 40.6074 8.70107 40.6318 8.67658C40.6561 8.65209 40.6851 8.63272 40.7169 8.61957C40.7487 8.60642 40.7828 8.59977 40.8172 8.59998H48.2044C48.2733 8.60041 48.3393 8.62836 48.3878 8.67773C48.4364 8.7271 48.4636 8.79388 48.4636 8.86349C48.4636 8.93309 48.4364 8.99987 48.3878 9.04924C48.3393 9.09862 48.2733 9.12657 48.2044 9.12699H48.2044Z" fill="#673AB7"/>
<path d="M48.2044 10.9931H40.8172C40.748 10.9931 40.6817 10.9653 40.6328 10.9159C40.5839 10.8665 40.5564 10.7995 40.5564 10.7296C40.5564 10.6597 40.5839 10.5927 40.6328 10.5432C40.6817 10.4938 40.748 10.4661 40.8172 10.4661H48.2044C48.2736 10.4661 48.3399 10.4938 48.3888 10.5432C48.4378 10.5927 48.4652 10.6597 48.4652 10.7296C48.4652 10.7995 48.4378 10.8665 48.3888 10.9159C48.3399 10.9653 48.2736 10.9931 48.2044 10.9931H48.2044Z" fill="#673AB7"/>
<path d="M87.5638 22.4859C87.7021 22.486 87.8347 22.5416 87.9324 22.6404C88.0302 22.7392 88.0852 22.8732 88.0854 23.0129V34.4333C88.0852 34.5731 88.0302 34.707 87.9324 34.8058C87.8347 34.9046 87.7021 34.9602 87.5638 34.9603H76.4917C76.3534 34.9602 76.2208 34.9046 76.123 34.8058C76.0253 34.707 75.9703 34.5731 75.9701 34.4333V23.0129C75.9703 22.8732 76.0253 22.7392 76.123 22.6404C76.2208 22.5416 76.3534 22.4861 76.4917 22.4859H87.5638M87.5638 21.9589H76.4917C76.215 21.9589 75.9497 22.0699 75.754 22.2676C75.5584 22.4653 75.4485 22.7334 75.4485 23.0129V34.4334C75.4485 34.7129 75.5584 34.981 75.754 35.1787C75.9497 35.3763 76.215 35.4874 76.4917 35.4874H87.5638C87.8405 35.4874 88.1058 35.3763 88.3014 35.1787C88.4971 34.981 88.607 34.7129 88.607 34.4334V23.0129C88.607 22.7334 88.4971 22.4653 88.3014 22.2676C88.1058 22.0699 87.8405 21.9589 87.5638 21.9589V21.9589Z" fill="#673AB7"/>
<path d="M85.8368 25.4878H78.4495C78.4152 25.488 78.3811 25.4814 78.3492 25.4682C78.3174 25.4551 78.2885 25.4357 78.2641 25.4112C78.2397 25.3867 78.2203 25.3576 78.2071 25.3255C78.1939 25.2935 78.1871 25.2591 78.1871 25.2243C78.1871 25.1896 78.1939 25.1552 78.2071 25.1231C78.2203 25.091 78.2397 25.0619 78.2641 25.0374C78.2885 25.0129 78.3174 24.9936 78.3492 24.9804C78.3811 24.9673 78.4152 24.9606 78.4495 24.9608H85.8368C85.9057 24.9612 85.9716 24.9892 86.0201 25.0386C86.0687 25.0879 86.096 25.1547 86.096 25.2243C86.096 25.2939 86.0687 25.3607 86.0201 25.4101C85.9716 25.4595 85.9057 25.4874 85.8368 25.4878Z" fill="#673AB7"/>
<path d="M85.8368 27.3539H78.4495C78.3804 27.3539 78.314 27.3262 78.2651 27.2767C78.2162 27.2273 78.1887 27.1603 78.1887 27.0904C78.1887 27.0205 78.2162 26.9535 78.2651 26.9041C78.314 26.8547 78.3804 26.8269 78.4495 26.8269H85.8368C85.9059 26.8269 85.9723 26.8547 86.0212 26.9041C86.0701 26.9535 86.0975 27.0205 86.0975 27.0904C86.0975 27.1603 86.0701 27.2273 86.0212 27.2767C85.9723 27.3262 85.9059 27.3539 85.8368 27.3539Z" fill="#673AB7"/>
<path d="M85.8368 29.2198H78.4496C78.4153 29.2199 78.3812 29.2133 78.3494 29.2001C78.3176 29.1869 78.2887 29.1675 78.2644 29.1431C78.24 29.1186 78.2207 29.0895 78.2075 29.0574C78.1943 29.0253 78.1875 28.991 78.1875 28.9563C78.1875 28.9215 78.1943 28.8872 78.2075 28.8551C78.2207 28.8231 78.24 28.7939 78.2644 28.7695C78.2887 28.745 78.3176 28.7256 78.3494 28.7124C78.3812 28.6993 78.4153 28.6926 78.4496 28.6928H85.8368C85.9057 28.6932 85.9717 28.7211 86.0202 28.7705C86.0688 28.8199 86.096 28.8866 86.096 28.9563C86.096 29.0259 86.0688 29.0926 86.0202 29.142C85.9717 29.1914 85.9057 29.2193 85.8368 29.2198Z" fill="#673AB7"/>
<path d="M85.8368 31.0859H78.4495C78.4152 31.0861 78.3811 31.0794 78.3492 31.0663C78.3174 31.0531 78.2885 31.0337 78.2641 31.0092C78.2397 30.9848 78.2203 30.9556 78.2071 30.9236C78.1939 30.8915 78.1871 30.8571 78.1871 30.8223C78.1871 30.7876 78.1939 30.7532 78.2071 30.7211C78.2203 30.6891 78.2397 30.6599 78.2641 30.6354C78.2885 30.611 78.3174 30.5916 78.3492 30.5784C78.3811 30.5653 78.4152 30.5586 78.4495 30.5588H85.8368C85.9057 30.5593 85.9716 30.5872 86.0201 30.6366C86.0687 30.686 86.096 30.7527 86.096 30.8223C86.096 30.892 86.0687 30.9587 86.0201 31.0081C85.9716 31.0575 85.9057 31.0854 85.8368 31.0859Z" fill="#673AB7"/>
<path d="M85.8368 32.9519H78.4495C78.4152 32.9522 78.3811 32.9455 78.3492 32.9324C78.3174 32.9192 78.2885 32.8998 78.2641 32.8753C78.2397 32.8509 78.2203 32.8217 78.2071 32.7897C78.1939 32.7576 78.1871 32.7232 78.1871 32.6884C78.1871 32.6537 78.1939 32.6193 78.2071 32.5872C78.2203 32.5551 78.2397 32.526 78.2641 32.5015C78.2885 32.477 78.3174 32.4577 78.3492 32.4445C78.3811 32.4314 78.4152 32.4247 78.4495 32.4249H85.8368C85.9057 32.4254 85.9716 32.4533 86.0201 32.5027C86.0687 32.552 86.096 32.6188 86.096 32.6884C86.096 32.758 86.0687 32.8248 86.0201 32.8742C85.9716 32.9236 85.9057 32.9515 85.8368 32.9519Z" fill="#673AB7"/>
<path d="M31.1682 13.5285H19.8062C19.4989 13.5282 19.2043 13.4047 18.9871 13.1851C18.7698 12.9656 18.6476 12.668 18.6472 12.3575V4.14287C18.6476 3.83239 18.7698 3.53473 18.987 3.31517C19.2043 3.09562 19.4989 2.97211 19.8062 2.97174H31.1682C31.4755 2.97208 31.7701 3.09558 31.9874 3.31513C32.2047 3.53469 32.3269 3.83237 32.3273 4.14287V12.3575C32.3269 12.668 32.2047 12.9657 31.9874 13.1852C31.7701 13.4047 31.4755 13.5282 31.1682 13.5285ZM19.8062 3.49876C19.6372 3.49897 19.4752 3.56691 19.3557 3.68766C19.2362 3.80841 19.169 3.97212 19.1688 4.14287V12.3575C19.169 12.5283 19.2362 12.692 19.3557 12.8127C19.4752 12.9334 19.6372 13.0013 19.8062 13.0015H31.1682C31.3372 13.0013 31.4992 12.9334 31.6187 12.8127C31.7382 12.692 31.8055 12.5283 31.8057 12.3575V4.14287C31.8055 3.97211 31.7382 3.8084 31.6187 3.68765C31.4992 3.5669 31.3372 3.49897 31.1682 3.49876H19.8062Z" fill="#E6E6E6"/>
<path d="M29.1809 6.64762H21.7936C21.7247 6.6472 21.6588 6.61925 21.6102 6.56988C21.5617 6.52051 21.5344 6.45373 21.5344 6.38412C21.5344 6.31451 21.5617 6.24773 21.6102 6.19836C21.6588 6.14899 21.7247 6.12104 21.7936 6.12061H29.1809C29.2152 6.1204 29.2493 6.12706 29.2812 6.1402C29.313 6.15335 29.3419 6.17273 29.3663 6.19722C29.3907 6.22171 29.41 6.25083 29.4233 6.2829C29.4365 6.31498 29.4433 6.34938 29.4433 6.38412C29.4433 6.41886 29.4365 6.45326 29.4233 6.48533C29.41 6.51741 29.3907 6.54653 29.3663 6.57102C29.3419 6.59551 29.313 6.61489 29.2812 6.62803C29.2493 6.64118 29.2152 6.64784 29.1809 6.64762Z" fill="#673AB7"/>
<path d="M29.1809 8.51371H21.7936C21.7247 8.51329 21.6588 8.48533 21.6102 8.43596C21.5617 8.38659 21.5344 8.31981 21.5344 8.25021C21.5344 8.1806 21.5617 8.11382 21.6102 8.06445C21.6588 8.01508 21.7247 7.98713 21.7936 7.9867H29.1809C29.2152 7.98649 29.2493 7.99315 29.2812 8.00629C29.313 8.01944 29.3419 8.03882 29.3663 8.06331C29.3907 8.0878 29.41 8.11692 29.4233 8.14899C29.4365 8.18107 29.4433 8.21547 29.4433 8.25021C29.4433 8.28495 29.4365 8.31935 29.4233 8.35142C29.41 8.3835 29.3907 8.41262 29.3663 8.43711C29.3419 8.4616 29.313 8.48098 29.2812 8.49412C29.2493 8.50727 29.2152 8.51393 29.1809 8.51371Z" fill="#673AB7"/>
<path d="M29.1809 10.3797H21.7936C21.7247 10.3793 21.6588 10.3513 21.6102 10.3019C21.5617 10.2526 21.5344 10.1858 21.5344 10.1162C21.5344 10.0466 21.5617 9.97979 21.6102 9.93041C21.6588 9.88104 21.7247 9.85309 21.7936 9.85267H29.1809C29.2152 9.85245 29.2493 9.85911 29.2812 9.87226C29.313 9.8854 29.3419 9.90478 29.3663 9.92927C29.3907 9.95376 29.41 9.98288 29.4233 10.015C29.4365 10.047 29.4433 10.0814 29.4433 10.1162C29.4433 10.1509 29.4365 10.1853 29.4233 10.2174C29.41 10.2495 29.3907 10.2786 29.3663 10.3031C29.3419 10.3276 29.313 10.3469 29.2812 10.3601C29.2493 10.3732 29.2152 10.3799 29.1809 10.3797Z" fill="#673AB7"/>
<path d="M68.8692 18.0805L57.9568 14.883C57.6618 14.7962 57.4129 14.5947 57.2648 14.3227C57.1166 14.0508 57.0813 13.7305 57.1665 13.4322L59.431 5.54264C59.5169 5.24454 59.7163 4.99304 59.9855 4.84332C60.2547 4.6936 60.5717 4.65789 60.8669 4.744L71.7793 7.9415C72.0743 8.02831 72.3233 8.22983 72.4714 8.50185C72.6196 8.77387 72.6549 9.09417 72.5697 9.39248L70.3052 17.2821C70.2193 17.5802 70.0198 17.8316 69.7506 17.9813C69.4814 18.131 69.1644 18.1667 68.8692 18.0805ZM60.7216 5.25017C60.5592 5.20281 60.3849 5.22247 60.2369 5.30482C60.0888 5.38716 59.9792 5.52548 59.9319 5.68943L57.6675 13.579C57.6206 13.743 57.64 13.9192 57.7215 14.0688C57.803 14.2183 57.9398 14.3291 58.1021 14.3769L69.0145 17.5744C69.1769 17.6218 69.3512 17.6021 69.4992 17.5198C69.6473 17.4375 69.757 17.2992 69.8043 17.1353L72.0687 9.24569C72.1156 9.08162 72.0962 8.90547 72.0147 8.75587C71.9332 8.60626 71.7963 8.49543 71.634 8.44766L60.7216 5.25017Z" fill="#E6E6E6"/>
<path d="M68.8574 10.9126L61.7625 8.83371C61.6962 8.81414 61.6403 8.76879 61.607 8.70761C61.5738 8.64642 61.5659 8.57441 61.5851 8.50738C61.6044 8.44034 61.6492 8.38376 61.7097 8.35004C61.7701 8.31633 61.8414 8.30824 61.9078 8.32754L69.0027 10.4065C69.0691 10.4259 69.1252 10.4713 69.1585 10.5325C69.1919 10.5937 69.1998 10.6658 69.1805 10.7329C69.1613 10.8001 69.1164 10.8567 69.0558 10.8904C68.9952 10.9241 68.9238 10.9321 68.8574 10.9126H68.8574Z" fill="#673AB7"/>
<path d="M68.343 12.7049L61.2481 10.626C61.2152 10.6163 61.1845 10.6002 61.1578 10.5786C61.131 10.557 61.1088 10.5303 61.0923 10.4999C61.0757 10.4696 61.0653 10.4363 61.0615 10.4019C61.0578 10.3675 61.0607 10.3327 61.0703 10.2995C61.0798 10.2663 61.0957 10.2352 61.1171 10.2082C61.1385 10.1812 61.165 10.1587 61.195 10.142C61.225 10.1253 61.258 10.1148 61.292 10.111C61.326 10.1072 61.3605 10.1102 61.3934 10.1198L68.4883 12.1987C68.5546 12.2183 68.6105 12.2636 68.6438 12.3248C68.677 12.386 68.6849 12.458 68.6656 12.525C68.6464 12.5921 68.6016 12.6487 68.5411 12.6824C68.4806 12.7161 68.4094 12.7242 68.343 12.7049Z" fill="#673AB7"/>
<path d="M67.8286 14.497L60.7337 12.4181C60.6674 12.3985 60.6115 12.3531 60.5782 12.292C60.545 12.2308 60.5371 12.1588 60.5563 12.0917C60.5756 12.0247 60.6204 11.9681 60.6808 11.9344C60.7413 11.9007 60.8126 11.8926 60.879 11.9119L67.9739 13.9908C68.0403 14.0103 68.0964 14.0556 68.1297 14.1168C68.1631 14.1781 68.171 14.2502 68.1517 14.3173C68.1325 14.3844 68.0876 14.441 68.027 14.4747C67.9664 14.5084 67.895 14.5164 67.8286 14.497Z" fill="#673AB7"/>
<path d="M140 100.504H25.5487V101H140V100.504Z" fill="#E6E6E6"/>
<path d="M92.0013 99.7284H73.3898L74.0207 91.4417H91.3704L92.0013 99.7284Z" fill="#E6E6E6"/>
<path d="M93.2629 98.7722H72.4434V100.685H93.2629V98.7722Z" fill="#E6E6E6"/>
<path d="M118.341 38.0548H47.2075C46.7055 38.0548 46.2241 38.2563 45.8692 38.6149C45.5142 38.9736 45.3148 39.46 45.3148 39.9672V83.7921H120.234V39.9672C120.234 39.716 120.185 39.4674 120.09 39.2353C119.995 39.0033 119.855 38.7925 119.679 38.6149C119.504 38.4374 119.295 38.2965 119.065 38.2004C118.836 38.1043 118.59 38.0548 118.341 38.0548H118.341Z" fill="#3F3D56"/>
<path d="M45.3148 83.7921V90.9635C45.3148 91.2146 45.3638 91.4633 45.4589 91.6953C45.554 91.9273 45.6934 92.1381 45.8692 92.3157C46.0449 92.4933 46.2536 92.6342 46.4832 92.7303C46.7128 92.8264 46.959 92.8758 47.2075 92.8758H118.341C118.843 92.8758 119.324 92.6744 119.679 92.3157C120.034 91.9571 120.234 91.4707 120.234 90.9635V83.7921H45.3148Z" fill="#E6E6E6"/>
<path d="M116.606 42.0388H49.1002V80.286H116.606V42.0388Z" fill="#E6E6E6"/>
<path d="M82.8531 90.1666C83.8984 90.1666 84.7458 89.3104 84.7458 88.2543C84.7458 87.1981 83.8984 86.3419 82.8531 86.3419C81.8078 86.3419 80.9604 87.1981 80.9604 88.2543C80.9604 89.3104 81.8078 90.1666 82.8531 90.1666Z" fill="#3F3D56"/>
<path d="M51.2051 43.6543C51.4035 43.6543 51.5643 43.4918 51.5643 43.2914C51.5643 43.091 51.4035 42.9285 51.2051 42.9285C51.0068 42.9285 50.8459 43.091 50.8459 43.2914C50.8459 43.4918 51.0068 43.6543 51.2051 43.6543Z" fill="white"/>
<path d="M52.5684 43.6543C52.7668 43.6543 52.9276 43.4918 52.9276 43.2914C52.9276 43.091 52.7668 42.9285 52.5684 42.9285C52.37 42.9285 52.2092 43.091 52.2092 43.2914C52.2092 43.4918 52.37 43.6543 52.5684 43.6543Z" fill="white"/>
<path d="M53.9318 43.6543C54.1302 43.6543 54.291 43.4918 54.291 43.2914C54.291 43.091 54.1302 42.9285 53.9318 42.9285C53.7334 42.9285 53.5726 43.091 53.5726 43.2914C53.5726 43.4918 53.7334 43.6543 53.9318 43.6543Z" fill="white"/>
<path d="M114.661 44.5247H50.8459V76.646H114.661V44.5247Z" fill="white"/>
<path d="M55.0879 49.4104C55.0281 49.4105 54.9707 49.4345 54.9284 49.4772C54.8861 49.52 54.8624 49.5779 54.8623 49.6383V61.1602C54.8624 61.2206 54.8861 61.2786 54.9284 61.3213C54.9707 61.364 55.0281 61.3881 55.0879 61.3881H68.2569C68.3167 61.3881 68.3741 61.364 68.4164 61.3213C68.4586 61.2786 68.4824 61.2206 68.4825 61.1602V49.6383C68.4824 49.5779 68.4586 49.52 68.4164 49.4772C68.3741 49.4345 68.3167 49.4105 68.2569 49.4104H55.0879Z" fill="#E6E6E6"/>
<path d="M76.2324 49.4475C76.1726 49.4476 76.1152 49.4716 76.0729 49.5143C76.0306 49.5571 76.0068 49.615 76.0067 49.6754V61.1602C76.0068 61.2207 76.0306 61.2786 76.0729 61.3214C76.1152 61.3641 76.1726 61.3881 76.2324 61.3882H89.3594C89.4192 61.3881 89.4766 61.364 89.5188 61.3213C89.5611 61.2786 89.5849 61.2207 89.585 61.1602V49.6754C89.5849 49.615 89.5611 49.5571 89.5188 49.5144C89.4766 49.4716 89.4192 49.4476 89.3594 49.4475H76.2324Z" fill="#E6E6E6"/>
<path d="M97.1552 49.3271C97.0954 49.3272 97.0381 49.3513 96.9958 49.394C96.9535 49.4367 96.9297 49.4947 96.9297 49.5551V61.1603C96.9297 61.2207 96.9535 61.2786 96.9958 61.3213C97.0381 61.3641 97.0954 61.3881 97.1552 61.3882H110.419C110.479 61.3881 110.536 61.3641 110.578 61.3213C110.62 61.2786 110.644 61.2207 110.644 61.1603V49.5551C110.644 49.4947 110.62 49.4367 110.578 49.394C110.536 49.3513 110.479 49.3272 110.419 49.3271H97.1552Z" fill="#E6E6E6"/>
<path d="M55.3287 67.0914C55.2052 67.0917 55.0867 67.1414 54.9995 67.2298C54.9122 67.3181 54.8632 67.4379 54.8632 67.5627C54.8632 67.6875 54.9122 67.8073 54.9995 67.8956C55.0867 67.984 55.2052 68.0337 55.3287 68.034H67.7102C67.8337 68.0337 67.9521 67.984 68.0394 67.8956C68.1267 67.8073 68.1757 67.6875 68.1757 67.5627C68.1757 67.4379 68.1267 67.3181 68.0394 67.2298C67.9521 67.1414 67.8337 67.0917 67.7102 67.0914H55.3287Z" fill="#E6E6E6"/>
<path d="M55.3286 69.333C55.2051 69.3332 55.0866 69.383 54.9993 69.4714C54.9121 69.5597 54.863 69.6795 54.863 69.8043C54.863 69.9292 54.9121 70.0489 54.9993 70.1373C55.0866 70.2256 55.2051 70.2754 55.3286 70.2756H60.9033C61.0269 70.2754 61.1453 70.2256 61.2326 70.1373C61.3198 70.0489 61.3689 69.9292 61.3689 69.8043C61.3689 69.6795 61.3198 69.5597 61.2326 69.4714C61.1453 69.383 61.0269 69.3332 60.9033 69.333H55.3286Z" fill="#673AB7"/>
<path d="M76.7004 67.0914C76.5769 67.0917 76.4584 67.1414 76.3712 67.2298C76.2839 67.3181 76.2349 67.4379 76.2349 67.5627C76.2349 67.6875 76.2839 67.8073 76.3712 67.8956C76.4584 67.984 76.5769 68.0337 76.7004 68.034H89.0819C89.2054 68.0337 89.3238 67.984 89.4111 67.8956C89.4984 67.8073 89.5474 67.6875 89.5474 67.5627C89.5474 67.4379 89.4984 67.3181 89.4111 67.2298C89.3238 67.1414 89.2054 67.0917 89.0819 67.0914H76.7004Z" fill="#E6E6E6"/>
<path d="M76.7003 69.333C76.5768 69.3332 76.4583 69.383 76.3711 69.4714C76.2838 69.5597 76.2347 69.6795 76.2347 69.8043C76.2347 69.9292 76.2838 70.0489 76.3711 70.1373C76.4583 70.2256 76.5768 70.2754 76.7003 70.2756H82.2751C82.3986 70.2754 82.5171 70.2256 82.6043 70.1373C82.6916 70.0489 82.7407 69.9292 82.7407 69.8043C82.7407 69.6795 82.6916 69.5597 82.6043 69.4714C82.5171 69.383 82.3986 69.3332 82.2751 69.333H76.7003Z" fill="#673AB7"/>
<path d="M97.5379 67.0914C97.4144 67.0917 97.296 67.1414 97.2087 67.2298C97.1214 67.3181 97.0724 67.4379 97.0724 67.5627C97.0724 67.6875 97.1214 67.8073 97.2087 67.8956C97.296 67.984 97.4144 68.0337 97.5379 68.034H109.919C110.043 68.0337 110.161 67.984 110.249 67.8956C110.336 67.8073 110.385 67.6875 110.385 67.5627C110.385 67.4379 110.336 67.3181 110.249 67.2298C110.161 67.1414 110.043 67.0917 109.919 67.0914H97.5379Z" fill="#E6E6E6"/>
<path d="M55.3287 64.7764C55.2052 64.7766 55.0867 64.8264 54.9995 64.9147C54.9122 65.0031 54.8632 65.1228 54.8632 65.2476C54.8632 65.3725 54.9122 65.4922 54.9995 65.5805C55.0867 65.6689 55.2052 65.7187 55.3287 65.7189H67.7102C67.8337 65.7187 67.9521 65.6689 68.0394 65.5805C68.1267 65.4922 68.1757 65.3725 68.1757 65.2476C68.1757 65.1228 68.1267 65.0031 68.0394 64.9147C67.9521 64.8264 67.8337 64.7766 67.7102 64.7764H55.3287Z" fill="#E6E6E6"/>
<path d="M76.7004 64.7764C76.5769 64.7766 76.4584 64.8264 76.3712 64.9147C76.2839 65.0031 76.2349 65.1228 76.2349 65.2476C76.2349 65.3725 76.2839 65.4922 76.3712 65.5805C76.4584 65.6689 76.5769 65.7187 76.7004 65.7189H89.0819C89.2054 65.7187 89.3238 65.6689 89.4111 65.5805C89.4984 65.4922 89.5474 65.3725 89.5474 65.2476C89.5474 65.1228 89.4984 65.0031 89.4111 64.9147C89.3238 64.8264 89.2054 64.7766 89.0819 64.7764H76.7004Z" fill="#E6E6E6"/>
<path d="M97.5379 64.7764C97.4144 64.7766 97.296 64.8264 97.2087 64.9147C97.1214 65.0031 97.0724 65.1228 97.0724 65.2476C97.0724 65.3725 97.1214 65.4922 97.2087 65.5805C97.296 65.6689 97.4144 65.7187 97.5379 65.7189H109.919C110.043 65.7187 110.161 65.6689 110.249 65.5805C110.336 65.4922 110.385 65.3725 110.385 65.2476C110.385 65.1228 110.336 65.0031 110.249 64.9147C110.161 64.8264 110.043 64.7766 109.919 64.7764H97.5379Z" fill="#E6E6E6"/>
<path d="M97.538 69.333C97.4144 69.3332 97.296 69.383 97.2087 69.4714C97.1214 69.5597 97.0724 69.6795 97.0724 69.8043C97.0724 69.9292 97.1214 70.0489 97.2087 70.1373C97.296 70.2256 97.4144 70.2754 97.538 70.2756H103.113C103.236 70.2754 103.355 70.2256 103.442 70.1373C103.529 70.0489 103.578 69.9292 103.578 69.8043C103.578 69.6795 103.529 69.5597 103.442 69.4714C103.355 69.383 103.236 69.3332 103.113 69.333H97.538Z" fill="#673AB7"/>
</g>
<defs>
<clipPath id="clip0_15_1663">
<rect width="140" height="101" fill="white"/>
</clipPath>
</defs>
</svg>
