<svg width="181" height="127" viewBox="0 0 181 127" fill="none" xmlns="http://www.w3.org/2000/svg">
<g clip-path="url(#clip0_15_1452)">
<path d="M147.836 79.6475H31.2612C30.4654 79.6466 29.7025 79.3299 29.1398 78.7668C28.5771 78.2038 28.2605 77.4403 28.2596 76.644V4.71353C28.2603 4.13014 28.4922 3.57084 28.9044 3.15831C29.3166 2.74579 29.8756 2.51373 30.4586 2.51306H148.6C149.193 2.51374 149.762 2.7498 150.181 3.16945C150.601 3.58911 150.837 4.15809 150.837 4.75157V76.644C150.836 77.4403 150.52 78.2038 149.957 78.7668C149.395 79.3299 148.632 79.6466 147.836 79.6475Z" fill="#F2F2F2"/>
<path d="M143.583 75.3941H34.9387C33.3461 75.3941 32.0504 74.1799 32.0504 72.6876V10.0496C32.0504 8.94283 33.0105 8.04236 34.1907 8.04236H144.296C145.495 8.04236 146.472 8.95767 146.472 10.0827V72.6876C146.472 74.1799 145.176 75.3941 143.583 75.3941Z" fill="white"/>
<path d="M150.796 4.54172H28.2175V3.01259C28.2187 2.21363 28.5365 1.44776 29.1012 0.882982C29.666 0.318209 30.4315 0.000660072 31.23 0H147.783C148.582 0.000656225 149.347 0.318204 149.912 0.882978C150.477 1.44775 150.794 2.21363 150.796 3.01259V4.54172Z" fill="#CCCCCC"/>
<path d="M33.6922 3.0551C34.1225 3.0551 34.4714 2.70601 34.4714 2.27538C34.4714 1.84476 34.1225 1.49567 33.6922 1.49567C33.2618 1.49567 32.913 1.84476 32.913 2.27538C32.913 2.70601 33.2618 3.0551 33.6922 3.0551Z" fill="white"/>
<path d="M36.6498 3.0551C37.0801 3.0551 37.429 2.70601 37.429 2.27538C37.429 1.84476 37.0801 1.49567 36.6498 1.49567C36.2195 1.49567 35.8706 1.84476 35.8706 2.27538C35.8706 2.70601 36.2195 3.0551 36.6498 3.0551Z" fill="white"/>
<path d="M39.6074 3.0551C40.0378 3.0551 40.3866 2.70601 40.3866 2.27538C40.3866 1.84476 40.0378 1.49567 39.6074 1.49567C39.1771 1.49567 38.8282 1.84476 38.8282 2.27538C38.8282 2.70601 39.1771 3.0551 39.6074 3.0551Z" fill="white"/>
<path d="M131.625 64.8886H47.43C46.586 64.8877 45.7768 64.5517 45.18 63.9545C44.5832 63.3573 44.2475 62.5476 44.2466 61.7031V21.082C44.2473 20.4504 44.4983 19.8448 44.9447 19.3982C45.391 18.9515 45.9962 18.7003 46.6274 18.6995H132.389C133.031 18.7003 133.645 18.9555 134.099 19.4093C134.552 19.8631 134.807 20.4783 134.808 21.1201V61.7031C134.807 62.5476 134.472 63.3573 133.875 63.9545C133.278 64.5517 132.469 64.8877 131.625 64.8886ZM46.6274 19.0636C46.0926 19.0642 45.5799 19.2771 45.2018 19.6555C44.8237 20.0339 44.611 20.5469 44.6104 21.082V61.7031C44.6112 62.4511 44.9086 63.1683 45.4372 63.6972C45.9658 64.2262 46.6825 64.5237 47.43 64.5246H131.625C132.372 64.5237 133.089 64.2262 133.618 63.6972C134.146 63.1683 134.444 62.4511 134.444 61.7031V21.1201C134.444 20.5748 134.227 20.0521 133.842 19.6666C133.457 19.2811 132.934 19.0642 132.389 19.0636H46.6274Z" fill="#CCCCCC"/>
<path d="M50.3406 61.7031H128.714C129.486 61.7031 130.226 61.3962 130.772 60.85C131.318 60.3038 131.625 59.563 131.625 58.7906V24.833C131.625 24.0605 131.318 23.3197 130.772 22.7735C130.226 22.2273 129.486 21.9205 128.714 21.9205H50.3406C49.5687 21.9205 48.8284 22.2273 48.2825 22.7735C47.7367 23.3197 47.4301 24.0605 47.4301 24.833V58.7906C47.4301 59.563 47.7367 60.3038 48.2825 60.85C48.8284 61.3962 49.5687 61.7031 50.3406 61.7031Z" fill="#F2F2F2"/>
<path d="M59.2395 31.8001C60.1437 31.8001 60.8767 31.0666 60.8767 30.1618C60.8767 29.257 60.1437 28.5235 59.2395 28.5235C58.3353 28.5235 57.6023 29.257 57.6023 30.1618C57.6023 31.0666 58.3353 31.8001 59.2395 31.8001Z" fill="#CCCCCC"/>
<path d="M59.2395 37.9891C60.1437 37.9891 60.8767 37.2556 60.8767 36.3508C60.8767 35.446 60.1437 34.7125 59.2395 34.7125C58.3353 34.7125 57.6023 35.446 57.6023 36.3508C57.6023 37.2556 58.3353 37.9891 59.2395 37.9891Z" fill="#CCCCCC"/>
<path d="M59.2395 44.1782C60.1437 44.1782 60.8767 43.4447 60.8767 42.5399C60.8767 41.6351 60.1437 40.9016 59.2395 40.9016C58.3353 40.9016 57.6023 41.6351 57.6023 42.5399C57.6023 43.4447 58.3353 44.1782 59.2395 44.1782Z" fill="#CCCCCC"/>
<path d="M59.2395 50.3673C60.1437 50.3673 60.8767 49.6338 60.8767 48.729C60.8767 47.8242 60.1437 47.0907 59.2395 47.0907C58.3353 47.0907 57.6023 47.8242 57.6023 48.729C57.6023 49.6338 58.3353 50.3673 59.2395 50.3673Z" fill="#CCCCCC"/>
<path d="M121.271 30.3438H67.4254C67.3772 30.3438 67.3309 30.3246 67.2968 30.2905C67.2627 30.2563 67.2435 30.21 67.2435 30.1618C67.2435 30.1135 67.2627 30.0672 67.2968 30.0331C67.3309 29.9989 67.3772 29.9797 67.4254 29.9797H121.271C121.319 29.9797 121.365 29.9989 121.399 30.0331C121.433 30.0672 121.453 30.1135 121.453 30.1618C121.453 30.21 121.433 30.2563 121.399 30.2905C121.365 30.3246 121.319 30.3438 121.271 30.3438Z" fill="#CCCCCC"/>
<path d="M121.271 36.5329H67.4254C67.3772 36.5329 67.3309 36.5137 67.2968 36.4796C67.2627 36.4454 67.2435 36.3991 67.2435 36.3509C67.2435 36.3026 67.2627 36.2563 67.2968 36.2221C67.3309 36.188 67.3772 36.1688 67.4254 36.1688H121.271C121.319 36.1688 121.365 36.188 121.399 36.2221C121.433 36.2563 121.453 36.3026 121.453 36.3509C121.453 36.3991 121.433 36.4454 121.399 36.4796C121.365 36.5137 121.319 36.5329 121.271 36.5329Z" fill="#CCCCCC"/>
<path d="M121.271 42.722H67.4254C67.3772 42.722 67.3309 42.7028 67.2968 42.6687C67.2627 42.6345 67.2435 42.5882 67.2435 42.5399C67.2435 42.4917 67.2627 42.4454 67.2968 42.4112C67.3309 42.3771 67.3772 42.3579 67.4254 42.3579H121.271C121.319 42.3579 121.365 42.3771 121.399 42.4112C121.433 42.4454 121.453 42.4917 121.453 42.5399C121.453 42.5882 121.433 42.6345 121.399 42.6687C121.365 42.7028 121.319 42.722 121.271 42.722Z" fill="#CCCCCC"/>
<path d="M121.271 48.911H67.4254C67.3772 48.911 67.3309 48.8918 67.2968 48.8577C67.2627 48.8235 67.2435 48.7772 67.2435 48.729C67.2435 48.6807 67.2627 48.6344 67.2968 48.6003C67.3309 48.5661 67.3772 48.5469 67.4254 48.5469H121.271C121.319 48.5469 121.365 48.5661 121.399 48.6003C121.433 48.6344 121.453 48.6807 121.453 48.729C121.453 48.7772 121.433 48.8235 121.399 48.8577C121.365 48.8918 121.319 48.911 121.271 48.911Z" fill="#CCCCCC"/>
<path d="M77.6124 55.1001H72.337C72.0959 55.0998 71.8647 55.0038 71.6942 54.8332C71.5237 54.6626 71.4278 54.4312 71.4275 54.1899V49.2751C71.4278 49.0338 71.5237 48.8024 71.6942 48.6318C71.8647 48.4612 72.0959 48.3652 72.337 48.3649H77.6124C77.8536 48.3652 78.0847 48.4612 78.2553 48.6318C78.4258 48.8024 78.5217 49.0338 78.522 49.2751V54.1899C78.5217 54.4312 78.4258 54.6626 78.2553 54.8332C78.0847 55.0038 77.8536 55.0998 77.6124 55.1001Z" fill="#673AB7"/>
<path d="M89.4365 55.1001H84.1611C83.92 55.0998 83.6888 55.0038 83.5183 54.8332C83.3478 54.6626 83.2519 54.4312 83.2516 54.1899V43.086C83.2519 42.8447 83.3478 42.6134 83.5183 42.4427C83.6888 42.2721 83.92 42.1761 84.1611 42.1758H89.4365C89.6777 42.1761 89.9088 42.2721 90.0793 42.4427C90.2499 42.6134 90.3458 42.8447 90.3461 43.086V54.1899C90.3458 54.4312 90.2499 54.6626 90.0793 54.8332C89.9088 55.0038 89.6777 55.0998 89.4365 55.1001Z" fill="#673AB7"/>
<path d="M101.442 55.1001H96.1671C95.926 55.0998 95.6948 55.0038 95.5243 54.8332C95.3538 54.6626 95.2578 54.4312 95.2576 54.1899V36.8969C95.2578 36.6556 95.3538 36.4243 95.5243 36.2536C95.6948 36.083 95.926 35.987 96.1671 35.9868H101.442C101.684 35.987 101.915 36.083 102.085 36.2536C102.256 36.4243 102.352 36.6556 102.352 36.8969V54.1899C102.352 54.4312 102.256 54.6626 102.085 54.8332C101.915 55.0038 101.684 55.0998 101.442 55.1001Z" fill="#673AB7"/>
<path d="M113.812 55.1001H108.537C108.296 55.0998 108.065 55.0038 107.894 54.8332C107.724 54.6626 107.628 54.4312 107.627 54.1899V30.8899C107.628 30.6486 107.724 30.4173 107.894 30.2466C108.065 30.076 108.296 29.98 108.537 29.9797H113.812C114.054 29.98 114.285 30.076 114.455 30.2466C114.626 30.4173 114.722 30.6486 114.722 30.8899V54.1899C114.722 54.4312 114.626 54.6626 114.455 54.8332C114.285 55.0038 114.054 55.0998 113.812 55.1001Z" fill="#673AB7"/>
<path d="M121.271 55.1001H67.4254C67.3772 55.1001 67.3309 55.0809 67.2968 55.0468C67.2627 55.0126 67.2435 54.9663 67.2435 54.9181C67.2435 54.8698 67.2627 54.8235 67.2968 54.7893C67.3309 54.7552 67.3772 54.736 67.4254 54.736H121.271C121.319 54.736 121.365 54.7552 121.399 54.7893C121.433 54.8235 121.453 54.8698 121.453 54.9181C121.453 54.9663 121.433 55.0126 121.399 55.0468C121.365 55.0809 121.319 55.1001 121.271 55.1001Z" fill="#3F3D56"/>
<path d="M144.928 89.0577C145.075 88.8344 145.27 88.6462 145.497 88.5063C145.725 88.3664 145.981 88.2782 146.247 88.2479C146.513 88.2177 146.782 88.2461 147.035 88.3312C147.289 88.4162 147.521 88.5559 147.715 88.7403L153.491 85.7571L153.132 89.1182L147.701 91.4358C147.37 91.741 146.939 91.9141 146.488 91.9221C146.038 91.9302 145.601 91.7728 145.259 91.4796C144.917 91.1865 144.694 90.778 144.633 90.3316C144.572 89.8853 144.677 89.432 144.928 89.0577Z" fill="#FFB8B8"/>
<path d="M149.898 90.3111C149.767 90.2083 149.67 90.0679 149.621 89.9086L149.161 88.4233C149.112 88.2624 149.113 88.0902 149.165 87.93C149.216 87.7697 149.316 87.6293 149.45 87.5275L154.132 83.9887L159.203 74.5755C159.415 74.3017 159.679 74.0725 159.98 73.901C160.281 73.7294 160.613 73.6189 160.956 73.5756C161.3 73.5323 161.649 73.5572 161.983 73.6488C162.317 73.7404 162.629 73.897 162.903 74.1095C163.176 74.322 163.405 74.5864 163.577 74.8875C163.748 75.1886 163.859 75.5206 163.902 75.8644C163.945 76.2083 163.92 76.5573 163.829 76.8915C163.737 77.2257 163.581 77.5386 163.368 77.8123L160.484 83.905C159.608 85.7543 158.091 87.2225 156.215 88.0364L150.728 90.4179C150.623 90.4636 150.509 90.4866 150.394 90.4854C150.279 90.4842 150.166 90.4587 150.061 90.4108C150.003 90.3841 149.948 90.3507 149.898 90.3111Z" fill="#3F3D56"/>
<path d="M163.496 70.6468C165.963 70.6468 167.964 68.6452 167.964 66.176C167.964 63.7068 165.963 61.7051 163.496 61.7051C161.028 61.7051 159.028 63.7068 159.028 66.176C159.028 68.6452 161.028 70.6468 163.496 70.6468Z" fill="#FFB8B8"/>
<path d="M161.683 124.826L159.453 124.826L158.393 116.218L161.684 116.218L161.683 124.826Z" fill="#FFB8B8"/>
<path d="M157.86 124.188H162.161V126.898H155.152C155.152 126.542 155.222 126.19 155.358 125.861C155.494 125.532 155.694 125.233 155.945 124.982C156.197 124.73 156.495 124.53 156.824 124.394C157.153 124.258 157.505 124.188 157.86 124.188Z" fill="#2F2E41"/>
<path d="M168.96 124.826L166.73 124.826L165.669 116.218L168.961 116.218L168.96 124.826Z" fill="#FFB8B8"/>
<path d="M165.137 124.188H169.438V126.898H162.429C162.429 126.542 162.499 126.19 162.635 125.861C162.771 125.532 162.97 125.234 163.222 124.982C163.473 124.73 163.772 124.531 164.1 124.395C164.429 124.258 164.781 124.188 165.137 124.188Z" fill="#2F2E41"/>
<path d="M169.123 122.642L166.509 122.642C166.329 122.642 166.155 122.582 166.012 122.473C165.869 122.363 165.766 122.21 165.719 122.036L161.957 108.074C161.951 108.052 161.938 108.033 161.919 108.021C161.9 108.009 161.877 108.004 161.855 108.008C161.833 108.011 161.812 108.023 161.798 108.041C161.784 108.058 161.777 108.08 161.779 108.103L162.538 121.344C162.545 121.461 162.527 121.578 162.484 121.688C162.442 121.797 162.376 121.896 162.293 121.978C162.209 122.06 162.108 122.123 161.998 122.162C161.887 122.202 161.77 122.217 161.653 122.207L158.716 121.962C158.528 121.946 158.351 121.866 158.215 121.734C158.079 121.603 157.993 121.428 157.971 121.241L155.295 93.4364L156.33 94.0581L166.031 92.4099L169.934 121.715C169.95 121.83 169.94 121.948 169.906 122.06C169.873 122.171 169.816 122.275 169.739 122.362C169.662 122.45 169.567 122.52 169.461 122.569C169.355 122.617 169.239 122.642 169.123 122.642H169.123Z" fill="#2F2E41"/>
<path d="M158.539 96.3711C157.469 96.3625 156.42 96.0672 155.503 95.5159C155.361 95.4321 155.249 95.3075 155.179 95.1584C155.11 95.0093 155.087 94.8428 155.114 94.6805C155.455 92.5897 157.239 81.8641 158.863 76.017C159.524 73.6355 160.986 72.3528 163.208 72.2046C166.458 71.9913 169.348 74.536 169.648 77.884C170.179 83.7906 168.023 92.1826 167.072 95.5166C167.035 95.6453 166.967 95.7631 166.874 95.8595C166.781 95.9558 166.666 96.0279 166.539 96.0694C166.411 96.1108 166.276 96.1204 166.144 96.0972C166.012 96.074 165.888 96.0188 165.783 95.9364L163.843 94.4267C163.724 94.3355 163.576 94.2889 163.426 94.2952C163.276 94.3015 163.133 94.3601 163.022 94.461C161.387 95.92 159.834 96.3711 158.539 96.3711Z" fill="#3F3D56"/>
<path opacity="0.2" d="M164.953 80.7744L166.59 87.6917L164.225 93.5166L165.863 87.8738L164.953 80.7744Z" fill="black"/>
<path d="M166.045 69.8526C166.443 69.86 166.838 69.7885 167.207 69.6422C167.37 69.5795 167.539 69.528 167.701 69.4652C169.135 68.911 170.079 67.3831 170.113 65.8454C170.147 64.3077 169.352 62.8151 168.17 61.8315C166.988 60.8479 165.458 60.3428 163.925 60.226C162.274 60.1001 160.415 60.519 159.493 61.8947C159.247 62.2609 159.075 62.7052 159.221 63.1474C159.264 63.2808 159.342 63.4004 159.447 63.4943C159.859 63.8611 160.269 63.5853 160.689 63.561C161.267 63.5275 161.785 63.9951 161.971 64.5428C162.158 65.0906 162.076 65.6936 161.925 66.2522C161.81 66.5884 161.738 66.9376 161.71 67.2916C161.698 67.4692 161.731 67.6469 161.807 67.8079C161.883 67.969 161.998 68.108 162.143 68.2118C162.503 68.43 162.977 68.3037 163.338 68.0859C163.699 67.8681 164.011 67.5653 164.401 67.405C164.79 67.2447 165.314 67.2803 165.541 67.6357C165.613 67.765 165.662 67.9061 165.685 68.0523C165.889 68.9798 165.842 68.9251 166.045 69.8526Z" fill="#2F2E41"/>
<path d="M159.12 118.581L131.143 108.831C130.663 108.663 130.269 108.312 130.048 107.854C129.827 107.396 129.796 106.868 129.963 106.387L137.233 85.4978C137.356 85.1459 137.613 84.8571 137.949 84.6948C138.284 84.5326 138.67 84.5101 139.022 84.6323L167.945 94.7116C168.303 94.8368 168.596 95.0988 168.761 95.4403C168.926 95.7818 168.949 96.1747 168.825 96.533L161.562 117.4C161.395 117.88 161.043 118.274 160.585 118.496C160.128 118.717 159.601 118.748 159.12 118.581Z" fill="#E6E6E6"/>
<path d="M133.531 107.631L157.995 116.156C158.46 116.319 158.972 116.289 159.416 116.074C159.86 115.86 160.201 115.477 160.363 115.011L166.233 98.1425C166.396 97.6764 166.366 97.1648 166.151 96.7204C165.937 96.2759 165.554 95.9351 165.089 95.7727L140.625 87.2472C140.159 87.0849 139.648 87.1144 139.203 87.3292C138.759 87.544 138.419 87.9266 138.256 88.3928L132.386 105.261C132.305 105.492 132.271 105.736 132.285 105.98C132.299 106.224 132.361 106.463 132.468 106.683C132.574 106.903 132.723 107.1 132.905 107.263C133.087 107.425 133.3 107.551 133.531 107.631Z" fill="white"/>
<path d="M139.674 95.7794L138.462 95.3572C138.396 95.3343 138.343 95.2861 138.312 95.2235C138.282 95.1608 138.278 95.0887 138.301 95.0229L138.723 93.8105C138.746 93.7448 138.794 93.6908 138.856 93.6605C138.919 93.6302 138.991 93.626 139.057 93.6489L140.268 94.0711C140.334 94.0941 140.388 94.1422 140.418 94.2048C140.448 94.2675 140.453 94.3397 140.43 94.4054L140.008 95.6178C139.985 95.6836 139.937 95.7375 139.874 95.7678C139.812 95.7981 139.739 95.8023 139.674 95.7794Z" fill="#673AB7"/>
<path d="M138.581 98.9206L137.369 98.4984C137.303 98.4754 137.249 98.4273 137.219 98.3646C137.189 98.302 137.185 98.2298 137.208 98.164L137.629 96.9517C137.652 96.8859 137.7 96.832 137.763 96.8017C137.826 96.7714 137.898 96.7672 137.964 96.79L139.175 97.2123C139.241 97.2352 139.295 97.2833 139.325 97.346C139.355 97.4087 139.359 97.4808 139.337 97.5466L138.915 98.759C138.892 98.8247 138.844 98.8786 138.781 98.9089C138.718 98.9392 138.646 98.9434 138.581 98.9206Z" fill="#3F3D56"/>
<path d="M137.487 102.062L136.276 101.64C136.21 101.617 136.156 101.568 136.126 101.506C136.096 101.443 136.091 101.371 136.114 101.305L136.536 100.093C136.559 100.027 136.607 99.9732 136.67 99.9429C136.732 99.9126 136.805 99.9084 136.87 99.9312L138.082 100.353C138.148 100.376 138.201 100.425 138.232 100.487C138.262 100.55 138.266 100.622 138.243 100.688L137.821 101.9C137.799 101.966 137.75 102.02 137.688 102.05C137.625 102.08 137.553 102.085 137.487 102.062Z" fill="#CCCCCC"/>
<path d="M147.815 97.9369L141.977 95.9025C141.945 95.8913 141.915 95.8737 141.889 95.8507C141.863 95.8278 141.842 95.8 141.827 95.7689C141.812 95.7378 141.803 95.7041 141.801 95.6696C141.799 95.6351 141.804 95.6006 141.815 95.568C141.827 95.5353 141.844 95.5053 141.867 95.4795C141.89 95.4537 141.918 95.4327 141.949 95.4177C141.98 95.4028 142.014 95.394 142.048 95.3921C142.083 95.3902 142.117 95.3951 142.15 95.4066L147.988 97.4409C148.02 97.4522 148.05 97.4698 148.076 97.4927C148.102 97.5156 148.123 97.5434 148.138 97.5745C148.153 97.6056 148.162 97.6394 148.164 97.6738C148.166 97.7083 148.161 97.7429 148.15 97.7755C148.138 97.8081 148.121 97.8382 148.098 97.8639C148.075 97.8897 148.047 97.9107 148.016 97.9257C147.985 97.9407 147.951 97.9494 147.917 97.9513C147.882 97.9532 147.848 97.9483 147.815 97.9369Z" fill="#CCCCCC"/>
<path d="M146.722 101.078L140.884 99.0437C140.819 99.0208 140.765 98.9727 140.734 98.91C140.704 98.8473 140.7 98.7751 140.723 98.7094C140.746 98.6436 140.794 98.5896 140.856 98.5593C140.919 98.529 140.991 98.5248 141.057 98.5478L146.894 100.582C146.927 100.593 146.957 100.611 146.983 100.634C147.009 100.657 147.03 100.685 147.045 100.716C147.06 100.747 147.069 100.781 147.071 100.815C147.073 100.849 147.068 100.884 147.056 100.917C147.045 100.949 147.027 100.979 147.004 101.005C146.981 101.031 146.954 101.052 146.923 101.067C146.892 101.082 146.858 101.091 146.823 101.092C146.789 101.094 146.754 101.089 146.722 101.078Z" fill="#CCCCCC"/>
<path d="M145.629 104.219L139.791 102.185C139.725 102.162 139.671 102.114 139.641 102.051C139.611 101.988 139.607 101.916 139.63 101.851C139.652 101.785 139.701 101.731 139.763 101.7C139.826 101.67 139.898 101.666 139.964 101.689L145.801 103.723C145.867 103.746 145.921 103.794 145.951 103.857C145.982 103.92 145.986 103.992 145.963 104.058C145.94 104.123 145.892 104.177 145.829 104.208C145.767 104.238 145.694 104.242 145.629 104.219Z" fill="#CCCCCC"/>
<path d="M161.163 105.921C161.206 105.819 161.246 105.715 161.283 105.609C161.763 104.231 161.675 102.718 161.041 101.404C160.406 100.089 159.275 99.0811 157.897 98.601L155.979 104.114L161.163 105.921Z" fill="#673AB7"/>
<path d="M155.421 104.45L157.339 98.9364C156.325 98.583 155.23 98.5343 154.189 98.7963C153.147 99.0582 152.205 99.6195 151.479 100.411C150.753 101.202 150.274 102.189 150.101 103.249C149.928 104.31 150.069 105.398 150.507 106.379C150.945 107.36 151.66 108.191 152.564 108.77C153.469 109.35 154.523 109.651 155.596 109.638C156.67 109.625 157.717 109.298 158.607 108.697C159.497 108.096 160.192 107.248 160.605 106.257L155.421 104.45Z" fill="#3F3D56"/>
<path d="M162.29 96.541C162.268 96.2743 162.305 96.006 162.398 95.7552C162.491 95.5043 162.638 95.2769 162.829 95.089C163.019 94.9011 163.248 94.7573 163.5 94.6677C163.752 94.578 164.021 94.5448 164.287 94.5702L166.993 88.6556L168.783 91.5222L165.939 96.6994C165.867 97.144 165.634 97.5467 165.284 97.831C164.935 98.1154 164.494 98.2617 164.044 98.2421C163.594 98.2226 163.167 98.0387 162.844 97.7251C162.521 97.4116 162.323 96.9903 162.29 96.541Z" fill="#FFB8B8"/>
<path d="M166.974 94.458C166.807 94.458 166.644 94.4072 166.507 94.3124L165.23 93.4274C165.092 93.3313 164.987 93.195 164.928 93.037C164.87 92.8791 164.862 92.7071 164.905 92.5442L166.406 86.8684L164.591 76.3301C164.589 75.9833 164.655 75.6395 164.786 75.3183C164.917 74.9972 165.109 74.705 165.353 74.4584C165.597 74.2119 165.887 74.0158 166.206 73.8814C166.526 73.7471 166.869 73.6771 167.215 73.6754C167.562 73.6737 167.905 73.7404 168.226 73.8717C168.547 74.0029 168.839 74.1962 169.085 74.4404C169.331 74.6845 169.526 74.9749 169.66 75.2947C169.794 75.6146 169.864 75.9578 169.865 76.3046L171.352 82.8802C171.804 84.8758 171.516 86.9678 170.542 88.7668L167.693 94.0291C167.638 94.1302 167.563 94.2187 167.472 94.2887C167.38 94.3588 167.275 94.4088 167.164 94.4356C167.101 94.4505 167.038 94.458 166.974 94.458Z" fill="#3F3D56"/>
<path d="M180.818 127H146.255C146.207 127 146.161 126.981 146.127 126.947C146.093 126.913 146.073 126.866 146.073 126.818C146.073 126.77 146.093 126.723 146.127 126.689C146.161 126.655 146.207 126.636 146.255 126.636H180.818C180.866 126.636 180.913 126.655 180.947 126.689C180.981 126.723 181 126.77 181 126.818C181 126.866 180.981 126.913 180.947 126.947C180.913 126.981 180.866 127 180.818 127Z" fill="#CCCCCC"/>
<path d="M89.2341 124.735L91.4643 124.735L92.5252 116.127H89.2338L89.2341 124.735Z" fill="#A0616A"/>
<path d="M88.6653 124.007L93.0573 124.006H93.0574C93.425 124.006 93.789 124.079 94.1286 124.22C94.4682 124.36 94.7767 124.567 95.0366 124.827C95.2965 125.087 95.5027 125.396 95.6434 125.735C95.784 126.075 95.8564 126.439 95.8564 126.807V126.898L88.6654 126.898L88.6653 124.007Z" fill="#2F2E41"/>
<path d="M80.3206 124.735L82.5508 124.735L83.6117 116.127H80.3202L80.3206 124.735Z" fill="#A0616A"/>
<path d="M79.7517 124.007L84.1437 124.006H84.1439C84.5114 124.006 84.8754 124.079 85.215 124.22C85.5546 124.36 85.8631 124.567 86.123 124.827C86.3829 125.087 86.5891 125.396 86.7298 125.735C86.8704 126.075 86.9428 126.439 86.9428 126.807V126.898L79.7518 126.898L79.7517 124.007Z" fill="#2F2E41"/>
<path d="M89.6793 65.1415C92.1469 65.1415 94.1472 63.1398 94.1472 60.6706C94.1472 58.2014 92.1469 56.1997 89.6793 56.1997C87.2118 56.1997 85.2114 58.2014 85.2114 60.6706C85.2114 63.1398 87.2118 65.1415 89.6793 65.1415Z" fill="#A0616A"/>
<path d="M92.6838 122.877H88.5452C88.4369 122.877 88.3296 122.856 88.2297 122.814C88.1297 122.772 88.039 122.711 87.9629 122.634C87.8868 122.557 87.8267 122.465 87.7861 122.365C87.7456 122.264 87.7254 122.157 87.7267 122.048L87.9672 102.383C87.9681 102.313 87.9421 102.246 87.8948 102.194C87.8474 102.143 87.7822 102.112 87.7126 102.107C87.6429 102.103 87.5741 102.125 87.5203 102.169C87.4666 102.214 87.4319 102.277 87.4234 102.347L85.0148 122.157C84.9905 122.356 84.8945 122.539 84.7448 122.671C84.5951 122.804 84.4022 122.877 84.2022 122.877H80.0239C79.911 122.877 79.7994 122.854 79.696 122.809C79.5925 122.764 79.4996 122.697 79.4229 122.614C79.3463 122.532 79.2876 122.434 79.2506 122.327C79.2136 122.22 79.199 122.107 79.2078 121.994L81.9669 86.6666L82.0419 86.6584L95.2538 85.2306L93.5015 122.097C93.4917 122.308 93.4013 122.506 93.249 122.651C93.0967 122.797 92.8942 122.878 92.6838 122.877Z" fill="#2F2E41"/>
<path d="M82.1277 88.8353C81.9154 88.8348 81.7117 88.7518 81.5595 88.6037C81.4073 88.4557 81.3185 88.2542 81.312 88.0419C81.2399 85.8081 81.1163 78.0789 82.553 72.4045C82.9451 70.8543 83.8252 69.4716 85.0633 68.4607C86.3013 67.4497 87.8316 66.8643 89.4279 66.7908C90.999 66.705 92.5573 67.1164 93.8816 67.9667C95.2059 68.8169 96.2291 70.063 96.8059 71.5279C99.2208 77.6629 101.502 85.2251 98.6579 86.4111C94.9296 87.9655 85.1013 88.6584 82.1779 88.8337C82.1611 88.8348 82.1443 88.8353 82.1277 88.8353Z" fill="#3F3D56"/>
<path d="M99.2038 56.1518C99.274 56.224 99.3498 56.2906 99.4305 56.3508L98.9615 65.3662L97.0106 66.3656L98.1331 69.5089L101.759 68.0754C102.051 67.9596 102.299 67.7519 102.464 67.4833C102.629 67.2148 102.702 66.9001 102.673 66.5863L101.723 56.3598C102.034 56.1278 102.267 55.8066 102.391 55.4389C102.514 55.0712 102.524 54.6745 102.417 54.3015C102.31 53.9285 102.092 53.5969 101.792 53.3509C101.492 53.1048 101.125 52.9559 100.738 52.924C100.352 52.8921 99.9647 52.9787 99.6286 53.1722C99.2925 53.3658 99.0233 53.6572 98.8567 54.0076C98.6902 54.358 98.6342 54.7508 98.6962 55.1339C98.7582 55.5169 98.9352 55.872 99.2038 56.1518Z" fill="#A0616A"/>
<path d="M98.9985 65.7017L100.371 69.6043C100.41 69.7153 100.425 69.8335 100.414 69.9507C100.403 70.0679 100.367 70.1814 100.309 70.2836C100.25 70.3857 100.171 70.474 100.075 70.5425C99.9792 70.6109 99.8698 70.658 99.7544 70.6804L95.7077 71.4645C95.1388 71.6613 94.5152 71.6243 93.9736 71.3616C93.4319 71.0989 93.0165 70.632 92.8183 70.0632C92.6202 69.4945 92.6556 68.8704 92.9166 68.3277C93.1777 67.785 93.6432 67.368 94.211 67.1683L97.8444 65.2491C97.9485 65.1942 98.0631 65.1623 98.1806 65.1558C98.298 65.1492 98.4155 65.168 98.525 65.211C98.6346 65.2539 98.7335 65.32 98.8152 65.4047C98.8969 65.4894 98.9595 65.5907 98.9985 65.7017V65.7017Z" fill="#3F3D56"/>
<path d="M79.8511 56.1518C79.7809 56.224 79.7051 56.2906 79.6244 56.3508L80.0934 65.3662L82.0443 66.3656L80.9217 69.5089L77.2963 68.0754C77.0034 67.9596 76.756 67.7519 76.5912 67.4833C76.4263 67.2148 76.353 66.9001 76.3821 66.5863L77.3319 56.3598C77.0211 56.1278 76.7882 55.8066 76.6643 55.4389C76.5404 55.0712 76.5314 54.6745 76.6383 54.3015C76.7452 53.9285 76.963 53.5969 77.2629 53.3509C77.5627 53.1048 77.9303 52.9559 78.3167 52.924C78.7032 52.8921 79.0902 52.9787 79.4263 53.1722C79.7624 53.3658 80.0316 53.6572 80.1981 54.0076C80.3647 54.358 80.4207 54.7508 80.3587 55.1339C80.2967 55.5169 80.1197 55.872 79.8511 56.1518H79.8511Z" fill="#A0616A"/>
<path d="M80.5299 65.211C80.6394 65.168 80.7569 65.1491 80.8743 65.1557C80.9918 65.1623 81.1064 65.1941 81.2104 65.2491L84.8438 67.1683C85.4117 67.368 85.8771 67.785 86.1382 68.3277C86.3993 68.8704 86.4346 69.4945 86.2365 70.0633C86.0384 70.632 85.6229 71.0989 85.0813 71.3616C84.5397 71.6243 83.916 71.6613 83.3471 71.4645L79.3005 70.6804C79.185 70.658 79.0757 70.611 78.98 70.5425C78.8843 70.474 78.8045 70.3857 78.746 70.2836C78.6875 70.1815 78.6517 70.0679 78.641 69.9507C78.6303 69.8335 78.6449 69.7153 78.684 69.6043L80.0564 65.7017C80.0953 65.5907 80.1578 65.4893 80.2396 65.4046C80.3213 65.3199 80.4203 65.2539 80.5299 65.211Z" fill="#3F3D56"/>
<path d="M91.4145 61.4327C91.391 60.8623 91.5341 60.2975 91.8261 59.8072C92.1182 59.3169 92.5466 58.9223 93.0591 58.6717C94.4172 57.9701 95.2704 56.4736 94.8965 55.1071C94.418 53.358 92.039 52.2236 90.1114 52.8254C89.5897 53.0107 89.0866 53.2447 88.6086 53.5242L87.3493 54.1998C86.8113 54.4693 86.2926 54.7757 85.7968 55.1168C85.0543 55.6644 84.4723 56.4014 84.1117 57.2509C83.7511 58.1004 83.625 59.0312 83.7467 59.9461C83.9947 61.7243 85.1584 63.3551 86.7514 64.4716C87.3606 64.9272 88.0642 65.2402 88.8104 65.3874C89.574 65.5134 90.424 65.3702 90.9823 64.8951C91.8548 64.1525 91.7646 62.909 91.4824 61.8704C91.4451 61.7271 91.4224 61.5805 91.4145 61.4327Z" fill="#2F2E41"/>
<path d="M106.599 127H72.0362C71.9879 127 71.9416 126.981 71.9075 126.947C71.8734 126.913 71.8542 126.866 71.8542 126.818C71.8542 126.77 71.8734 126.723 71.9075 126.689C71.9416 126.655 71.9879 126.636 72.0362 126.636H106.599C106.647 126.636 106.693 126.655 106.728 126.689C106.762 126.723 106.781 126.77 106.781 126.818C106.781 126.866 106.762 126.913 106.728 126.947C106.693 126.981 106.647 127 106.599 127Z" fill="#CCCCCC"/>
<path d="M50.1906 93.7924L21.6713 105.5C21.1815 105.701 20.6323 105.698 20.1441 105.494C19.6559 105.29 19.2686 104.9 19.0673 104.41L10.3371 83.1159C10.1903 82.7568 10.1919 82.3542 10.3415 81.9963C10.491 81.6384 10.7764 81.3545 11.1348 81.2068L40.6182 69.1032C40.9833 68.9539 41.3926 68.9555 41.7564 69.1078C42.1203 69.26 42.4089 69.5505 42.559 69.9154L51.2796 91.1866C51.4799 91.6767 51.4777 92.2263 51.2735 92.7149C51.0694 93.2034 50.6799 93.5909 50.1906 93.7924Z" fill="#E6E6E6"/>
<path d="M22.7044 102.917L47.6425 92.6797C48.1174 92.4847 48.4954 92.109 48.6935 91.6351C48.8915 91.1612 48.8933 90.6281 48.6985 90.1529L41.6489 72.9576C41.5525 72.7223 41.4106 72.5083 41.2315 72.3279C41.0524 72.1474 40.8396 72.0041 40.6051 71.9059C40.3706 71.8078 40.1191 71.7569 39.8649 71.756C39.6108 71.7551 39.3589 71.8044 39.1238 71.9009L14.1857 82.1385C13.9505 82.2351 13.7367 82.377 13.5564 82.5562C13.376 82.7355 13.2328 82.9485 13.1347 83.1831C13.0366 83.4177 12.9857 83.6694 12.9849 83.9238C12.984 84.1781 13.0332 84.4301 13.1297 84.6654L20.1793 101.861C20.2757 102.096 20.4176 102.31 20.5967 102.49C20.7758 102.671 20.9886 102.814 21.2231 102.912C21.4576 103.01 21.7091 103.061 21.9633 103.062C22.2174 103.063 22.4693 103.014 22.7044 102.917Z" fill="white"/>
<path d="M41.5112 77.647L41.1445 77.7975L41.1696 77.8587L41.5362 77.7082L41.5112 77.647Z" fill="#E6E6E6"/>
<path d="M40.4289 78.1628L39.6882 78.4668L39.6631 78.4057L40.4038 78.1016L40.4289 78.1628ZM38.9475 78.7709L38.2068 79.075L38.1818 79.0138L38.9224 78.7098L38.9475 78.7709ZM37.4661 79.3791L36.7254 79.6831L36.7004 79.622L37.4411 79.3179L37.4661 79.3791ZM35.9847 79.9872L35.2441 80.2913L35.219 80.2301L35.9597 79.9261L35.9847 79.9872ZM34.5034 80.5953L33.7627 80.8994L33.7376 80.8383L34.4783 80.5342L34.5034 80.5953ZM33.022 81.2035L32.2813 81.5076L32.2562 81.4464L32.9969 81.1423L33.022 81.2035ZM31.5406 81.8116L30.7999 82.1157L30.7748 82.0545L31.5155 81.7505L31.5406 81.8116ZM30.0592 82.4198L29.3185 82.7238L29.2935 82.6627L30.0341 82.3586L30.0592 82.4198ZM28.5778 83.0279L27.8371 83.332L27.8121 83.2708L28.5528 82.9668L28.5778 83.0279ZM27.0964 83.636L26.3558 83.9401L26.3307 83.879L27.0714 83.5749L27.0964 83.636ZM25.6151 84.2442L24.8744 84.5483L24.8493 84.4871L25.59 84.183L25.6151 84.2442ZM24.1337 84.8523L23.393 85.1564L23.3679 85.0952L24.1086 84.7912L24.1337 84.8523ZM22.6523 85.4605L21.9116 85.7645L21.8865 85.7034L22.6272 85.3993L22.6523 85.4605ZM21.1709 86.0686L20.4302 86.3727L20.4051 86.3115L21.1458 86.0075L21.1709 86.0686ZM19.6895 86.6768L18.9488 86.9808L18.9238 86.9197L19.6645 86.6156L19.6895 86.6768ZM18.2082 87.2849L17.4675 87.589L17.4424 87.5278L18.1831 87.2237L18.2082 87.2849Z" fill="#E6E6E6"/>
<path d="M16.7017 87.8318L16.3351 87.9824L16.3602 88.0435L16.7268 87.893L16.7017 87.8318Z" fill="#E6E6E6"/>
<path d="M31.8045 88.2757L31.4379 88.4262L31.4629 88.4874L31.8296 88.3368L31.8045 88.2757Z" fill="#E6E6E6"/>
<path d="M30.7332 88.7869L30.0035 89.0865L29.9785 89.0253L30.7082 88.7258L30.7332 88.7869ZM29.2739 89.386L28.5442 89.6856L28.5191 89.6244L29.2488 89.3249L29.2739 89.386ZM27.8145 89.9851L27.0848 90.2847L27.0597 90.2235L27.7894 89.924L27.8145 89.9851ZM26.3551 90.5842L25.6254 90.8838L25.6003 90.8226L26.33 90.5231L26.3551 90.5842ZM24.8957 91.1834L24.166 91.4829L24.1409 91.4218L24.8707 91.1222L24.8957 91.1834ZM23.4363 91.7825L22.7066 92.082L22.6816 92.0209L23.4113 91.7213L23.4363 91.7825ZM21.977 92.3816L21.2473 92.6811L21.2222 92.62L21.9519 92.3204L21.977 92.3816ZM20.5176 92.9807L19.7879 93.2802L19.7628 93.2191L20.4925 92.9195L20.5176 92.9807Z" fill="#E6E6E6"/>
<path d="M19.0331 93.5187L18.6665 93.6692L18.6916 93.7303L19.0582 93.5798L19.0331 93.5187Z" fill="#E6E6E6"/>
<path d="M25.758 93.9012L25.3914 94.0518L25.4164 94.1129L25.7831 93.9624L25.758 93.9012Z" fill="#E6E6E6"/>
<path d="M24.6656 94.4211L23.9149 94.7293L23.8898 94.6682L24.6406 94.36L24.6656 94.4211ZM23.1641 95.0375L22.4134 95.3457L22.3883 95.2846L23.1391 94.9764L23.1641 95.0375ZM21.6627 95.6539L20.9119 95.9621L20.8868 95.901L21.6376 95.5928L21.6627 95.6539Z" fill="#E6E6E6"/>
<path d="M20.1362 96.2092L19.7695 96.3597L19.7946 96.4208L20.1612 96.2703L20.1362 96.2092Z" fill="#E6E6E6"/>
<path d="M27.6403 98.4927L27.2737 98.6432L27.2988 98.7043L27.6654 98.5538L27.6403 98.4927Z" fill="#E6E6E6"/>
<path d="M26.5481 99.0126L25.7973 99.3208L25.7723 99.2596L26.523 98.9514L26.5481 99.0126ZM25.0466 99.629L24.2958 99.9372L24.2708 99.876L25.0215 99.5678L25.0466 99.629ZM23.5451 100.245L22.7944 100.554L22.7693 100.492L23.52 100.184L23.5451 100.245Z" fill="#E6E6E6"/>
<path d="M22.0185 100.801L21.6519 100.951L21.6769 101.012L22.0436 100.862L22.0185 100.801Z" fill="#E6E6E6"/>
<path d="M23.7633 100.211L44.8967 91.5349C45.4081 91.3242 45.8152 90.9192 46.0286 90.4085C46.242 89.8979 46.2442 89.3235 46.0349 88.8112L41.765 78.3961L41.7237 78.4145L36.5376 90.823L32.6912 89.2139C32.6202 89.184 32.5433 89.1709 32.4664 89.1757C32.3896 89.1805 32.3148 89.203 32.2481 89.2415C32.148 89.3019 32.0705 89.3935 32.0277 89.5024L29.3097 96.0048L26.4974 94.8285C26.4367 94.8031 26.3716 94.7899 26.3059 94.7896C26.2401 94.7894 26.1749 94.8021 26.114 94.8271C26.0532 94.8521 25.9978 94.8888 25.9512 94.9352C25.9045 94.9816 25.8674 95.0368 25.8421 95.0975C25.8241 95.1417 24.09 99.399 23.7633 100.211Z" fill="#673AB7"/>
<path d="M23.6983 100.309L23.6373 100.283L25.812 95.0795C25.8696 94.9422 25.9792 94.8333 26.1169 94.7768C26.2546 94.7202 26.4091 94.7207 26.5465 94.778L29.3033 95.9316L32.0057 89.465C32.0633 89.3276 32.173 89.2187 32.3107 89.1622C32.4484 89.1057 32.6029 89.1061 32.7403 89.1634L36.5311 90.7498L41.7439 78.2764L41.8048 78.3019L36.5666 90.8363L32.7148 89.2244C32.6548 89.1993 32.5904 89.1862 32.5254 89.186C32.4603 89.1858 32.3959 89.1984 32.3357 89.2231C32.2755 89.2478 32.2208 89.2841 32.1746 89.33C32.1284 89.3759 32.0918 89.4304 32.0667 89.4905L29.3387 96.0181L26.521 94.839C26.3998 94.7884 26.2635 94.788 26.142 94.8379C26.0205 94.8878 25.9237 94.9839 25.8729 95.105L23.6983 100.309Z" fill="#3F3D56"/>
<path d="M25.7706 94.3945C26.0259 94.3945 26.2329 94.1874 26.2329 93.9318C26.2329 93.6763 26.0259 93.4692 25.7706 93.4692C25.5152 93.4692 25.3082 93.6763 25.3082 93.9318C25.3082 94.1874 25.5152 94.3945 25.7706 94.3945Z" fill="#3F3D56"/>
<path d="M31.817 88.7689C32.0723 88.7689 32.2793 88.5618 32.2793 88.3063C32.2793 88.0508 32.0723 87.8436 31.817 87.8436C31.5616 87.8436 31.3546 88.0508 31.3546 88.3063C31.3546 88.5618 31.5616 88.7689 31.817 88.7689Z" fill="#3F3D56"/>
<path d="M41.232 78.1239C41.4873 78.1239 41.6943 77.9168 41.6943 77.6613C41.6943 77.4057 41.4873 77.1986 41.232 77.1986C40.9767 77.1986 40.7697 77.4057 40.7697 77.6613C40.7697 77.9168 40.9767 78.1239 41.232 78.1239Z" fill="#3F3D56"/>
<path d="M15.3534 93.4069C15.5937 93.2872 15.8049 93.1162 15.9721 92.906C16.1393 92.6958 16.2584 92.4515 16.321 92.1903C16.3836 91.929 16.3882 91.6572 16.3345 91.394C16.2808 91.1308 16.17 90.8826 16.0101 90.6668L17.3832 77.2321H14.4157L13.3244 90.3504C12.98 90.6433 12.755 91.0525 12.6919 91.5004C12.6288 91.9482 12.7321 92.4037 12.9822 92.7805C13.2323 93.1572 13.6118 93.4291 14.0489 93.5445C14.4859 93.66 14.95 93.611 15.3534 93.4069Z" fill="#FFB8B8"/>
<path d="M18.0781 69.8178C20.3969 69.8178 22.2766 67.9368 22.2766 65.6165C22.2766 63.2962 20.3969 61.4152 18.0781 61.4152C15.7594 61.4152 13.8796 63.2962 13.8796 65.6165C13.8796 67.9368 15.7594 69.8178 18.0781 69.8178Z" fill="#FFB8B8"/>
<path d="M18.8686 85.056C18.7005 85.056 18.5371 85.0008 18.4034 84.8988C18.2697 84.7969 18.1732 84.6539 18.1285 84.4918C17.7922 83.2688 16.917 81.2011 15.5275 78.3458C15.2139 77.7003 15.0403 76.9959 15.018 76.2785C14.9956 75.5612 15.1251 74.8473 15.398 74.1836C15.6708 73.5199 16.0807 72.9214 16.6009 72.4274C17.1212 71.9333 17.7399 71.555 18.4165 71.3171C19.0577 71.0905 19.7378 70.9949 20.4166 71.036C21.0954 71.0771 21.759 71.254 22.3683 71.5562C22.9775 71.8585 23.52 72.2799 23.9636 72.7956C24.4072 73.3113 24.743 73.9108 24.951 74.5587C26.0281 77.9377 25.9761 81.5572 25.9037 82.9564C25.8947 83.125 25.8308 83.2859 25.7217 83.4146C25.6126 83.5432 25.4643 83.6326 25.2996 83.6689L19.0335 85.0382C18.9794 85.0501 18.924 85.0561 18.8686 85.056Z" fill="#FF6584"/>
<path d="M24.9365 124.951H27.0321L28.0292 116.862L24.9362 116.862L24.9365 124.951Z" fill="#FFB8B8"/>
<path d="M31.074 126.898L24.4875 126.898L24.4874 124.352L28.5291 124.352C28.8633 124.352 29.1942 124.418 29.5029 124.546C29.8117 124.674 30.0922 124.861 30.3285 125.098C30.5649 125.334 30.7523 125.615 30.8802 125.924C31.0081 126.233 31.074 126.564 31.074 126.898Z" fill="#2F2E41"/>
<path d="M3.98059 122.233L5.81715 123.244L10.5854 116.636L7.87509 115.145L3.98059 122.233Z" fill="#FFB8B8"/>
<path d="M8.42126 126.898L2.64955 123.723L3.87553 121.492L7.41727 123.44C8.0087 123.766 8.44674 124.313 8.63502 124.961C8.82331 125.61 8.74642 126.307 8.42126 126.898Z" fill="#2F2E41"/>
<path d="M24.8386 120.461C24.6518 120.461 24.4715 120.393 24.3313 120.27C24.191 120.146 24.1005 119.976 24.0765 119.791L21.4555 99.5807C21.444 99.4913 21.4044 99.4079 21.3426 99.3423C21.2808 99.2767 21.1999 99.2324 21.1114 99.2156C21.0229 99.1988 20.9313 99.2104 20.8498 99.2488C20.7683 99.2871 20.701 99.3503 20.6575 99.4292L9.73461 119.26C9.64448 119.422 9.49928 119.546 9.32541 119.61C9.15154 119.674 8.96054 119.673 8.78714 119.608L6.40627 118.7C6.31051 118.664 6.223 118.608 6.14888 118.537C6.07477 118.467 6.01554 118.382 5.97468 118.288C5.93382 118.194 5.91215 118.092 5.91094 117.99C5.90973 117.887 5.92902 117.786 5.96765 117.691L13.5342 99.0905C13.5534 99.0432 13.5664 98.9937 13.5729 98.9431C14.5977 91.0056 17.2053 86.9691 17.98 85.921C18.0366 85.844 18.0738 85.7545 18.0886 85.66C18.1033 85.5655 18.0952 85.4689 18.0648 85.3783L17.9583 85.0586C17.9157 84.9317 17.907 84.7959 17.933 84.6645C17.9589 84.5332 18.0187 84.411 18.1063 84.3099C20.898 81.128 25.7638 82.8642 25.8126 82.8821L25.837 82.8911L25.8523 82.912C31.3083 90.3995 29.291 114.719 28.8312 119.518C28.8141 119.698 28.7337 119.867 28.6044 119.993C28.4751 120.12 28.3051 120.197 28.1246 120.211L24.8983 120.459C24.8782 120.461 24.8583 120.461 24.8386 120.461Z" fill="#2F2E41"/>
<path d="M34.4002 70.4968C34.3792 70.5891 34.3656 70.6829 34.3593 70.7773L27.0161 75.0164L25.2313 73.9882L23.3285 76.4809L26.3115 78.6084C26.5525 78.7803 26.8427 78.8693 27.1385 78.8621C27.4343 78.8549 27.7199 78.7518 27.9522 78.5684L35.5243 72.5907C35.866 72.7173 36.2381 72.7368 36.5912 72.6465C36.9443 72.5563 37.2615 72.3607 37.5007 72.0856C37.7399 71.8106 37.8898 71.4692 37.9304 71.1068C37.971 70.7444 37.9004 70.3783 37.7279 70.0571C37.5555 69.7359 37.2894 69.4748 36.9651 69.3086C36.6408 69.1424 36.2736 69.0789 35.9123 69.1267C35.5511 69.1744 35.2129 69.331 34.9428 69.5758C34.6727 69.8205 34.4834 70.1418 34.4002 70.4968Z" fill="#FFB8B8"/>
<path d="M26.7706 75.2172L24.3973 78.2952C24.3298 78.3828 24.2442 78.4547 24.1464 78.5062C24.0485 78.5577 23.9408 78.5875 23.8304 78.5935C23.72 78.5996 23.6096 78.5818 23.5068 78.5413C23.4039 78.5008 23.311 78.4386 23.2343 78.3589L20.5475 75.5671C20.1017 75.2188 19.8121 74.7079 19.7422 74.1463C19.6723 73.5847 19.8278 73.0182 20.1746 72.5712C20.5214 72.1241 21.0312 71.8329 21.5923 71.7614C22.1533 71.6899 22.7198 71.8439 23.1675 72.1897L26.5372 74.0753C26.6337 74.1293 26.7174 74.2035 26.7826 74.2928C26.8479 74.3821 26.8931 74.4844 26.9152 74.5928C26.9374 74.7011 26.9359 74.813 26.911 74.9208C26.886 75.0285 26.8382 75.1296 26.7706 75.2172Z" fill="#FF6584"/>
<path d="M17.5721 80.5648L13.7489 79.8739C13.6401 79.8543 13.5368 79.8114 13.4461 79.7482C13.3554 79.685 13.2793 79.603 13.2231 79.5077C13.1669 79.4125 13.1319 79.3062 13.1205 79.1962C13.109 79.0862 13.1214 78.975 13.1568 78.8702L14.3962 75.1981C14.4998 74.6417 14.8197 74.1491 15.2857 73.8284C15.7517 73.5076 16.3258 73.3849 16.8821 73.4871C17.4384 73.5893 17.9315 73.9081 18.2533 74.3736C18.575 74.839 18.6992 75.4132 18.5986 75.9701L18.4776 79.8316C18.4741 79.9422 18.4469 80.0507 18.3977 80.1497C18.3485 80.2488 18.2786 80.3361 18.1926 80.4057C18.1067 80.4752 18.0068 80.5255 17.8997 80.5529C17.7926 80.5804 17.6809 80.5844 17.5721 80.5648H17.5721Z" fill="#FF6584"/>
<path d="M18.7426 64.6501C19.8217 65.3892 21.2386 66.1489 22.3407 65.3618C22.6855 65.0991 22.9359 64.7317 23.0546 64.3147C23.1733 63.8976 23.1537 63.4534 22.999 63.0483C22.4712 61.5382 21.0213 60.8733 19.6348 60.3637C17.8323 59.7012 15.8697 59.1741 14.0089 59.6486C12.1482 60.123 10.5037 61.9258 10.8396 63.8177C11.1097 65.3391 12.5438 66.605 12.3403 68.1368C12.1354 69.6784 10.4028 70.4898 8.87332 70.7653C7.34379 71.0408 5.63221 71.1294 4.533 72.2287C3.13076 73.6312 3.48092 76.1379 4.80038 77.6186C6.11983 79.0993 8.11096 79.7705 10.0404 80.2268C12.5967 80.8314 15.3616 81.1491 17.7895 80.1458C20.2174 79.1424 22.1067 76.4417 21.4034 73.9091C21.1063 72.8394 20.4065 71.9353 19.7301 71.0551C19.0538 70.175 18.3689 69.2546 18.1109 68.1747C17.8959 67.2749 18.055 66.2301 18.6514 65.5551C18.7598 65.4369 18.8281 65.2874 18.8464 65.128C18.8646 64.9686 18.8319 64.8075 18.753 64.6679L18.7426 64.6501Z" fill="#2F2E41"/>
<path d="M34.7447 127H0.18191C0.133664 127 0.0873946 126.981 0.0532799 126.947C0.0191653 126.913 0 126.866 0 126.818C0 126.77 0.0191653 126.723 0.0532799 126.689C0.0873946 126.655 0.133664 126.636 0.18191 126.636H34.7447C34.793 126.636 34.8392 126.655 34.8734 126.689C34.9075 126.723 34.9266 126.77 34.9266 126.818C34.9266 126.866 34.9075 126.913 34.8734 126.947C34.8392 126.981 34.793 127 34.7447 127Z" fill="#CCCCCC"/>
</g>
<defs>
<clipPath id="clip0_15_1452">
<rect width="181" height="127" fill="white"/>
</clipPath>
</defs>
</svg>
