<svg width="517" height="380" viewBox="0 0 517 380" fill="none" xmlns="http://www.w3.org/2000/svg">
<g clip-path="url(#clip0_21_301)">
<path opacity="0.1" d="M201.27 379.812C224.267 379.812 242.91 376.815 242.91 373.118C242.91 369.421 224.267 366.424 201.27 366.424C178.272 366.424 159.629 369.421 159.629 373.118C159.629 376.815 178.272 379.812 201.27 379.812Z" fill="#A19BFD"/>
<path opacity="0.1" d="M427.621 380C456.319 380 479.582 377.003 479.582 373.306C479.582 369.609 456.319 366.612 427.621 366.612C398.924 366.612 375.661 369.609 375.661 373.306C375.661 377.003 398.924 380 427.621 380Z" fill="#A19BFD"/>
<path opacity="0.1" d="M50.1862 189.854H93.5575V249.023H53.3614C53.2546 249.63 53.152 250.242 53.0409 250.854H93.5575V298.572C93.4848 298.551 93.4207 298.525 93.3523 298.499C92.207 298.046 91.0703 297.567 89.9336 297.054L89.2071 296.724C88.0675 296.185 86.9279 295.615 85.7883 295.013C85.3909 294.804 84.9935 294.585 84.6003 294.363C78.2738 290.816 72.5265 286.321 67.5578 281.035C67.4125 280.894 67.2758 280.744 67.1305 280.607C66.4382 279.854 65.7587 279.093 65.1006 278.314L64.3741 277.459C63.5963 276.505 62.8442 275.526 62.1134 274.533C62.0066 274.388 61.904 274.242 61.7929 274.105C58.8209 269.981 56.3533 265.515 54.4426 260.803C54.3828 260.662 54.3315 260.508 54.2759 260.375C53.689 258.864 53.1691 257.338 52.7161 255.798C52.5195 255.153 52.3315 254.515 52.1691 253.844C52.1093 253.647 52.058 253.454 52.011 253.262C49.5837 243.779 49.2974 233.928 49.2974 224.146C49.2974 223.004 49.2974 221.858 49.2974 220.724C49.2974 216.768 49.3444 212.785 49.4127 208.807C49.4127 207.777 49.4555 206.75 49.4768 205.715C49.5367 203.089 49.6221 200.462 49.7333 197.836C49.7589 197.105 49.7931 196.377 49.8315 195.65C49.8315 195.231 49.8529 194.812 49.8956 194.393C49.9982 192.87 50.0837 191.36 50.1862 189.854Z" fill="#A19BFD"/>
<path opacity="0.1" d="M93.5575 123.975H69.7672C73.6344 117.916 77.8599 112.094 82.4209 106.54C85.955 102.194 89.6857 97.9597 93.5575 93.8791V123.975Z" fill="#A19BFD"/>
<path opacity="0.1" d="M93.5575 125.805V188.024H50.323C50.323 187.844 50.3529 187.66 50.3657 187.48C50.4042 186.989 50.4427 186.497 50.4854 186.009C50.5324 185.436 50.5837 184.858 50.6392 184.298C50.6948 183.738 50.7546 183.053 50.8187 182.433C50.8828 181.813 50.9426 181.184 51.0153 180.564C51.0879 179.944 51.152 179.324 51.229 178.708C51.3059 178.092 51.3743 177.467 51.4555 176.851C51.5196 176.338 51.5879 175.829 51.6563 175.316C51.7546 174.593 51.8572 173.866 51.9683 173.147C51.9683 173.04 51.9982 172.929 52.0153 172.826C52.7953 167.566 53.858 162.351 55.199 157.205C56.6027 151.807 58.3951 146.518 60.5622 141.379C62.8654 136.003 65.5622 130.805 68.6304 125.827L93.5575 125.805Z" fill="#A19BFD"/>
<path opacity="0.1" d="M103.912 189.85V249.023H196.548V189.85H103.912ZM103.912 250.849V301.664C104.442 301.776 104.968 301.883 105.489 301.972C106.198 302.109 106.904 302.233 107.626 302.34C107.762 302.362 107.904 302.383 108.053 302.396C108.335 302.443 108.626 302.481 108.908 302.52C109.621 302.618 110.331 302.7 111.044 302.764C111.382 302.798 111.724 302.828 112.066 302.854L112.891 302.918C113.339 302.952 113.784 302.978 114.224 302.99C114.497 302.99 114.771 303.016 115.053 303.025C115.267 303.025 115.48 303.025 115.703 303.025C115.925 303.025 116.241 303.025 116.51 303.025C116.878 303.025 117.245 303.025 117.609 303.025H118.1C118.467 303.025 118.835 303.025 119.198 302.99H119.224C119.476 302.99 119.732 302.99 119.989 302.956C120.06 302.961 120.131 302.961 120.202 302.956C120.416 302.956 120.63 302.956 120.835 302.926H120.985L122.416 302.815C122.886 302.772 123.361 302.717 123.839 302.665L124.814 302.55C128.777 301.994 132.697 301.159 136.544 300.052C145.185 297.64 153.638 294.265 162.275 291.792C173.441 288.606 185.779 287.04 196.569 290.937V250.849H103.912ZM196.548 123.975V45.1985C186.406 45.0885 176.291 46.2758 166.45 48.7316C142.993 54.63 121.946 67.4236 103.912 83.7631V123.97H108.562V125.797H103.912V188.024H196.548V125.801H127.651V123.975H196.548ZM315.533 97.3651C309.73 97.1598 303.961 95.3205 298.743 92.4804C288.764 87.0481 280.794 78.6602 271.888 71.5812C253.384 56.8371 230.436 47.9402 206.894 45.7331V123.975H339.135L339.465 123.628L315.533 97.3651ZM327.58 95.2264L340.353 109.256V91.5479C336.076 92.0783 332.328 93.3401 327.597 95.2093L327.58 95.2264ZM340.353 314.283V250.849H313.136C313.063 250.58 312.991 250.306 312.905 250.033C312.986 250.306 313.055 250.58 313.132 250.849H206.911V296.724C207.919 297.473 208.915 298.26 209.902 299.06C210.966 299.915 212.017 300.818 213.073 301.703L214.137 302.584C214.646 303.012 215.158 303.44 215.676 303.842C216.701 304.674 217.737 305.496 218.782 306.305C219.299 306.733 219.829 307.118 220.355 307.52C228.7 313.906 237.503 319.669 246.692 324.762C248.752 325.903 250.83 327.016 252.927 328.103C254.325 328.817 255.731 329.527 257.141 330.216C259.26 331.251 261.397 332.249 263.551 333.21C283.408 342.132 304.406 348.254 325.943 351.402C330.727 352.109 335.529 352.665 340.349 353.07V314.278H340.776L340.353 314.283ZM206.911 125.801V188.024H340.37V125.801H206.911ZM206.911 189.85V249.023H340.37V189.85H206.911ZM350.729 91.4709V111.224L367.033 93.3187C361.631 92.4461 356.196 91.8231 350.729 91.4495V91.4709ZM350.729 189.871V249.023H480.535V189.85L350.729 189.871ZM480.061 318.979L480.518 250.849H350.729V353.75C359.09 354.101 367.464 354.001 375.814 353.45V353.45H375.96C379.948 353.2 383.918 352.835 387.87 352.355H387.96C409.041 349.9 429.654 344.394 449.155 336.012M505.565 199.594C505.078 198.443 504.569 197.301 504.052 196.172C503.086 194.033 502.065 191.955 501.014 189.876H490.886V249.023H516.492C516.479 232.273 512.244 215.164 505.578 199.573L505.565 199.594ZM490.886 250.871V309.471C498.099 302.55 504.193 294.633 508.582 285.582C513.86 274.683 516.274 262.882 516.471 250.862L490.886 250.871ZM490.886 172.629V188.028H500.065C497.288 182.727 494.228 177.58 490.898 172.608L490.886 172.629ZM402.853 103.08C402.177 102.823 401.502 102.562 400.823 102.31C393.656 99.6609 386.333 97.4581 378.896 95.7141L353.947 123.119L353.469 123.628L353.789 123.979H442.583C430.216 115.459 416.884 108.436 402.865 103.058L402.853 103.08ZM445.185 125.822H352.55L350.729 127.491V188.024H366.686H366.712H480.552V158.702C470.254 146.236 458.368 135.175 445.198 125.801L445.185 125.822Z" fill="#A19BFD"/>
<path opacity="0.1" d="M93.5575 157.188V188.024H50.323C50.323 187.844 50.3529 187.66 50.3657 187.48C50.4042 186.989 50.4427 186.497 50.4854 186.009C50.5324 185.436 50.5837 184.858 50.6392 184.298C50.6948 183.738 50.7546 183.053 50.8187 182.433C50.8828 181.813 50.9426 181.184 51.0153 180.564C51.0879 179.944 51.152 179.324 51.229 178.708C51.3059 178.092 51.3743 177.467 51.4555 176.851C51.5196 176.338 51.5879 175.829 51.6563 175.316C51.7546 174.593 51.8572 173.866 51.9683 173.147C51.9683 173.04 51.9982 172.929 52.0153 172.826C52.7953 167.566 53.858 162.351 55.199 157.205L93.5575 157.188Z" fill="#A19BFD"/>
<path opacity="0.1" d="M50.1862 189.854H93.5575V249.023H53.3614C53.2546 249.63 53.152 250.242 53.0409 250.854H93.5575V298.572C93.4848 298.551 93.4207 298.525 93.3523 298.499C92.207 298.046 91.0703 297.567 89.9336 297.054L89.2071 296.724C88.0675 296.185 86.9279 295.615 85.7883 295.013C85.3909 294.804 84.9935 294.585 84.6003 294.363C78.2738 290.816 72.5265 286.321 67.5578 281.035C67.4125 280.894 67.2758 280.744 67.1305 280.607C66.4382 279.854 65.7587 279.093 65.1006 278.314L64.3741 277.459C63.5963 276.505 62.8442 275.526 62.1134 274.533C62.0066 274.388 61.904 274.242 61.7929 274.105C58.8209 269.981 56.3533 265.515 54.4426 260.803C54.3828 260.662 54.3315 260.508 54.2759 260.375C53.689 258.864 53.1691 257.338 52.7161 255.798C52.5195 255.153 52.3315 254.515 52.1691 253.844C52.1093 253.647 52.058 253.454 52.011 253.262C49.5837 243.779 49.2974 233.928 49.2974 224.146C49.2974 223.004 49.2974 221.858 49.2974 220.724C49.2974 216.768 49.3444 212.785 49.4127 208.807C49.4127 207.777 49.4555 206.75 49.4768 205.715C49.5367 203.089 49.6221 200.462 49.7333 197.836C49.7589 197.105 49.7931 196.377 49.8315 195.65C49.8315 195.231 49.8529 194.812 49.8956 194.393C49.9982 192.87 50.0837 191.36 50.1862 189.854Z" fill="#A19BFD"/>
<path opacity="0.1" d="M136.523 134.711V188.024H103.912V134.711H108.562V116.66H127.647V134.711H136.523Z" fill="#A19BFD"/>
<path opacity="0.1" d="M136.523 189.85H103.916V249.019H136.523V189.85Z" fill="#A19BFD"/>
<path opacity="0.1" d="M103.912 250.854H136.523V300.043C132.676 301.15 128.756 301.983 124.792 302.537L123.818 302.657C123.339 302.712 122.865 302.76 122.395 302.807C121.925 302.854 121.438 302.888 120.963 302.918H120.814C120.608 302.918 120.386 302.943 120.185 302.948H119.967C119.711 302.948 119.455 302.973 119.198 302.982C118.835 303.003 118.472 303.008 118.1 303.012C117.942 303.012 117.792 303.012 117.634 303.012C117.267 303.012 116.903 303.012 116.536 303.012H115.728C115.51 303.012 115.301 303.012 115.074 303.012L114.25 302.982C113.822 302.982 113.361 302.935 112.916 302.905L112.096 302.845L111.074 302.751C110.356 302.687 109.643 302.606 108.938 302.507L108.083 302.387L107.656 302.327C106.942 302.216 106.237 302.096 105.519 301.96C104.993 301.87 104.472 301.759 103.942 301.652L103.912 250.854Z" fill="#A19BFD"/>
<path opacity="0.1" d="M340.37 128.414H313.482V188.019H340.37V128.414Z" fill="#A19BFD"/>
<path opacity="0.1" d="M340.375 189.85V249.023H206.911V223.5H277.999V238.556H313.482V189.85H340.375Z" fill="#A19BFD"/>
<path opacity="0.1" d="M340.798 314.296H340.37V353.113C335.556 352.705 330.755 352.15 325.969 351.449C304.421 348.291 283.414 342.156 263.551 333.219C257.816 330.635 252.198 327.815 246.696 324.758C237.507 319.662 228.703 313.899 220.355 307.516C218.258 305.908 216.188 304.262 214.146 302.58C212.731 301.412 211.325 300.214 209.902 299.051C208.915 298.251 207.919 297.464 206.911 296.711V250.854H313.127C313.055 250.58 312.982 250.306 312.905 250.037C312.986 250.306 313.063 250.58 313.136 250.854H340.37V314.27C340.516 314.274 340.657 314.287 340.798 314.296Z" fill="#A19BFD"/>
<path opacity="0.1" d="M410.498 123.975H392.977V118.525H400.831V102.293C401.512 102.541 402.19 102.796 402.865 103.058V118.525H410.498V123.975Z" fill="#A19BFD"/>
<path opacity="0.1" d="M452.711 188.024H366.695C366.695 188.024 366.695 188.024 366.725 188.045L366.686 188.024H350.729V128.419H355.251V172.475H375.913V146.384H392.981V125.805H410.502V146.401H427.57V172.493H452.711V188.024Z" fill="#A19BFD"/>
<path opacity="0.1" d="M350.729 189.85V249.023H452.711V189.85H350.729ZM480.394 318.676L480.535 271.839H452.711V250.879H350.729V353.75C359.09 354.101 367.464 354.001 375.814 353.45V353.45H375.96C379.948 353.2 383.918 352.835 387.87 352.355H387.96C409.041 349.9 429.654 344.394 449.155 336.012" fill="#A19BFD"/>
<path opacity="0.1" d="M492.697 250.854H516.488C516.278 262.869 513.868 274.67 508.595 285.569C504.206 294.624 498.108 302.541 490.903 309.458V271.817H492.697V250.854Z" fill="#A19BFD"/>
<path opacity="0.1" d="M516.501 249.023H492.698V199.573H505.578C512.244 215.163 516.479 232.273 516.501 249.023Z" fill="#A19BFD"/>
<path opacity="0.1" d="M340.375 144.985H325.969V163.673H340.375V144.985Z" fill="#A19BFD"/>
<path opacity="0.1" d="M340.375 183.721H325.969V188.024H340.375V183.721Z" fill="#A19BFD"/>
<path opacity="0.1" d="M340.375 189.85H325.969V202.404H340.375V189.85Z" fill="#A19BFD"/>
<path opacity="0.1" d="M340.375 222.456H325.969V241.144H340.375V222.456Z" fill="#A19BFD"/>
<path opacity="0.1" d="M340.375 261.192H325.969V279.88H340.375V261.192Z" fill="#A19BFD"/>
<path opacity="0.1" d="M340.371 314.27C340.516 314.27 340.657 314.27 340.798 314.296H340.371V318.637H325.969V299.928H340.371V314.27Z" fill="#A19BFD"/>
<path opacity="0.1" d="M340.371 338.655V353.091C335.556 352.683 330.755 352.129 325.969 351.427V338.655H340.371Z" fill="#A19BFD"/>
<path opacity="0.1" d="M268.649 247.65H206.911V249.023H268.649V247.65Z" fill="#A19BFD"/>
<path opacity="0.1" d="M268.649 250.85H206.911V256.111H268.649V250.85Z" fill="#A19BFD"/>
<path opacity="0.1" d="M268.649 273.357H206.911V281.818H268.649V273.357Z" fill="#A19BFD"/>
<path opacity="0.1" d="M268.645 299.064V307.524H220.355C218.258 305.922 216.187 304.277 214.141 302.588C212.727 301.421 211.325 300.223 209.898 299.064H268.645Z" fill="#A19BFD"/>
<path opacity="0.1" d="M268.645 324.766V333.219H263.547C257.817 330.632 252.201 327.811 246.697 324.754L268.645 324.766Z" fill="#A19BFD"/>
<path opacity="0.1" d="M387.972 195.586H375.819V207.751H387.972V195.586Z" fill="#A19BFD"/>
<path opacity="0.1" d="M124.822 138.907H112.668V151.072H124.822V138.907Z" fill="#A19BFD"/>
<path opacity="0.1" d="M124.822 167.163H112.668V179.328H124.822V167.163Z" fill="#A19BFD"/>
<path opacity="0.1" d="M124.822 195.419H112.668V207.584H124.822V195.419Z" fill="#A19BFD"/>
<path opacity="0.1" d="M124.822 223.671H112.668V235.836H124.822V223.671Z" fill="#A19BFD"/>
<path opacity="0.1" d="M124.822 251.927H112.668V264.092H124.822V251.927Z" fill="#A19BFD"/>
<path opacity="0.1" d="M124.822 280.184H112.668V292.348H124.822V280.184Z" fill="#A19BFD"/>
<path opacity="0.1" d="M434.369 195.586H422.216V207.751H434.369V195.586Z" fill="#A19BFD"/>
<path opacity="0.1" d="M387.972 225.592H375.819V237.757H387.972V225.592Z" fill="#A19BFD"/>
<path opacity="0.1" d="M434.369 225.592H422.216V237.757H434.369V225.592Z" fill="#A19BFD"/>
<path opacity="0.1" d="M387.972 255.593H375.819V267.758H387.972V255.593Z" fill="#A19BFD"/>
<path opacity="0.1" d="M434.369 255.593H422.216V267.758H434.369V255.593Z" fill="#A19BFD"/>
<path opacity="0.1" d="M387.972 285.599H375.819V297.764H387.972V285.599Z" fill="#A19BFD"/>
<path opacity="0.1" d="M434.369 285.599H422.216V297.764H434.369V285.599Z" fill="#A19BFD"/>
<path opacity="0.1" d="M387.972 315.604H375.819V327.769H387.972V315.604Z" fill="#A19BFD"/>
<path opacity="0.1" d="M434.369 315.604H422.216V327.769H434.369V315.604Z" fill="#A19BFD"/>
<path opacity="0.1" d="M375.819 353.45V345.606H387.968V352.334L375.819 353.45Z" fill="#A19BFD"/>
<path opacity="0.1" d="M51.9641 172.818V179.777H93.5576V172.818H51.9641ZM56.1094 179.341H52.7162V173.245H56.135L56.1094 179.341ZM60.2503 179.341H56.8316V173.245H60.2503V179.341ZM64.3828 179.341H60.964V173.245H64.3828V179.341ZM68.5237 179.341H65.1092V173.245H68.528L68.5237 179.341ZM72.6604 179.341H69.2417V173.245H72.6604V179.341ZM76.8014 179.341H73.3826V173.245H76.8014V179.341ZM80.9424 179.341H77.5236V173.245H80.9424V179.341ZM85.0791 179.341H81.6603V173.245H85.0791V179.341ZM89.2158 179.341H85.797V173.245H89.2158V179.341ZM93.3524 179.341H89.9337V173.245H93.3524V179.341Z" fill="#A19BFD"/>
<path opacity="0.1" d="M51.9641 193.067V200.026H93.5576V193.067H51.9641ZM56.1094 199.585H52.7162V193.507H56.135L56.1094 199.585ZM60.2503 199.585H56.8316V193.507H60.2503V199.585ZM64.3828 199.585H60.964V193.507H64.3828V199.585ZM68.5237 199.585H65.1092V193.507H68.528L68.5237 199.585ZM72.6604 199.585H69.2417V193.507H72.6604V199.585ZM76.8014 199.585H73.3826V193.507H76.8014V199.585ZM80.9424 199.585H77.5236V193.507H80.9424V199.585ZM85.0791 199.585H81.6603V193.507H85.0791V199.585ZM89.2158 199.585H85.797V193.507H89.2158V199.585ZM93.3524 199.585H89.9337V193.507H93.3524V199.585Z" fill="#A19BFD"/>
<path opacity="0.1" d="M51.9641 213.324V220.296H93.5576V213.324H51.9641ZM56.1094 219.843H52.7162V213.761H56.135L56.1094 219.843ZM60.2503 219.843H56.8316V213.761H60.2503V219.843ZM64.3828 219.843H60.964V213.761H64.3828V219.843ZM68.5237 219.843H65.1092V213.761H68.528L68.5237 219.843ZM72.6604 219.843H69.2417V213.761H72.6604V219.843ZM76.8014 219.843H73.3826V213.761H76.8014V219.843ZM80.9424 219.843H77.5236V213.761H80.9424V219.843ZM85.0791 219.843H81.6603V213.761H85.0791V219.843ZM89.2158 219.843H85.797V213.761H89.2158V219.843ZM93.3524 219.843H89.9337V213.761H93.3524V219.843Z" fill="#A19BFD"/>
<path opacity="0.1" d="M51.9641 233.582V240.533H93.5576V233.582H51.9641ZM56.1094 240.1H52.7162V234.014H56.135L56.1094 240.1ZM60.2503 240.1H56.8316V234.014H60.2503V240.1ZM64.3828 240.1H60.964V234.014H64.3828V240.1ZM68.5237 240.1H65.1092V234.014H68.528L68.5237 240.1ZM72.6604 240.1H69.2417V234.014H72.6604V240.1ZM76.8014 240.1H73.3826V234.014H76.8014V240.1ZM80.9424 240.1H77.5236V234.014H80.9424V240.1ZM85.0791 240.1H81.6603V234.014H85.0791V240.1ZM89.2158 240.1H85.797V234.014H89.2158V240.1ZM93.3524 240.1H89.9337V234.014H93.3524V240.1Z" fill="#A19BFD"/>
<path opacity="0.1" d="M52.1436 253.835C52.3102 254.49 52.4982 255.144 52.6948 255.79V254.271H56.1136V260.354H54.2845C54.3401 260.495 54.3957 260.649 54.4512 260.782H93.5575V253.835H52.1436ZM60.2631 260.354H56.8443V254.271H60.2631V260.354ZM64.3955 260.354H60.9768V254.271H64.3955V260.354ZM68.5365 260.354H65.1092V254.271H68.5279L68.5365 260.354ZM72.6732 260.354H69.2544V254.271H72.6732V260.354ZM76.8142 260.354H73.3954V254.271H76.8142V260.354ZM80.9551 260.354H77.5364V254.271H80.9551V260.354ZM85.0918 260.354H81.6731V254.271H85.0918V260.354ZM89.2285 260.354H85.8098V254.271H89.2285V260.354ZM93.3652 260.354H89.9465V254.271H93.3652V260.354Z" fill="#A19BFD"/>
<path opacity="0.1" d="M61.8015 274.093C61.9083 274.23 62.0109 274.384 62.122 274.52H64.3827V277.442C64.6263 277.733 64.8656 278.024 65.1134 278.297V274.503H68.5322V280.607H67.1476C67.2843 280.748 67.4168 280.898 67.5749 281.035H93.5703V274.093H61.8015ZM72.6603 280.607H69.2416V274.529H72.6603V280.607ZM76.8013 280.607H73.3826V274.529H76.8013V280.607ZM80.9423 280.607H77.5235V274.529H80.9423V280.607ZM85.079 280.607H81.6602V274.529H85.079V280.607ZM89.2157 280.607H85.7969V274.529H89.2157V280.607ZM93.3524 280.607H89.9336V274.529H93.3524V280.607Z" fill="#A19BFD"/>
<path opacity="0.1" d="M84.6174 294.346C85.0063 294.568 85.4037 294.774 85.8054 294.996V294.782H89.2242V296.707L89.9507 297.045V294.782H93.3695V298.482C93.435 298.515 93.5037 298.541 93.5746 298.559V294.346H84.6174Z" fill="#A19BFD"/>
<path opacity="0.1" d="M366.695 188.024H366.72H366.695ZM340.37 314.266H340.798H340.37ZM312.905 250.033C312.986 250.306 313.054 250.58 313.131 250.849C313.063 250.58 312.99 250.306 312.905 250.033ZM366.695 188.011H366.72H366.695ZM108.579 123.962V125.788H127.668V123.962H108.579ZM340.37 314.266H340.798H340.37ZM312.905 250.033C312.986 250.306 313.054 250.58 313.131 250.849C313.063 250.58 312.99 250.306 312.905 250.033ZM366.695 188.011H366.72H366.695ZM340.37 314.253H340.798H340.37ZM312.905 250.033C312.986 250.306 313.054 250.58 313.131 250.849C313.063 250.58 312.99 250.306 312.905 250.033Z" fill="#A19BFD"/>
<path d="M241.534 207.593C241.534 207.593 239.85 207.357 239.85 204.902C239.85 202.447 238.645 197.862 238.645 197.862C238.645 197.84 237.603 189.876 236.162 188.61C234.722 187.344 232.872 179.91 232.872 179.91C232.872 179.91 232.556 175.876 231.91 175.008C231.265 174.139 230.393 172.014 229.107 168.981C227.821 165.948 222.458 163.848 222.458 163.848C222.458 163.848 212.761 158.219 210.013 156.384C209.764 156.233 209.53 156.057 209.317 155.858C208.838 155.229 206.753 155.216 206.753 155.216C206.535 153.839 206.325 152.256 206.257 150.824C206.257 150.67 206.257 150.516 206.236 150.362C209.3 148.549 211.607 145.69 212.735 142.312C212.787 142.149 212.829 141.978 212.876 141.815C213.06 141.755 213.229 141.657 213.373 141.527C213.516 141.397 213.631 141.239 213.71 141.063C213.958 140.511 213.962 139.865 214.27 139.352C214.629 138.744 215.312 138.419 215.851 137.962C217.21 136.807 217.56 134.86 217.496 133.09C217.453 131.657 217.223 130.211 217.312 128.787L217.338 128.427C217.364 128.213 217.394 128 217.432 127.794C217.641 126.733 218.099 125.733 218.355 124.68C218.611 123.628 218.637 122.443 218.039 121.536C217.163 120.206 215.338 119.941 213.735 119.804C211.919 119.65 210.295 119.851 209.133 118.341C208.589 117.552 207.977 116.812 207.304 116.13C207.065 115.907 204.74 114.487 204.74 114.393C202.471 113.341 199.899 113.144 197.496 113.837C196.291 114.188 195.154 114.761 193.932 115.048C191.296 115.672 188.261 114.996 186.022 116.506C184.774 117.362 184.026 118.722 183.326 120.048C182.756 121.14 182.177 122.231 181.591 123.32C180.646 125.112 179.685 126.934 179.287 128.919C179.204 129.351 179.152 129.789 179.133 130.228V130.249C179.133 130.408 179.133 130.566 179.133 130.724V130.925C179.133 131.075 179.133 131.22 179.159 131.353C179.185 131.486 179.18 131.528 179.193 131.618C179.206 131.708 179.227 131.909 179.253 132.046C179.279 132.183 179.33 132.422 179.381 132.611C179.403 132.692 179.432 132.769 179.458 132.846C179.501 132.991 179.552 133.132 179.608 133.274C179.638 133.346 179.668 133.423 179.702 133.496C179.766 133.646 179.843 133.791 179.92 133.924C179.954 133.984 179.979 134.039 180.014 134.095C180.133 134.294 180.264 134.485 180.407 134.668C181.321 135.81 182.667 136.537 183.663 137.606C183.663 137.649 183.663 137.692 183.663 137.731C183.663 137.85 183.663 137.966 183.663 138.086C183.716 140.47 184.35 142.806 185.511 144.89C186.671 146.973 188.322 148.742 190.321 150.041C190.321 150.203 190.343 150.37 190.351 150.533C190.434 151.802 190.419 153.077 190.304 154.344C190.13 154.139 189.912 153.975 189.667 153.866C189.421 153.756 189.154 153.703 188.885 153.711C188.702 153.702 188.518 153.718 188.338 153.758L188.3 153.728V153.766C187.36 153.997 186.202 154.977 185.095 157.761C185.095 157.761 181.727 161.56 179.163 161.401C176.599 161.243 170.108 165.354 170.108 165.354C170.108 165.354 163.775 169.469 162.416 173.66C161.656 176.037 160.745 178.363 159.689 180.624L151.86 196.771L150.416 209.582C150.416 209.582 151.215 215.279 151.057 216.147C150.899 217.016 154.343 224.847 154.343 224.847C154.343 224.847 165.723 244.861 170.373 245.888L170.706 245.653C170.905 245.757 171.116 245.836 171.334 245.888L172.292 245.212C172.349 245.965 172.325 246.722 172.219 247.47C171.578 249.447 172.458 262.343 173.578 264.871C174.698 267.399 174.3 300.544 174.3 300.544L174.142 303.47C174.142 303.47 174.142 303.564 174.18 303.726L174.142 304.419L174.257 304.479C174.377 305.407 174.338 306.349 174.142 307.264C173.74 308.547 173.578 312.174 173.578 312.174C173.578 312.174 170.377 332.654 171.894 336.769C173.411 340.884 174.702 345.392 174.702 345.392C174.702 345.392 176.304 350.525 174.779 351.402C173.253 352.278 168.916 353.75 169.809 355.889C170.621 357.865 173.702 363.16 174.159 363.934L174.121 364.341L173.492 371.154C173.594 372.054 173.838 372.932 174.215 373.755C174.903 375.239 176.24 376.779 178.783 376.612C179.21 376.582 179.706 376.531 180.185 376.467C184.838 375.842 190.569 373.764 190.569 373.764C190.272 373.574 189.999 373.349 189.757 373.092V373.092C189.528 372.87 189.347 372.604 189.224 372.31C189.102 372.016 189.04 371.7 189.043 371.381C189.112 370.141 186.791 364.229 186.214 362.775C186.125 362.566 186.078 362.446 186.078 362.446C186.078 362.446 191.368 356.911 190.488 352.005C190.488 352.005 184.633 348.583 186.561 346.705C188.488 344.827 191.932 339.434 191.932 339.434C191.932 339.434 192.09 319.266 191.932 316.255C191.767 314.165 191.866 312.062 192.227 309.997C192.291 309.685 192.368 309.381 192.449 309.081C195.115 309.48 197.806 309.684 200.501 309.693C201.483 309.693 202.483 309.693 203.492 309.633C203.492 309.918 203.505 310.226 203.53 310.557C203.753 315.553 204.167 324.313 204.505 327.568C204.983 332.235 207.629 344.81 207.629 344.81C207.629 344.81 202.582 348.052 208.509 356.043C208.509 356.043 208.509 358.938 208.116 359.357C207.696 360.728 207.358 362.122 207.103 363.532C206.855 365.038 206.753 366.561 207.154 367.352C208.116 369.242 213.885 369.088 213.885 369.088L214.026 369.063C215.115 368.95 216.216 369.055 217.264 369.372C218.312 369.688 219.288 370.21 220.133 370.906C222.325 372.669 230.645 371.894 235.15 371.334C236.915 371.112 238.094 370.906 238.094 370.906C238.151 370.706 238.172 370.498 238.154 370.29C238.107 369.183 237.239 366.753 231.359 364.584C231.359 364.584 225.829 360.863 225.906 357.621H225.791H225.15C225.616 357.595 225.915 357.621 225.915 357.621C225.915 357.621 223.748 349.708 224.633 349.066C225.517 348.425 222.868 339.656 222.868 339.656C222.868 339.656 221.351 324.942 221.27 323.911C221.273 323.026 221.407 322.147 221.667 321.302L221.27 313.235C221.27 313.235 221.193 310.553 221.27 309.68C221.257 308.923 221.195 308.167 221.086 307.418C221.047 307.118 221.009 306.806 220.966 306.498C223.039 305.972 224.385 305.484 224.385 305.484L224.146 277.403C225.906 273.981 226.231 266.475 226.222 261.149C226.222 257.727 226.069 255.195 226.069 255.195L228.475 251.264C228.475 251.264 229.03 246.559 228.15 245.528C227.761 245.062 227.936 244.579 228.257 244.181C228.423 244.049 228.599 243.929 228.782 243.822C228.782 243.822 228.757 243.783 228.727 243.728C228.895 243.587 229.073 243.46 229.261 243.347C229.261 243.347 228.406 242.021 229.171 241.461C229.889 241.948 230.53 242.316 231.017 242.616C230.983 242.928 230.949 243.107 230.949 243.107L231.154 242.68C231.624 242.945 231.91 243.107 231.91 243.107C231.91 243.107 235.68 235.592 235.598 234.484C235.517 233.377 238.162 228.71 238.162 228.71C238.162 228.71 238.483 226.259 239.927 225.232C241.372 224.206 241.047 216.768 241.047 216.768C241.047 216.768 241.449 212.892 242.41 211.31C243.372 209.727 241.534 207.593 241.534 207.593ZM169.416 204.295L169.488 206.087C169.061 205.398 168.753 204.902 168.753 204.902L169.416 204.295Z" fill="url(#paint0_linear_21_301)"/>
<path d="M232.116 239.861L231.192 243.796C231.192 243.796 223.799 240.019 222.466 235.22C221.133 230.421 224.697 228.599 224.697 228.599L231.586 231.52L232.116 239.861Z" fill="white"/>
<path opacity="0.1" d="M232.116 239.861L231.192 243.796C231.192 243.796 223.799 240.019 222.466 235.22C221.133 230.421 224.697 228.599 224.697 228.599L231.586 231.52L232.116 239.861Z" fill="black"/>
<path d="M190.625 373.789C190.625 373.789 183.787 376.304 179.086 376.621C176.591 376.788 175.279 375.256 174.603 373.781C174.235 372.96 173.997 372.087 173.898 371.193L174.509 364.413L174.834 360.803L184.821 358.207L186.236 362.536L186.368 362.865C186.937 364.311 189.214 370.192 189.146 371.42C189.143 371.734 189.204 372.046 189.324 372.336C189.445 372.626 189.622 372.889 189.847 373.109C190.076 373.368 190.337 373.597 190.625 373.789V373.789Z" fill="white"/>
<path d="M237.329 370.342C237.346 370.548 237.326 370.755 237.269 370.953C237.269 370.953 222.646 373.396 219.654 370.953C218.811 370.24 217.828 369.711 216.768 369.4C215.708 369.089 214.595 369.003 213.5 369.148C213.5 369.148 207.842 369.302 206.898 367.437C206.505 366.655 206.607 365.136 206.851 363.639C207.099 362.236 207.43 360.849 207.842 359.486L208.069 359.306L209.415 358.224L225.175 357.758H225.295C225.218 360.983 230.645 364.683 230.645 364.683C236.41 366.821 237.261 369.238 237.329 370.342Z" fill="white"/>
<path opacity="0.1" d="M237.329 370.342C237.344 370.548 237.322 370.755 237.265 370.953C237.265 370.953 222.646 373.396 219.654 370.953C218.811 370.24 217.829 369.712 216.77 369.401C215.711 369.09 214.599 369.004 213.505 369.148C213.505 369.148 207.842 369.302 206.902 367.437C206.509 366.65 206.607 365.136 206.851 363.639C209.03 363.857 212.47 364.4 213.821 365.697C215.864 367.668 219.325 369.636 221.449 369.79C223.111 369.897 233.056 370.213 237.329 370.342Z" fill="black"/>
<path opacity="0.1" d="M190.625 373.789C190.625 373.789 183.787 376.304 179.086 376.621C176.591 376.788 175.279 375.256 174.608 373.776C176.347 374.362 178.761 374.978 180.031 374.414C181.535 373.747 186.868 373.315 189.86 373.131C190.087 373.38 190.344 373.601 190.625 373.789V373.789Z" fill="black"/>
<path d="M200.77 171.107C195.129 168.912 187.872 161.662 189.684 158.275C190.087 157.42 190.326 156.497 190.389 155.554C190.506 154.274 190.523 152.987 190.441 151.705C190.314 149.604 190.061 147.513 189.684 145.443C189.684 145.443 207.295 145.84 206.27 148.437C205.97 149.198 205.923 150.52 206.005 152C206.086 153.48 206.3 155.152 206.522 156.568C206.829 158.51 207.137 159.99 207.137 159.99C207.137 159.99 206.06 161.5 205.428 161.581C204.795 161.662 208.864 174.233 200.77 171.107Z" fill="#CF6F80"/>
<path opacity="0.1" d="M186.355 362.865L186.223 363.01C180.958 356.637 174.591 364.58 174.591 364.58L174.497 364.413L174.821 360.803L184.808 358.207L186.223 362.536L186.355 362.865Z" fill="black"/>
<path opacity="0.1" d="M225.299 358.207C225.299 358.207 221.453 358.126 219.402 359.939C217.351 361.753 207.436 360.333 207.864 359.939C207.99 359.744 208.067 359.521 208.086 359.289L209.432 358.207L225.192 357.741C225.252 358.027 225.299 358.207 225.299 358.207Z" fill="black"/>
<path d="M192.907 308.157C192.62 308.866 192.403 309.601 192.257 310.352C191.901 312.407 191.802 314.499 191.962 316.58C192.12 319.574 191.962 339.639 191.962 339.639C191.962 339.639 188.582 344.99 186.697 346.876C184.813 348.762 190.543 352.15 190.543 352.15C191.398 357.026 186.219 362.536 186.219 362.536C180.954 356.162 174.586 364.11 174.586 364.11C174.586 364.11 171.125 358.121 170.262 355.983C169.398 353.844 173.642 352.364 175.133 351.496C176.625 350.627 175.061 345.507 175.061 345.507C175.061 345.507 173.8 341.02 172.304 336.927C170.809 332.834 173.954 312.456 173.954 312.456C173.954 312.456 174.116 308.838 174.505 307.576C174.701 306.665 174.74 305.728 174.62 304.804C174.595 304.492 174.565 304.231 174.544 304.056C174.522 303.88 174.505 303.799 174.505 303.799L174.565 303.696L176.702 299.71C176.702 299.71 193.932 305.647 192.907 308.157Z" fill="#A19BFD"/>
<path d="M225.299 357.736C225.299 357.736 221.453 357.655 219.402 359.447C217.351 361.24 207.436 359.841 207.864 359.447C208.291 359.054 208.257 356.141 208.257 356.141C202.441 348.194 207.402 344.968 207.402 344.968C207.402 344.968 204.804 332.457 204.334 327.816C204.005 324.574 203.599 315.861 203.381 310.886C203.287 308.748 203.231 307.276 203.231 307.276L207.983 306.318L208.594 306.194L220.056 303.893C220.056 303.893 220.372 306.032 220.586 307.781C220.692 308.528 220.752 309.281 220.765 310.035C220.688 310.891 220.765 313.568 220.765 313.568L221.154 321.597C220.9 322.439 220.769 323.314 220.765 324.193C220.842 325.216 222.334 339.853 222.334 339.853C222.334 339.853 224.927 348.587 224.043 349.216C223.158 349.845 225.299 357.736 225.299 357.736Z" fill="#A19BFD"/>
<path opacity="0.1" d="M206.27 148.437C205.971 149.198 205.924 150.52 206.005 152C203.646 153.422 200.934 154.149 198.181 154.097C195.428 154.046 192.745 153.218 190.441 151.709C190.314 149.607 190.061 147.514 189.684 145.443C189.684 145.443 207.295 145.832 206.27 148.437Z" fill="black"/>
<path d="M213.077 138.984C213.081 140.525 212.838 142.057 212.359 143.522C211.289 146.804 209.093 149.602 206.161 151.421C203.229 153.24 199.748 153.962 196.335 153.461C192.922 152.96 189.796 151.267 187.509 148.682C185.222 146.097 183.922 142.786 183.838 139.335C183.838 139.215 183.838 139.104 183.838 138.984C183.805 137.041 184.159 135.111 184.879 133.306C185.599 131.501 186.67 129.858 188.031 128.472C189.392 127.087 191.015 125.986 192.806 125.235C194.596 124.483 196.518 124.096 198.46 124.096C200.401 124.096 202.323 124.483 204.114 125.235C205.904 125.986 207.527 127.087 208.888 128.472C210.249 129.858 211.321 131.501 212.041 133.306C212.761 135.111 213.115 137.041 213.082 138.984H213.077Z" fill="#CF6F80"/>
<path opacity="0.1" d="M200.77 171.107C195.129 168.912 187.872 161.662 189.684 158.275C190.087 157.42 190.326 156.497 190.389 155.554L198.112 161.906L202.889 165.828L206.522 156.572C206.829 158.514 207.137 159.994 207.137 159.994C207.137 159.994 206.06 161.504 205.428 161.585C204.795 161.667 208.864 174.233 200.77 171.107Z" fill="black"/>
<path d="M220.74 199.179L214.291 307.61L205.881 308.162L184.103 245.289L187.676 170.645L188.428 154.874L198.112 162.834L202.894 166.757L206.633 157.231L213.586 163.296L220.74 199.179Z" fill="#A19BFD"/>
<path opacity="0.1" d="M192.907 308.158C192.62 308.866 192.403 309.601 192.257 310.352C186.137 309.406 180.194 307.548 174.625 304.838L174.509 304.778L174.548 304.09L174.569 303.73L176.706 299.744C176.706 299.744 193.932 305.647 192.907 308.158Z" fill="black"/>
<path opacity="0.1" d="M208.082 310.369C206.517 310.635 204.939 310.815 203.355 310.908C203.261 308.769 203.206 307.298 203.206 307.298L207.958 306.34L208.082 310.369Z" fill="black"/>
<path opacity="0.1" d="M220.56 307.803C217.522 308.594 212.829 309.484 208.629 308.927L208.569 306.216L220.03 303.914C220.03 303.914 220.346 306.032 220.56 307.803Z" fill="black"/>
<path opacity="0.1" d="M208.552 309.424C191.031 312.418 174.984 303.833 174.984 303.833L175.138 300.925C175.138 300.925 175.535 267.95 174.433 265.422C173.33 262.895 172.471 250.075 173.095 248.108C173.719 246.14 170.817 216.635 170.817 216.635L170.347 204.658L153.142 197.682L160.834 181.633C161.873 179.383 162.767 177.069 163.51 174.704C164.847 170.538 171.057 166.444 171.057 166.444C171.057 166.444 177.424 162.355 179.941 162.509C182.458 162.663 185.757 158.891 185.757 158.891C188.193 152.676 190.398 155.49 190.398 155.49C190.398 155.785 190.398 155.49 190.278 156.41C189.424 163.232 204.099 184.79 204.308 185.171L205.706 219.244L207.12 262.364L208.552 309.424Z" fill="black"/>
<path d="M208.082 309.424C190.561 312.418 174.509 303.833 174.509 303.833L174.668 300.925C174.668 300.925 175.065 267.95 173.958 265.422C172.851 262.895 171.997 250.075 172.625 248.108C173.253 246.14 170.347 216.635 170.347 216.635L169.873 204.658L152.659 197.656L160.352 181.608C161.388 179.357 162.282 177.042 163.027 174.678C164.36 170.512 170.574 166.419 170.574 166.419C170.574 166.419 176.941 162.33 179.454 162.484C181.967 162.638 185.27 158.865 185.27 158.865C187.71 152.65 190.398 155.464 190.398 155.464C190.398 155.76 190.142 155.892 190.278 156.384C192.159 163.001 203.629 184.764 203.838 185.145L205.253 219.218L206.667 262.338L208.082 309.424Z" fill="white"/>
<path opacity="0.1" d="M203.359 186.116C201.475 185.329 191.492 173.921 191.492 173.921V171.325C191.129 170.469 188.971 170.991 187.219 171.59L187.971 155.819L188.825 156.53C190.697 163.142 203.142 185.735 203.359 186.116Z" fill="black"/>
<path d="M203.834 185.171C201.945 184.384 191.962 172.976 191.962 172.976V170.38C191.599 169.524 189.441 170.046 187.689 170.645L188.445 154.874L189.3 155.584C191.176 162.197 203.624 184.794 203.834 185.171Z" fill="white"/>
<path opacity="0.1" d="M174.984 242.064C175.219 242.064 187.167 240.806 187.167 240.806C187.167 240.806 194.402 255.046 193.928 258.51C193.454 261.975 192.595 265.042 189.684 264.499C186.774 263.955 174.022 264.926 174.022 264.926L174.984 242.064Z" fill="black"/>
<path d="M174.509 241.119C174.744 241.119 186.693 239.861 186.693 239.861C186.693 239.861 193.924 254.105 193.454 257.565C192.983 261.025 192.116 264.096 189.21 263.553C186.304 263.01 173.548 263.981 173.548 263.981L174.509 241.119Z" fill="white"/>
<path d="M183.514 234.433C183.514 234.433 194.479 240.331 194.714 242.132C194.949 243.933 189.133 241.345 187.877 241.033C187.05 240.834 186.208 240.702 185.36 240.639L176.979 240.866L183.514 234.433Z" fill="#CF6F80"/>
<path opacity="0.1" d="M200.3 186.852C200.937 186.852 201.454 186.335 201.454 185.697C201.454 185.059 200.937 184.542 200.3 184.542C199.662 184.542 199.146 185.059 199.146 185.697C199.146 186.335 199.662 186.852 200.3 186.852Z" fill="black"/>
<path d="M200.3 186.381C200.937 186.381 201.454 185.864 201.454 185.226C201.454 184.588 200.937 184.071 200.3 184.071C199.662 184.071 199.146 184.588 199.146 185.226C199.146 185.864 199.662 186.381 200.3 186.381Z" fill="#3F3D56"/>
<path opacity="0.1" d="M202.424 236.845C203.061 236.845 203.577 236.328 203.577 235.691C203.577 235.053 203.061 234.536 202.424 234.536C201.786 234.536 201.27 235.053 201.27 235.691C201.27 236.328 201.786 236.845 202.424 236.845Z" fill="black"/>
<path d="M202.424 236.371C203.061 236.371 203.577 235.854 203.577 235.216C203.577 234.578 203.061 234.061 202.424 234.061C201.786 234.061 201.27 234.578 201.27 235.216C201.27 235.854 201.786 236.371 202.424 236.371Z" fill="#3F3D56"/>
<path opacity="0.1" d="M201.449 211.849C202.086 211.849 202.603 211.332 202.603 210.694C202.603 210.056 202.086 209.539 201.449 209.539C200.812 209.539 200.295 210.056 200.295 210.694C200.295 211.332 200.812 211.849 201.449 211.849Z" fill="black"/>
<path d="M201.449 211.378C202.086 211.378 202.603 210.861 202.603 210.223C202.603 209.585 202.086 209.068 201.449 209.068C200.812 209.068 200.295 209.585 200.295 210.223C200.295 210.861 200.812 211.378 201.449 211.378Z" fill="#3F3D56"/>
<path d="M228.047 240.4C228.047 240.4 228.834 241.58 228.047 242.132C227.261 242.684 228.124 244.019 228.124 244.019C228.124 244.019 226.163 245.169 227.026 246.204C227.889 247.239 227.342 251.915 227.342 251.915L224.983 255.824C224.983 255.824 225.124 258.343 225.133 261.748C225.133 267.061 224.821 274.529 223.094 277.934L223.334 305.869C223.334 305.869 215.073 308.889 208.159 307.969L207.133 263.143C207.133 263.143 208.629 237.722 209.18 232.846C209.503 230.315 209.634 227.762 209.573 225.211C209.573 225.211 209.338 217.58 208.547 214.039C208.547 214.039 207.693 198.696 207.607 194.448C207.569 192.417 207.676 186.488 207.795 180.851C207.928 174.687 208.077 168.874 208.077 168.874L206.518 156.521C206.518 156.521 208.077 156.363 208.547 156.991C208.758 157.188 208.987 157.365 209.231 157.518V157.518C211.923 159.34 221.436 164.943 221.436 164.943C221.436 164.943 226.701 167.039 227.962 170.042C229.222 173.044 230.098 175.175 230.71 176.03C231.321 176.885 231.654 180.906 231.654 180.906C231.654 180.906 233.466 188.306 234.88 189.559C236.295 190.813 237.329 198.786 237.329 198.786L224.829 208.623C224.829 208.623 223.731 224.989 223.496 225.622C223.261 226.255 228.047 240.4 228.047 240.4Z" fill="white"/>
<path d="M228.522 240.4C228.522 240.4 229.304 241.58 228.522 242.132C227.74 242.684 228.594 244.019 228.594 244.019C228.594 244.019 226.646 245.182 227.5 246.217C228.355 247.252 227.816 251.927 227.816 251.927L225.458 255.837C225.458 255.837 225.599 258.356 225.611 261.761C225.611 267.073 225.299 274.542 223.573 277.947L223.808 305.882C223.808 305.882 215.535 308.902 208.629 307.982L207.607 263.155C207.607 263.155 209.103 237.735 209.654 232.859C209.977 230.327 210.107 227.775 210.043 225.224C210.043 225.224 209.808 217.593 209.022 214.051C209.022 214.051 208.167 198.709 208.077 194.461C208.039 192.429 208.15 186.501 208.265 180.863C208.398 174.7 208.547 168.887 208.547 168.887L206.488 156.367C206.488 156.367 208.547 156.367 209.022 157.004C209.23 157.203 209.46 157.38 209.706 157.53C212.398 159.353 221.915 164.956 221.915 164.956C221.915 164.956 227.175 167.052 228.436 170.054C229.697 173.057 230.573 175.187 231.188 176.043C231.804 176.898 232.128 180.919 232.128 180.919C232.128 180.919 233.94 188.319 235.355 189.572C236.769 190.825 237.791 198.781 237.791 198.781L225.291 208.619C225.291 208.619 224.193 224.984 223.953 225.617C223.714 226.25 228.522 240.4 228.522 240.4Z" fill="white"/>
<path opacity="0.1" d="M213.552 172.518L214.68 175.812L208.74 181.8C208.872 175.641 209.022 169.824 209.022 169.824L206.962 157.304C206.962 157.304 209.022 157.304 209.496 157.941C209.704 158.14 209.933 158.315 210.18 158.463L215.231 173.049L213.552 172.518Z" fill="black"/>
<path d="M213.077 171.573L214.21 174.867L208.27 180.855C208.402 174.691 208.552 168.878 208.552 168.878L206.488 156.358C206.488 156.358 208.552 156.358 209.022 156.996C209.231 157.194 209.461 157.37 209.706 157.522L214.761 172.103L213.077 171.573Z" fill="white"/>
<path opacity="0.1" d="M213.077 138.984C213.081 140.525 212.838 142.057 212.359 143.522C212.279 143.535 212.196 143.531 212.117 143.511C212.038 143.491 211.963 143.456 211.898 143.407C211.787 139.557 209.894 135.943 207.565 132.867C206.911 131.939 206.118 131.116 205.214 130.429C204.3 129.742 203.164 129.42 202.026 129.527C200.744 129.702 199.612 130.575 198.317 130.686C196.607 130.827 195.077 129.642 193.381 129.582C192.691 129.589 192.011 129.742 191.385 130.033C190.76 130.324 190.203 130.744 189.753 131.267C188.861 132.323 188.199 133.552 187.808 134.878C187.136 136.887 186.771 138.987 186.723 141.105C186.702 142.303 186.586 143.804 185.475 144.241C185.559 143.36 185.459 142.471 185.181 141.631C184.904 140.791 184.455 140.018 183.864 139.36L183.838 139.335C183.838 139.215 183.838 139.104 183.838 138.984C183.805 137.041 184.159 135.111 184.879 133.306C185.599 131.501 186.67 129.858 188.031 128.472C189.392 127.087 191.015 125.986 192.806 125.235C194.596 124.483 196.518 124.096 198.46 124.096C200.401 124.096 202.323 124.483 204.114 125.235C205.904 125.986 207.527 127.087 208.888 128.472C210.249 129.858 211.321 131.501 212.041 133.306C212.761 135.111 213.115 137.041 213.082 138.984H213.077Z" fill="black"/>
<path d="M204.513 115.745C202.293 114.699 199.767 114.502 197.411 115.189C196.227 115.54 195.112 116.108 193.911 116.395C191.347 117.015 188.355 116.344 186.155 117.845C184.932 118.701 184.197 120.052 183.514 121.365L181.804 124.625C180.873 126.408 179.932 128.222 179.544 130.185C179.155 132.149 179.39 134.347 180.633 135.925C181.539 137.076 182.877 137.799 183.86 138.881C184.449 139.539 184.895 140.312 185.172 141.151C185.448 141.99 185.549 142.878 185.467 143.757C186.582 143.33 186.689 141.824 186.714 140.626C186.762 138.508 187.128 136.408 187.8 134.398C188.19 133.073 188.852 131.843 189.744 130.788C190.195 130.266 190.751 129.845 191.377 129.555C192.003 129.264 192.683 129.11 193.372 129.103C195.082 129.163 196.616 130.344 198.308 130.202C199.59 130.095 200.727 129.219 202.018 129.047C203.156 128.94 204.293 129.262 205.206 129.95C206.109 130.636 206.901 131.459 207.552 132.388C209.885 135.464 211.778 139.069 211.889 142.928C212.372 143.283 213.069 142.821 213.308 142.273C213.547 141.726 213.556 141.084 213.859 140.562C214.21 139.959 214.881 139.638 215.406 139.185C216.74 138.034 217.073 136.097 217.022 134.339C216.97 132.581 216.628 130.797 216.962 129.069C217.163 128.008 217.616 127.016 217.864 125.968C218.111 124.92 218.141 123.744 217.556 122.841C216.701 121.515 214.902 121.254 213.334 121.13C211.552 120.976 209.958 121.173 208.821 119.672C208.287 118.888 207.687 118.152 207.026 117.473C206.8 117.251 204.513 115.839 204.513 115.745Z" fill="#512E4E"/>
<path opacity="0.1" d="M158.065 205.946L153.599 197.682L152.185 210.433C152.185 210.433 152.971 216.096 152.813 216.964C152.655 217.833 156.035 225.617 156.035 225.617C156.035 225.617 167.202 245.524 171.762 246.551L187.167 235.532L183.082 230.34C183.082 230.34 181.667 229.788 181.313 230.34C181.313 230.34 173.727 217.277 172.941 216.331C172.155 215.386 172.309 213.5 172.309 213.5C172.309 213.5 171.129 212.242 171.522 211.062C171.915 209.881 169.245 205.788 169.245 205.788L171.68 203.508L158.065 205.946Z" fill="black"/>
<path d="M153.834 196.741L152.655 197.682L151.24 210.433C151.24 210.433 152.027 216.096 151.869 216.964C151.711 217.833 155.095 225.617 155.095 225.617C155.095 225.617 166.257 245.524 170.817 246.551L186.227 235.532L182.138 230.34C182.138 230.34 180.723 229.788 180.368 230.34C180.368 230.34 172.783 217.277 171.997 216.331C171.21 215.386 171.368 213.5 171.368 213.5C171.368 213.5 170.189 212.242 170.582 211.062C170.975 209.881 168.3 205.788 168.3 205.788L170.736 203.508L153.834 196.741Z" fill="white"/>
<path opacity="0.1" d="M227.026 246.692C227.88 247.731 227.342 252.398 227.342 252.398L224.983 256.307C224.983 256.307 225.124 258.831 225.133 262.232L221.167 263.472C220.808 263.584 220.428 263.609 220.059 263.544C219.689 263.479 219.34 263.327 219.041 263.099C218.742 262.872 218.501 262.576 218.34 262.237C218.178 261.898 218.1 261.525 218.111 261.149L218.795 239.074L228.047 242.616C227.261 243.163 228.124 244.506 228.124 244.506C228.124 244.506 226.163 245.653 227.026 246.692Z" fill="black"/>
<path d="M227.5 246.217C228.355 247.257 227.816 251.927 227.816 251.927L225.457 255.837C225.457 255.837 225.598 258.356 225.611 261.761L221.573 263.023C221.222 263.132 220.85 263.156 220.488 263.092C220.126 263.028 219.784 262.879 219.492 262.656C219.199 262.433 218.964 262.144 218.806 261.812C218.647 261.48 218.57 261.115 218.581 260.747L219.27 238.603L228.526 242.145C227.735 242.693 228.598 244.031 228.598 244.031C228.598 244.031 226.645 245.182 227.5 246.217Z" fill="white"/>
<path d="M230.564 235.695C230.564 235.695 229.936 239.711 228.363 239.947C226.791 240.182 226.086 246.444 224.517 246.221C222.949 245.999 223.987 240.4 224.043 239.313C224.098 238.227 222.334 233.727 223.654 232.705C224.975 231.683 229.154 232.705 229.154 232.705L230.564 235.695Z" fill="#CF6F80"/>
<path opacity="0.1" d="M233.91 204.765L236.876 198.777C236.876 198.777 238.056 203.341 238.056 205.779C238.056 208.217 239.705 208.457 239.705 208.457C239.705 208.457 241.513 210.595 240.56 212.152C239.607 213.709 239.222 217.584 239.222 217.584C239.222 217.584 239.534 224.98 238.12 226.002C236.705 227.025 236.41 229.467 236.41 229.467C236.41 229.467 233.812 234.108 233.893 235.211C233.974 236.315 230.278 243.788 230.278 243.788C230.278 243.788 232.086 234.501 221.552 230.489C221.552 230.489 221.47 227.337 222.257 226.473C223.043 225.609 224.269 225.215 223.5 220.848C222.731 216.481 223.278 211.263 223.278 210.215C223.278 209.167 225.637 202.631 225.637 202.631L233.91 204.765Z" fill="black"/>
<path d="M235.192 197.921L237.782 198.777C237.782 198.777 238.966 203.341 238.966 205.779C238.966 208.217 240.615 208.457 240.615 208.457C240.615 208.457 242.423 210.595 241.47 212.152C240.517 213.709 240.137 217.584 240.137 217.584C240.137 217.584 240.449 224.98 239.034 226.002C237.62 227.025 237.303 229.467 237.303 229.467C237.303 229.467 234.709 234.108 234.791 235.211C234.872 236.315 231.171 243.788 231.171 243.788C231.171 243.788 232.983 234.501 222.445 230.489C222.445 230.489 222.368 227.337 223.154 226.473C223.94 225.609 225.167 225.215 224.398 220.848C223.628 216.481 224.175 211.263 224.175 210.215C224.175 209.167 226.534 202.631 226.534 202.631L235.192 197.921Z" fill="white"/>
<path opacity="0.1" d="M177.992 353.134C177.992 353.134 182.12 350.538 184.83 352.424C187.539 354.31 177.992 353.134 177.992 353.134Z" fill="black"/>
<path opacity="0.1" d="M210.069 345.105C210.069 345.105 213.723 344.635 216.791 347.941C219.859 351.248 210.069 345.105 210.069 345.105Z" fill="black"/>
<g opacity="0.1">
<path d="M215.415 138.248C214.889 138.701 214.214 139.027 213.863 139.63C213.564 140.147 213.556 140.785 213.316 141.341C213.077 141.897 212.381 142.35 211.898 141.999C211.787 138.15 209.889 134.535 207.56 131.456C206.909 130.526 206.118 129.704 205.214 129.018C204.299 128.329 203.161 128.007 202.022 128.115C200.74 128.29 199.612 129.163 198.317 129.27C196.607 129.415 195.073 128.23 193.377 128.171C192.687 128.177 192.007 128.332 191.382 128.623C190.757 128.915 190.202 129.336 189.753 129.86C188.861 130.913 188.198 132.142 187.808 133.466C187.137 135.476 186.771 137.575 186.723 139.694C186.697 140.887 186.586 142.376 185.484 142.821C185.509 143.137 185.509 143.454 185.484 143.77C186.595 143.342 186.706 141.837 186.731 140.639C186.779 138.52 187.145 136.421 187.817 134.411C188.207 133.086 188.869 131.856 189.761 130.801C190.211 130.279 190.767 129.858 191.392 129.568C192.017 129.277 192.696 129.123 193.385 129.116C195.095 129.176 196.633 130.356 198.325 130.215C199.607 130.108 200.744 129.231 202.03 129.06C203.17 128.953 204.308 129.275 205.223 129.963C206.126 130.649 206.918 131.472 207.569 132.401C209.898 135.476 211.795 139.082 211.906 142.94C212.389 143.295 213.086 142.833 213.325 142.286C213.564 141.738 213.573 141.097 213.872 140.575C214.222 139.972 214.898 139.651 215.423 139.198C216.757 138.047 217.09 136.109 217.039 134.351C217.039 134.296 217.039 134.24 217.039 134.189C216.957 135.712 216.551 137.264 215.415 138.248Z" fill="black"/>
<path d="M183.868 137.944C182.885 136.862 181.543 136.139 180.642 134.993C179.882 133.978 179.449 132.757 179.398 131.49C179.264 133.073 179.705 134.651 180.642 135.934C181.543 137.085 182.885 137.808 183.868 138.89C184.812 139.948 185.378 141.29 185.479 142.705C185.545 141.844 185.436 140.978 185.159 140.16C184.882 139.342 184.443 138.589 183.868 137.944V137.944Z" fill="black"/>
<path d="M217.872 125.031C217.62 126.079 217.171 127.076 216.966 128.132C216.845 128.838 216.8 129.555 216.834 130.271C216.848 129.863 216.892 129.457 216.966 129.056C217.171 127.995 217.62 127.003 217.872 125.955C218.019 125.377 218.067 124.778 218.013 124.184C217.986 124.469 217.939 124.753 217.872 125.031V125.031Z" fill="black"/>
</g>
<path opacity="0.1" d="M100.993 370.526C123.991 370.526 142.634 367.529 142.634 363.832C142.634 360.135 123.991 357.138 100.993 357.138C77.996 357.138 59.3529 360.135 59.3529 363.832C59.3529 367.529 77.996 370.526 100.993 370.526Z" fill="#A19BFD"/>
<path d="M102.335 235.596H99.6558V295.98H102.335V235.596Z" fill="#535461"/>
<path d="M119.173 295.796L119.006 298.516L118.767 302.366L118.668 303.966L118.433 307.815L118.331 309.415L118.091 313.265L115.391 356.924C115.273 358.802 114.445 360.565 113.075 361.854C111.704 363.143 109.895 363.861 108.015 363.862H93.972C92.092 363.861 90.283 363.143 88.9134 361.854C87.5439 360.565 86.7166 358.802 86.6003 356.924L83.9123 313.235L83.673 309.385L83.5747 307.785L83.3354 303.936L83.2371 302.336L82.9978 298.486L82.8269 295.766C82.7972 295.242 82.8747 294.718 83.0546 294.226C83.2346 293.733 83.5132 293.283 83.8733 292.902C84.2334 292.521 84.6676 292.218 85.149 292.011C85.6304 291.804 86.149 291.697 86.673 291.698H115.395C115.917 291.703 116.432 291.814 116.91 292.026C117.387 292.238 117.816 292.545 118.17 292.929C118.524 293.313 118.795 293.765 118.968 294.258C119.14 294.752 119.21 295.275 119.173 295.796V295.796Z" fill="#3F3D56"/>
<path d="M119.006 298.516L118.767 302.353H83.22L82.9807 298.516H119.006Z" fill="#9D9CB5"/>
<path d="M118.668 303.953L118.433 307.794H83.5577L83.3184 303.953H118.668Z" fill="#9D9CB5"/>
<path d="M118.331 309.398L118.096 313.235H83.8952L83.6559 309.398H118.331Z" fill="#9D9CB5"/>
<path d="M78.891 258.228C94.4933 269.529 101.006 287.203 101.006 287.203C101.006 287.203 82.2029 286.557 66.5963 275.256C50.9897 263.955 44.4897 246.286 44.4897 246.286C44.4897 246.286 63.2844 246.927 78.891 258.228Z" fill="#A19BFD"/>
<path d="M44.4769 246.286C44.4769 246.286 63.998 257.129 70.2586 266.107C76.5192 275.085 101.006 287.203 101.006 287.203" stroke="#535461" stroke-width="2" stroke-miterlimit="10"/>
<path d="M88.9636 235.464C97.4549 241.61 101.006 251.23 101.006 251.23C101.006 251.23 90.7712 250.879 82.2756 244.733C73.78 238.586 70.2373 228.962 70.2373 228.962C70.2373 228.962 80.4679 229.313 88.9636 235.464Z" fill="#A19BFD"/>
<path d="M70.2373 228.962C70.2373 228.962 80.8611 234.865 84.267 239.75C87.673 244.634 101.006 251.23 101.006 251.23" stroke="#535461" stroke-width="2" stroke-miterlimit="10"/>
<path d="M113.335 250.743C103.579 261.474 101.515 275.5 101.515 275.5C101.515 275.5 115.271 272.121 125.019 261.385C134.766 250.648 136.839 236.627 136.839 236.627C136.839 236.627 123.091 240.011 113.335 250.743Z" fill="#A19BFD"/>
<path d="M136.848 236.632C136.848 236.632 124.138 247.633 120.908 255.212C117.677 262.792 101.515 275.5 101.515 275.5" stroke="#535461" stroke-width="2" stroke-miterlimit="10"/>
<path d="M471.476 246.966C471.476 246.966 464.42 211.831 467.121 207.46C467.121 207.46 467.219 203.396 467.057 198.217C467.057 198.02 467.057 197.823 467.057 197.622C467.532 197.939 468.027 198.225 468.54 198.478C471.028 199.757 473.885 200.126 476.616 199.521L474.48 197.139C473.967 196.57 473.433 195.954 473.322 195.201C473.211 194.448 473.518 193.777 473.783 193.105C475.813 187.972 475.92 181.518 472.01 177.6C468.706 174.306 467.903 170.055 464.318 167.048C461.698 164.845 460.258 161.615 458.899 158.493C457.749 155.854 456.591 153.193 455.933 150.396C455.42 148.21 455.215 145.947 454.51 143.813C453.805 141.679 452.484 139.604 450.42 138.65C449.685 138.312 448.869 138.12 448.198 137.671C447.318 137.076 446.788 136.109 446.151 135.262C442.916 130.985 432.083 133.504 426.955 135.241C425.561 135.678 424.27 136.394 423.16 137.346L423.207 137.269C423.245 137.204 423.292 137.14 423.335 137.076C422.774 137.53 422.289 138.072 421.899 138.68C421.151 139.865 420.839 141.246 420.216 142.53C419.463 144.048 415.28 148.287 417.079 149.994C417.205 150.108 417.349 150.201 417.506 150.267C418.182 150.549 418.925 150.623 419.643 150.481L419.566 150.665C418.952 152.171 418.637 153.782 418.639 155.409C418.639 162.437 424.429 168.134 431.579 168.134C432.923 168.135 434.259 167.929 435.54 167.522C435.57 167.685 435.596 167.847 435.626 168.01C435.626 168.074 435.647 168.138 435.655 168.202L435.429 168.519C435.418 168.499 435.405 168.481 435.391 168.463L428.681 177.848C427.656 178.571 421.75 182.848 421.416 186.056C421.066 189.568 420.716 193.678 420.716 193.678L420.669 194.559C420.375 194.805 420.032 194.983 419.663 195.083C419.295 195.183 418.908 195.201 418.532 195.137C416.438 194.795 416.438 202.836 416.438 202.836C416.438 202.836 415.045 204.119 414.087 203.007C413.13 201.895 410.6 205.663 410.6 205.663L394.746 206.348L394.383 206.369L393.528 203.722C393.436 203.442 393.237 203.211 392.976 203.077C392.714 202.943 392.41 202.918 392.13 203.007C392.064 203.029 392 203.056 391.938 203.089L391.878 203.123L391.767 203.2L391.712 203.251C391.681 203.279 391.652 203.309 391.626 203.341L391.575 203.401L391.549 203.426C391.451 203.563 391.385 203.721 391.358 203.887C391.332 204.054 391.344 204.224 391.395 204.385L392.13 206.656C389.071 207.272 385.942 209.008 388.494 213.79L375.562 211.399L379.746 214.915L401.344 219.377C401.058 219.89 401.246 220.634 402.139 221.682C405.985 226.203 412.993 227.431 415.814 227.747C416.559 229.415 417.489 230.994 418.587 232.453L418.344 236.957C418.344 236.957 411.203 271.287 409.895 273.028C410.555 272.279 411.159 271.483 411.703 270.645C409.63 277.698 406.733 287.352 405.972 288.798C404.75 291.108 403.617 300.454 405.011 301.053C405.438 301.237 406.66 301.147 408.404 301.014V301.789L408.327 331.127C408.327 331.127 408.677 349.122 407.716 350.837C406.754 352.552 406.498 356.149 406.498 356.149C406.498 356.149 402.652 363.246 399.605 366.099C399.584 366.121 399.561 366.141 399.536 366.158L399.442 365.491C399.442 365.491 395.78 370.119 387.677 369.858C387.677 369.858 382.801 373.032 390.032 373.203C397.263 373.374 406.498 372.947 406.498 372.947C406.498 372.947 412.946 363.109 418.348 364.392V371.847H420.002V364.272C420.769 363.767 421.425 363.111 421.931 362.344C422.437 361.577 422.783 360.715 422.946 359.811C423.088 358.879 422.984 357.926 422.645 357.046C422.307 356.166 421.745 355.39 421.015 354.794C420.687 354.497 420.424 354.135 420.242 353.732C420.06 353.329 419.964 352.892 419.959 352.45L419.899 352.501C419.899 352.351 419.861 352.197 419.844 352.039C419.369 348.189 418.775 340.246 420.874 334.369C423.75 326.311 424.621 315.087 422.527 308.406C421.852 306.27 421.297 304.098 420.865 301.9C420.814 301.622 420.767 301.357 420.724 301.108C422.155 301.302 423.573 301.588 424.968 301.964C429.818 303.303 440.429 303.551 449.489 303.478C449.51 303.726 449.536 303.987 449.566 304.248C449.727 306.062 450.065 307.855 450.574 309.603C451.711 313.025 452.232 328.111 452.232 328.111C452.232 328.111 453.698 340.516 452.899 345.563C452.471 348.369 452.044 351.188 451.801 354.019V354.075C451.801 354.075 449.399 360.919 447.643 364.636C447.6 364.73 447.553 364.824 447.51 364.914C447.042 364.956 446.581 365.059 446.138 365.217C446.138 365.217 443.784 369.923 441.437 370.701C439.091 371.48 439.869 374.042 445.181 373.101C450.493 372.16 458.514 371.39 458.514 371.39L458.86 366.59L460.493 364.546L460.065 369.332L461.805 368.99L461.574 363.169L464.245 359.824C464.245 359.824 467.471 356.949 462.676 351.295V351.419C462.625 351.337 462.578 351.252 462.523 351.171V351.145C461.728 349.913 461.095 347.616 462.253 343.54C464.347 336.174 465.565 329.489 465.565 329.489C465.565 329.489 470.24 311.579 464.621 303.106H464.869C464.293 301.914 463.886 300.647 463.659 299.342C463.631 299.188 463.605 299.03 463.582 298.867C467.74 298.628 471.822 297.875 475.151 296.249C475.138 296.232 473.134 253.732 471.476 246.966ZM418.686 217.324V217.409L417.831 217.452L418.686 217.324ZM415.754 217.73C415.614 217.761 415.482 217.824 415.369 217.914C415.002 218.434 414.771 219.039 414.698 219.672L413.365 219.372C413.365 219.372 412.429 219.171 411.083 218.945L410.446 218.303C412.199 218.158 414.019 217.944 415.754 217.73V217.73Z" fill="url(#paint1_linear_21_301)"/>
<path d="M459.869 363.228L459.36 369.289L461.065 368.947L460.809 362.373L459.869 363.228Z" fill="#1D2366"/>
<path d="M420.968 334.45C418.912 340.31 419.493 348.219 419.955 352.06C420.126 353.48 420.284 354.344 420.284 354.344C420.284 354.344 417.211 361.351 416.955 361.616C416.699 361.881 407.912 367.249 407.912 367.249L401.771 370.838C401.771 370.838 395.541 368.105 398.528 367.164C399.138 366.918 399.688 366.543 400.139 366.064C403.13 363.22 406.887 356.149 406.887 356.149C406.887 356.149 407.143 352.561 408.083 350.854C409.023 349.147 408.682 331.212 408.682 331.212L408.754 301.977V298.166L420.442 298.251C420.516 299.545 420.684 300.832 420.946 302.101C421.366 304.291 421.909 306.456 422.575 308.585C424.634 315.254 423.78 326.422 420.968 334.45Z" fill="#FFB0B1"/>
<path opacity="0.1" d="M420.284 354.344C420.284 354.344 417.211 361.351 416.955 361.616C416.699 361.881 407.912 367.249 407.912 367.249L401.771 370.838C401.771 370.838 395.541 368.105 398.528 367.164C399.138 366.918 399.688 366.543 400.139 366.064L400.404 367.934L402.451 367.848L419.972 352.069C420.126 353.48 420.284 354.344 420.284 354.344Z" fill="black"/>
<path d="M420.07 352.467L402.451 368.353L400.404 368.438L399.977 365.444C399.977 365.444 396.395 370.055 388.438 369.799C388.438 369.799 383.66 372.959 390.742 373.131C397.823 373.302 406.865 372.874 406.865 372.874C406.865 372.874 413.181 363.036 418.468 364.319V371.749H420.092V364.251C420.847 363.742 421.491 363.086 421.986 362.321C422.481 361.557 422.816 360.7 422.972 359.802C423.113 358.878 423.013 357.932 422.683 357.057C422.353 356.182 421.803 355.407 421.087 354.806C420.768 354.506 420.512 354.144 420.337 353.742C420.163 353.339 420.072 352.905 420.07 352.467V352.467Z" fill="#1D2366"/>
<path d="M461.493 343.587C460.356 347.65 460.976 349.939 461.753 351.166V351.192C462.751 352.708 463.445 354.403 463.796 356.184L463.864 356.569L455.847 368.267L451.497 369.978C451.497 369.978 444.501 367.587 445.779 366.903C446.1 366.736 446.6 365.846 447.172 364.619C448.882 360.919 451.241 354.092 451.241 354.092V354.036C451.489 351.218 451.882 348.407 452.318 345.61C453.1 340.576 451.664 328.218 451.664 328.218C451.664 328.218 451.151 313.192 450.04 309.774C449.538 308.037 449.205 306.255 449.044 304.453C448.813 302.315 448.762 300.552 448.762 300.552C448.762 300.552 453.369 294.136 461.813 301.066C462.488 301.618 463.083 302.263 463.578 302.982C469.411 311.289 464.715 329.587 464.715 329.587C464.715 329.587 463.54 336.243 461.493 343.587Z" fill="#FFB0B1"/>
<path opacity="0.1" d="M463.877 356.569L455.86 368.267L451.51 369.978C451.51 369.978 444.514 367.587 445.792 366.903C446.113 366.736 446.613 365.846 447.185 364.619C450.147 364.593 451.681 367.416 451.681 367.416L455.433 366.817C455.433 366.817 460.382 357.082 461.493 356.487C462.604 355.893 461.664 352.043 461.664 352.043V351.064C461.694 351.098 461.719 351.136 461.753 351.171V351.196C462.751 352.712 463.445 354.407 463.796 356.188L463.877 356.569Z" fill="black"/>
<path d="M451.937 367.668C451.937 367.668 449.801 363.742 445.707 365.192C445.707 365.192 443.403 369.897 441.1 370.658C438.796 371.42 439.566 373.986 444.771 373.049C449.976 372.113 457.822 371.338 457.822 371.338L458.164 366.552L463.454 359.807C463.454 359.807 466.608 356.945 461.916 351.312V352.291C461.916 352.291 462.856 356.141 461.745 356.735C460.634 357.33 455.702 367.07 455.702 367.07L451.937 367.668Z" fill="#1D2366"/>
<path opacity="0.1" d="M420.455 298.243C420.529 299.536 420.697 300.823 420.959 302.092C416.147 301.386 411.681 301.737 408.754 301.968V298.157L420.455 298.243Z" fill="black"/>
<path opacity="0.1" d="M464.053 304.047C464.053 304.047 457.215 304.381 449.061 304.449C448.831 302.31 448.779 300.548 448.779 300.548C448.779 300.548 453.386 294.132 461.83 301.061C462.506 301.614 463.1 302.259 463.595 302.978C463.728 303.342 463.88 303.699 464.053 304.047V304.047Z" fill="black"/>
<path d="M464.053 303.277C464.053 303.277 434.104 304.727 424.976 302.165C415.848 299.603 406.801 301.823 405.438 301.228C404.075 300.634 405.182 291.322 406.378 289.016C407.575 286.711 414.139 263.395 414.139 263.395L420.455 230.434L427.109 228.599L427.579 228.466L439.173 225.267L447.668 222.918C447.668 222.918 464.561 288.931 463.112 293.798C462.586 295.662 462.501 297.623 462.865 299.526C463.086 300.825 463.486 302.087 464.053 303.277V303.277Z" fill="#1D2366"/>
<path d="M398.438 207.892C398.438 207.892 392.455 214.308 396.985 217.884C401.515 221.46 404.494 218.226 404.494 218.226L398.438 207.892Z" fill="#C7DAF5"/>
<path opacity="0.1" d="M398.438 207.892C398.438 207.892 392.455 214.308 396.985 217.884C401.515 221.46 404.494 218.226 404.494 218.226L398.438 207.892Z" fill="black"/>
<path d="M446.775 165.709C446.775 165.709 446.074 166.376 445.019 167.36C443.514 168.767 441.288 170.824 439.314 172.548C436.579 174.931 434.322 176.68 435.13 175.187C435.938 173.695 435.784 171.094 435.382 168.66C435.352 168.498 435.326 168.335 435.297 168.177C434.964 166.389 434.523 164.624 433.976 162.89C433.976 162.89 438.395 157.175 440.839 154.921C441.749 154.066 442.386 153.715 442.425 154.31C442.467 155.109 443.066 156.876 443.809 158.749C443.831 158.809 443.852 158.865 443.878 158.925C444.373 160.208 444.933 161.525 445.425 162.663C446.177 164.408 446.775 165.709 446.775 165.709Z" fill="#FFB0B1"/>
<path opacity="0.1" d="M443.878 158.925C443.462 161.16 442.455 163.243 440.96 164.956C439.466 166.668 437.539 167.948 435.382 168.66C435.042 166.708 434.573 164.78 433.976 162.89C433.976 162.89 442.296 152.132 442.425 154.31C442.455 155.135 443.104 156.966 443.878 158.925Z" fill="black"/>
<path opacity="0.1" d="M434.553 171.534L435.63 170.016C435.63 170.016 436.344 174.37 438.967 172.45C441.591 170.529 441.72 186.903 441.72 186.903L438.903 229.048L418.553 227.829L419.13 207.464L421.434 197.199L427.13 182.275L430.519 177.343L434.553 171.534Z" fill="black"/>
<path d="M441.719 187.164L439.155 225.271L438.886 229.309L427.54 228.629L427.113 228.603L418.566 228.09L419.143 207.721L421.446 197.455L427.143 182.532L430.532 177.6L434.566 171.77L435.643 170.256C435.643 170.256 436.356 174.61 438.98 172.689L439.036 172.651C441.6 171.025 441.719 187.164 441.719 187.164Z" fill="#1D2366"/>
<path d="M421.733 193.888C421.733 193.888 420.711 196.027 418.66 195.68C416.609 195.334 416.613 203.379 416.613 203.379C416.613 203.379 415.25 204.663 414.31 203.55C413.369 202.438 410.891 206.198 410.891 206.198L395.361 206.883C395.361 206.883 402.271 210.044 400.917 219.608C400.917 219.608 424.378 218.153 425.147 215.933C425.916 213.713 421.733 193.888 421.733 193.888Z" fill="white"/>
<path opacity="0.03" d="M421.733 193.888C421.733 193.888 420.711 196.027 418.66 195.68C416.609 195.334 416.613 203.379 416.613 203.379C416.613 203.379 415.25 204.663 414.31 203.55C413.369 202.438 410.891 206.198 410.891 206.198L395.361 206.883C395.361 206.883 402.271 210.044 400.917 219.608C400.917 219.608 424.378 218.153 425.147 215.933C425.916 213.713 421.733 193.888 421.733 193.888Z" fill="black"/>
<path d="M376.601 211.908L380.695 215.407L414.395 222.495L410.216 218.226L376.601 211.908Z" fill="white"/>
<path d="M434.617 172.882C434.057 173.737 432.455 178.117 431.117 181.941C430.002 185.128 429.07 187.93 429.07 187.93C429.07 187.93 426.895 202.105 425.784 204.667C424.673 207.229 425.275 217.221 425.275 217.221L421.134 241.897C421.134 241.897 419.258 254.622 416.361 262.223C413.502 269.704 410.318 273.212 410.22 273.323C411.502 271.586 418.489 237.393 418.489 237.393L420.797 194.269C420.797 194.269 421.134 190.171 421.476 186.668C421.818 183.165 428.741 178.383 428.741 178.383L435.416 168.883C436.087 169.781 435.638 171.346 434.617 172.882Z" fill="white"/>
<path d="M417.211 228.304C417.211 228.304 407.382 227.876 402.622 222.153C397.861 216.43 413.626 219.869 413.626 219.869L417.724 220.81L417.211 228.304Z" fill="#FFB0B1"/>
<path opacity="0.1" d="M463.112 293.803C462.586 295.667 462.501 297.628 462.865 299.53C452.142 300.291 440.673 297.391 440.673 297.391C438.536 299.359 432.908 302.259 432.908 302.259L429.839 264.191C427.878 259.058 427.109 232.166 427.109 232.166C427.109 232.166 427.284 230.759 427.536 228.65C427.536 228.599 427.536 228.543 427.557 228.492C428.322 222.602 429.839 211.545 430.583 210.052C431.609 207.999 427.429 202.537 427.429 202.537L429.331 186.304L429.562 184.345C433.57 182.553 436.643 176.83 436.643 176.83L439.002 172.694C441.566 171.047 441.698 187.185 441.698 187.185L439.134 225.292L447.63 222.944C447.63 222.944 464.561 288.935 463.112 293.803Z" fill="black"/>
<path d="M474.116 296.433C462.429 302.242 441.185 296.861 441.185 296.861C439.049 298.829 433.42 301.729 433.42 301.729L430.348 263.66C428.391 258.527 427.621 231.636 427.621 231.636C427.621 231.636 430.091 211.571 431.117 209.522C431.416 208.923 431.271 208.033 430.916 207.075C429.172 202.515 428.531 197.606 429.044 192.75L429.865 185.774L430.091 183.819C434.104 182.023 437.177 176.299 437.177 176.299L439.314 172.552L443.245 165.649L445.108 162.381L445.425 162.667L447.839 164.858C447.839 164.858 448.865 165.713 450.403 166.996C453.749 169.819 459.531 174.79 462.514 177.831C465.138 180.508 465.967 190.924 466.206 198.764C466.364 203.927 466.27 207.973 466.27 207.973C463.625 212.332 470.544 247.325 470.544 247.325C472.155 254.087 474.116 296.433 474.116 296.433Z" fill="white"/>
<path opacity="0.03" d="M451.681 176.214C451.681 176.214 443.66 191.497 444.591 197.306C445.523 203.114 448.172 209.688 446.895 211.224C446.456 211.806 445.888 212.278 445.237 212.604C444.585 212.93 443.867 213.1 443.138 213.102C441.856 213.187 438.438 215.578 438.438 215.835C438.438 216.092 435.279 216.092 432.455 217.289C429.63 218.487 425.459 219.167 425.459 219.167C425.459 219.167 417.34 218.91 416.583 219.68C415.827 220.45 415.049 225.057 416.669 228.731C418.288 232.406 420.087 235.147 421.446 235.648C422.805 236.148 431.429 233.257 438.425 232.572C445.42 231.888 453.014 226.34 453.014 226.34C453.014 226.34 461.377 223.346 462.843 218.312C464.309 213.277 461.053 185.607 461.053 185.607C461.053 185.607 458.591 172.711 451.681 176.214Z" fill="black"/>
<path opacity="0.03" d="M450.655 174.931C450.655 174.931 442.634 190.218 443.574 196.022C444.514 201.827 447.155 208.405 445.873 209.945C445.436 210.528 444.869 211 444.218 211.326C443.567 211.652 442.849 211.822 442.121 211.823C440.839 211.908 437.421 214.299 437.421 214.556C437.421 214.813 434.262 214.813 431.438 216.006C428.613 217.2 424.442 217.884 424.442 217.884C424.442 217.884 416.323 217.627 415.57 218.397C414.818 219.167 414.032 223.778 415.656 227.448C417.28 231.118 419.075 233.864 420.434 234.365C421.793 234.865 430.416 231.974 437.412 231.293C444.408 230.613 452.002 225.057 452.002 225.057C452.002 225.057 460.36 222.063 461.809 217.033C463.258 212.003 460.019 184.324 460.019 184.324C460.019 184.324 457.566 171.432 450.655 174.931Z" fill="black"/>
<path d="M451.429 175.444C451.429 175.444 443.407 190.731 444.348 196.536C445.288 202.34 447.929 208.919 446.651 210.454C446.214 211.038 445.647 211.512 444.995 211.838C444.343 212.165 443.624 212.336 442.895 212.336C441.613 212.422 438.194 214.813 438.194 215.065C438.194 215.317 435.04 215.322 432.211 216.519C429.382 217.717 425.215 218.397 425.215 218.397C425.215 218.397 417.096 218.141 416.339 218.91C415.583 219.68 414.805 224.291 416.425 227.961C418.045 231.631 419.844 234.377 421.203 234.878C422.562 235.378 431.185 232.487 438.181 231.802C445.177 231.118 452.771 225.57 452.771 225.57C452.771 225.57 461.134 222.576 462.6 217.542C464.065 212.507 460.83 184.837 460.83 184.837C460.83 184.837 458.335 171.962 451.429 175.444Z" fill="white"/>
<path opacity="0.1" d="M451.254 216.447C451.254 216.447 444.843 215.164 447.074 217.302C449.305 219.441 449.292 221.314 452.023 221.229C454.754 221.143 451.254 216.447 451.254 216.447Z" fill="black"/>
<path opacity="0.1" d="M462.087 262.463C462.087 262.463 459.189 264.426 464.732 268.951C470.275 273.477 462.087 262.463 462.087 262.463Z" fill="black"/>
<path opacity="0.1" d="M456.557 278.601C456.557 278.858 455.531 288.011 459.369 290.3C463.207 292.588 456.557 278.601 456.557 278.601Z" fill="black"/>
<path d="M395.626 206.861C392.532 206.968 385.848 207.913 389.314 214.385C392.378 220.112 397.528 216.284 400.425 213.38C399.718 210.672 398.001 208.339 395.626 206.861V206.861Z" fill="#FFB0B1"/>
<path d="M400.464 213.329L400.592 213.196L400.464 213.329Z" fill="#FFB0B1"/>
<path opacity="0.1" d="M450.403 167.257C447.121 169.503 444.369 171.398 443.831 171.791C442.361 172.882 439.557 179.285 437.75 182.553C436.309 185.184 431.63 185.859 429.865 186.026L430.091 184.071C434.104 182.275 437.177 176.552 437.177 176.552L445.108 162.633L447.839 165.118C447.839 165.118 448.865 165.974 450.403 167.257Z" fill="black"/>
<path d="M450.403 167C447.121 169.246 444.369 171.141 443.831 171.539C442.361 172.625 439.557 179.028 437.75 182.296C436.309 184.927 431.63 185.603 429.865 185.77L430.091 183.815C434.104 182.018 437.177 176.295 437.177 176.295L445.108 162.377L447.839 164.853C447.839 164.853 448.865 165.7 450.403 167Z" fill="#DCE7FF"/>
<path d="M444.087 156.102C444.089 158.669 443.311 161.177 441.856 163.292C440.138 165.793 437.582 167.594 434.65 168.37C431.719 169.145 428.607 168.843 425.879 167.518C423.151 166.193 420.988 163.934 419.782 161.149C418.576 158.365 418.408 155.24 419.307 152.342C420.206 149.443 422.114 146.964 424.683 145.353C427.253 143.742 430.314 143.106 433.312 143.561C436.309 144.016 439.045 145.531 441.022 147.832C442.999 150.133 444.086 153.067 444.087 156.102V156.102Z" fill="#FFB0B1"/>
<path opacity="0.1" d="M466.206 198.768C464.471 197.7 463.058 196.18 462.117 194.371C461.403 192.96 460.929 191.33 459.711 190.329C458.612 189.431 457.147 189.213 455.779 188.811C451.284 187.48 447.514 183.374 447.373 178.686C447.305 176.479 447.993 174.276 447.681 172.091C447.504 170.853 447.012 169.683 446.254 168.69C445.877 168.215 445.464 167.771 445.019 167.36C444.42 166.795 443.792 166.248 443.245 165.649C442.901 165.278 442.599 164.869 442.348 164.43C442.145 164.07 441.98 163.69 441.856 163.296C441.002 160.679 441.779 157.573 440.839 154.926L440.788 154.78C440.433 153.839 439.711 152.898 438.707 152.825C437.703 152.753 436.844 153.587 435.886 153.959C433.882 154.737 431.72 153.411 430.049 152.06C428.378 150.708 426.493 149.164 424.369 149.463C422.963 149.664 421.852 150.622 420.557 151.119C420.265 151.232 419.963 151.319 419.656 151.38C420.752 148.644 422.765 146.376 425.35 144.965C427.935 143.554 430.93 143.088 433.821 143.648C436.712 144.207 439.318 145.756 441.191 148.03C443.065 150.303 444.089 153.159 444.087 156.106C444.088 156.996 443.995 157.884 443.809 158.754C443.831 158.814 443.852 158.869 443.878 158.929C444.373 160.212 444.933 161.53 445.425 162.668L447.839 164.858C447.839 164.858 448.865 165.713 450.403 166.996C453.749 169.819 459.531 174.79 462.514 177.831C465.138 180.517 465.959 190.928 466.206 198.768Z" fill="black"/>
<path d="M420.408 143.304C421.019 142.059 421.322 140.665 422.053 139.484C423.126 137.773 424.998 136.678 426.921 136.015C431.942 134.283 442.553 131.768 445.724 136.015C446.348 136.871 446.865 137.82 447.728 138.411C448.386 138.86 449.181 139.052 449.903 139.39C451.925 140.34 453.215 142.41 453.903 144.523C454.591 146.636 454.796 148.903 455.301 151.08C455.946 153.873 457.078 156.521 458.207 159.152C459.536 162.257 460.946 165.478 463.51 167.672C467.01 170.666 467.783 174.905 471.031 178.19C474.877 182.091 474.753 188.528 472.77 193.64C472.51 194.311 472.215 195.013 472.318 195.727C472.42 196.442 472.95 197.092 473.45 197.661L475.552 200.034C470.578 201.236 464.95 198.636 462.634 194.072C461.92 192.66 461.446 191.035 460.224 190.03C459.13 189.132 457.66 188.918 456.296 188.516C451.801 187.181 448.031 183.07 447.89 178.383C447.822 176.18 448.51 173.977 448.198 171.795C448.025 170.55 447.531 169.371 446.767 168.373C445.591 166.838 443.818 165.807 442.861 164.096C441.241 161.235 442.472 157.518 441.305 154.446C440.946 153.505 440.228 152.564 439.224 152.492C438.22 152.419 437.361 153.253 436.399 153.625C434.399 154.404 432.237 153.082 430.566 151.726C428.895 150.37 427.01 148.83 424.882 149.134C423.476 149.331 422.369 150.289 421.075 150.789C420.117 151.157 418.177 151.486 417.34 150.678C415.57 149.048 419.669 144.827 420.408 143.304Z" fill="#591D4B"/>
<path opacity="0.1" d="M463.822 192.66C463.104 191.249 462.634 189.623 461.412 188.623C460.318 187.724 458.847 187.506 457.48 187.104C452.989 185.774 449.219 181.663 449.074 176.975C449.006 174.772 449.694 172.565 449.386 170.384C449.207 169.147 448.714 167.976 447.954 166.983C446.775 165.448 445.001 164.417 444.048 162.706C442.429 159.849 443.66 156.132 442.489 153.056C442.134 152.12 441.412 151.179 440.412 151.102C439.412 151.025 438.544 151.867 437.587 152.239C435.587 153.018 433.42 151.692 431.754 150.34C430.087 148.989 428.194 147.444 426.07 147.744C424.664 147.945 423.553 148.903 422.262 149.399C421.305 149.767 419.361 150.101 418.523 149.292C416.763 147.581 420.861 143.368 421.596 141.854C422.207 140.605 422.51 139.215 423.245 138.034C423.284 137.97 423.327 137.906 423.369 137.842C422.819 138.298 422.345 138.838 421.963 139.441C421.233 140.622 420.929 142.008 420.318 143.261C419.579 144.775 415.481 149.001 417.245 150.699C418.1 151.512 420.023 151.179 420.98 150.811C422.262 150.31 423.382 149.352 424.788 149.155C426.925 148.852 428.805 150.396 430.472 151.747C432.138 153.099 434.318 154.425 436.309 153.647C437.267 153.274 438.104 152.436 439.13 152.513C440.155 152.59 440.839 153.527 441.211 154.468C442.378 157.539 441.147 161.256 442.766 164.118C443.724 165.799 445.497 166.851 446.672 168.395C447.437 169.392 447.93 170.571 448.104 171.817C448.416 173.998 447.728 176.201 447.796 178.404C447.937 183.109 451.707 187.202 456.202 188.537C457.557 188.939 459.035 189.153 460.129 190.051C461.356 191.056 461.839 192.682 462.54 194.093C464.856 198.657 470.484 201.258 475.458 200.056L474.467 198.935C470.155 198.999 465.792 196.544 463.822 192.66Z" fill="black"/>
<path opacity="0.1" d="M434.361 173.138C433.801 173.994 432.198 178.374 430.861 182.198C429.609 181.71 428.472 178.601 428.472 178.601L435.147 169.096C435.831 170.037 435.382 171.599 434.361 173.138Z" fill="black"/>
<path d="M434.617 172.882C434.057 173.737 432.455 178.117 431.117 181.941C429.865 181.458 428.728 178.344 428.728 178.344L435.403 168.844C436.087 169.781 435.638 171.346 434.617 172.882Z" fill="#DCE7FF"/>
<path d="M395.806 216.579L392.105 204.898C392.061 204.761 392.045 204.617 392.057 204.474C392.069 204.331 392.109 204.191 392.175 204.064C392.24 203.936 392.331 203.823 392.441 203.73C392.55 203.638 392.677 203.568 392.814 203.525V203.525C393.09 203.439 393.388 203.465 393.644 203.598C393.9 203.731 394.093 203.96 394.182 204.235L397.882 215.903L397.515 218.346L395.806 216.579Z" fill="#BE8B87"/>
<path opacity="0.1" d="M392.455 203.871C392.731 203.784 393.031 203.81 393.288 203.943C393.545 204.076 393.739 204.305 393.827 204.581L397.528 216.25L397.25 218.081L397.519 218.363L397.887 215.921L394.165 204.252C394.076 203.977 393.883 203.748 393.627 203.615C393.371 203.482 393.073 203.456 392.797 203.542V203.542C392.565 203.617 392.365 203.768 392.229 203.97C392.301 203.931 392.377 203.898 392.455 203.871V203.871Z" fill="white"/>
<path d="M395.806 216.579L397.883 215.921L397.579 217.922L397.515 218.363L396.908 217.73L395.806 216.579Z" fill="#EFC8C4"/>
<path d="M396.908 217.73C396.944 217.684 396.989 217.646 397.041 217.619C397.071 217.6 397.106 217.59 397.141 217.59C397.177 217.59 397.211 217.6 397.242 217.619C397.271 217.654 397.295 217.693 397.314 217.734C397.342 217.781 397.381 217.822 397.427 217.852C397.473 217.882 397.525 217.902 397.579 217.91L397.515 218.337L396.908 217.73Z" fill="#727A9C"/>
<path d="M392.083 209.047C392.083 209.047 399.506 209.004 397.759 212.165C396.011 215.326 393.28 215.707 393.28 215.707L392.083 209.047Z" fill="#FFB0B1"/>
<path d="M334.63 184.466H334.407C325.517 184.466 317.655 189.164 313.133 196.097C308.61 189.164 300.748 184.466 291.858 184.466H291.635C284.963 184.53 278.587 187.22 273.89 191.953C269.194 196.686 266.557 203.078 266.553 209.742C266.553 218.016 270.182 229.757 277.258 239.418C290.738 257.826 313.133 273.932 313.133 273.932C313.133 273.932 335.527 257.829 349.005 239.418C356.083 229.757 359.709 218.016 359.709 209.742C359.705 203.079 357.069 196.687 352.373 191.954C347.677 187.221 341.301 184.53 334.63 184.466V184.466ZM331.434 240.834C330.421 240.83 329.434 240.521 328.6 239.946C327.767 239.372 327.128 238.559 326.765 237.615H321.45C321.1 237.613 320.76 237.501 320.476 237.297C320.193 237.092 319.98 236.804 319.868 236.472L318.236 231.56L313.07 249.588C312.969 249.935 312.759 250.24 312.47 250.457C312.181 250.674 311.829 250.792 311.467 250.793H311.363C310.986 250.774 310.626 250.627 310.344 250.376C310.062 250.125 309.875 249.785 309.814 249.412L304.49 217.433L300.599 236.356C300.51 236.716 300.303 237.035 300.011 237.263C299.719 237.491 299.358 237.615 298.988 237.615H291.501C291.277 237.624 291.052 237.588 290.842 237.509C290.632 237.43 290.44 237.309 290.278 237.154C290.116 236.999 289.987 236.812 289.899 236.606C289.811 236.399 289.765 236.177 289.765 235.953C289.765 235.729 289.811 235.507 289.899 235.3C289.987 235.094 290.116 234.908 290.278 234.752C290.44 234.597 290.632 234.476 290.842 234.397C291.052 234.318 291.277 234.282 291.501 234.291H297.677L303.188 208.849C303.279 208.473 303.497 208.14 303.806 207.907C304.115 207.674 304.496 207.555 304.883 207.571C305.27 207.587 305.639 207.737 305.928 207.995C306.217 208.253 306.407 208.604 306.465 208.986L311.902 241.608L316.532 225.478C316.628 225.139 316.832 224.839 317.113 224.625C317.394 224.41 317.736 224.292 318.09 224.288H318.123C318.473 224.288 318.814 224.399 319.098 224.604C319.381 224.809 319.592 225.098 319.702 225.431L322.654 234.3H326.7C326.987 233.427 327.511 232.651 328.212 232.057C328.914 231.462 329.766 231.073 330.676 230.932C331.585 230.791 332.515 230.903 333.364 231.257C334.213 231.61 334.948 232.192 335.488 232.936C336.027 233.68 336.35 234.559 336.421 235.475C336.492 236.391 336.308 237.309 335.889 238.127C335.471 238.946 334.834 239.633 334.049 240.112C333.265 240.592 332.363 240.846 331.443 240.846L331.434 240.834Z" fill="#A19BFD"/>
</g>
<path d="M451.019 124.515H337.573V53.4951H451.019V124.515Z" fill="white"/>
<path d="M451.019 124.515H337.573V53.4951H451.019V124.515ZM338.091 123.996H450.501V54.0135H338.091V123.996Z" fill="#3F3D56"/>
<path d="M497.136 82.0874H432.573V11.068H497.136V82.0874Z" fill="white"/>
<path d="M487.913 74.7087H475V75.6311H487.913V74.7087Z" fill="#3F3D56"/>
<path d="M487.913 76.5534H475V77.4757H487.913V76.5534Z" fill="#3F3D56"/>
<path d="M464.854 23.0583V28.8664C468.275 28.8664 471.618 29.8883 474.462 31.8029C477.306 33.7175 479.523 36.4388 480.832 39.6227C482.141 42.8065 482.483 46.31 481.816 49.69C481.149 53.07 479.502 56.1747 477.083 58.6115L481.159 62.7185C484.384 59.4693 486.58 55.3297 487.47 50.8231C488.359 46.3164 487.903 41.6452 486.158 37.4C484.412 33.1548 481.457 29.5264 477.665 26.9736C473.873 24.4208 469.415 23.0583 464.854 23.0583Z" fill="#E6E6E6"/>
<path d="M480.534 62.2726L476.558 58.1068C473.674 61.1291 469.842 62.9538 465.772 63.2429C461.702 63.532 457.67 62.2659 454.423 59.6792L451.02 64.371C455.35 67.8191 460.726 69.5065 466.152 69.1207C471.579 68.7349 476.688 66.302 480.534 62.2726Z" fill="#575A89"/>
<path d="M447.561 46.1659C447.561 43.89 448.008 41.6364 448.877 39.5337C449.746 37.431 451.02 35.5205 452.626 33.9112C454.232 32.3019 456.138 31.0253 458.236 30.1544C460.335 29.2834 462.583 28.8352 464.854 28.8352V23.0583C460.027 23.0582 455.322 24.5762 451.402 27.3984C447.481 30.2206 444.544 34.2045 443.003 38.7887C441.462 43.3729 441.395 48.3262 442.812 52.9503C444.23 57.5744 447.059 61.6362 450.902 64.5631L454.391 59.9624C452.267 58.3476 450.545 56.2615 449.36 53.8679C448.175 51.4742 447.559 48.838 447.561 46.1659V46.1659Z" fill="#6C63FF"/>
<path d="M497.136 82.0874H432.573V11.068H497.136V82.0874ZM433.089 81.569H496.619V11.5863H433.089V81.569Z" fill="#3F3D56"/>
<path d="M435.084 109.757H353.508C353.44 109.757 353.375 109.73 353.327 109.682C353.279 109.634 353.252 109.569 353.252 109.502V70.3527C353.252 70.2849 353.279 70.2199 353.327 70.1719C353.375 70.124 353.44 70.0971 353.508 70.0971C353.575 70.0971 353.64 70.124 353.688 70.1719C353.736 70.2199 353.763 70.2849 353.763 70.3527V109.246H435.084C435.117 109.246 435.151 109.252 435.182 109.265C435.213 109.278 435.241 109.297 435.265 109.321C435.289 109.344 435.307 109.373 435.32 109.404C435.333 109.435 435.34 109.468 435.34 109.502C435.34 109.535 435.333 109.569 435.32 109.6C435.307 109.631 435.289 109.659 435.265 109.683C435.241 109.706 435.213 109.725 435.182 109.738C435.151 109.751 435.117 109.757 435.084 109.757V109.757Z" fill="#3F3D56"/>
<path d="M370.917 106.99H363.258C363.051 106.99 362.852 106.908 362.705 106.763C362.559 106.618 362.476 106.422 362.476 106.217V95.7737C362.476 95.5686 362.559 95.3719 362.705 95.2269C362.852 95.0818 363.051 95.0002 363.258 95H370.917C371.124 95.0002 371.323 95.0818 371.47 95.2269C371.616 95.3719 371.699 95.5686 371.699 95.7737V106.217C371.699 106.422 371.616 106.618 371.47 106.763C371.323 106.908 371.124 106.99 370.917 106.99V106.99Z" fill="#6C63FF"/>
<path d="M384.752 106.99H377.093C376.886 106.99 376.687 106.908 376.54 106.761C376.394 106.614 376.311 106.415 376.311 106.208V85.6366C376.311 85.4292 376.394 85.2304 376.54 85.0837C376.687 84.9371 376.886 84.8546 377.093 84.8544H384.752C384.959 84.8546 385.158 84.9371 385.305 85.0837C385.451 85.2304 385.534 85.4292 385.534 85.6366V106.208C385.534 106.415 385.451 106.614 385.305 106.761C385.158 106.908 384.959 106.99 384.752 106.99V106.99Z" fill="#6C63FF"/>
<path d="M397.742 106.99H390.85C390.663 106.99 390.484 106.908 390.352 106.763C390.22 106.618 390.146 106.422 390.146 106.217V95.7737C390.146 95.5686 390.22 95.3719 390.352 95.2269C390.484 95.0818 390.663 95.0002 390.85 95H397.742C397.929 95.0002 398.108 95.0818 398.24 95.2269C398.372 95.3719 398.446 95.5686 398.446 95.7737V106.217C398.446 106.422 398.372 106.618 398.24 106.763C398.108 106.908 397.929 106.99 397.742 106.99V106.99Z" fill="#6C63FF"/>
<path d="M411.499 106.99H403.841C403.638 106.994 403.442 106.919 403.295 106.78C403.149 106.642 403.063 106.451 403.058 106.251V81.9044C403.063 81.7038 403.149 81.5134 403.295 81.3748C403.442 81.2363 403.638 81.1609 403.841 81.1652H411.499C411.702 81.1609 411.898 81.2363 412.045 81.3748C412.191 81.5134 412.277 81.7038 412.282 81.9044V106.251C412.277 106.451 412.191 106.642 412.045 106.78C411.898 106.919 411.702 106.994 411.499 106.99V106.99Z" fill="#6C63FF"/>
<path d="M425.334 106.99H417.676C417.468 106.99 417.269 106.91 417.123 106.767C416.976 106.625 416.894 106.431 416.893 106.23V75.4692C416.894 75.2676 416.976 75.0743 417.123 74.9317C417.269 74.7892 417.468 74.709 417.676 74.7087H425.334C425.542 74.709 425.741 74.7892 425.887 74.9317C426.034 75.0743 426.116 75.2676 426.117 75.4692V106.23C426.116 106.431 426.034 106.625 425.887 106.767C425.741 106.91 425.542 106.99 425.334 106.99V106.99Z" fill="#6C63FF"/>
<path d="M367.087 92.233C368.106 92.233 368.932 91.4071 368.932 90.3884C368.932 89.3696 368.106 88.5437 367.087 88.5437C366.069 88.5437 365.243 89.3696 365.243 90.3884C365.243 91.4071 366.069 92.233 367.087 92.233Z" fill="#3F3D56"/>
<path d="M380.461 82.0874C381.225 82.0874 381.845 81.468 381.845 80.7039C381.845 79.9398 381.225 79.3204 380.461 79.3204C379.697 79.3204 379.078 79.9398 379.078 80.7039C379.078 81.468 379.697 82.0874 380.461 82.0874Z" fill="#3F3D56"/>
<path d="M394.296 92.233C395.06 92.233 395.68 91.4071 395.68 90.3884C395.68 89.3696 395.06 88.5437 394.296 88.5437C393.532 88.5437 392.913 89.3696 392.913 90.3884C392.913 91.4071 393.532 92.233 394.296 92.233Z" fill="#3F3D56"/>
<path d="M408.131 77.4757C408.895 77.4757 409.515 76.6498 409.515 75.6311C409.515 74.6123 408.895 73.7864 408.131 73.7864C407.367 73.7864 406.748 74.6123 406.748 75.6311C406.748 76.6498 407.367 77.4757 408.131 77.4757Z" fill="#3F3D56"/>
<path d="M421.505 71.0194C422.524 71.0194 423.349 70.4 423.349 69.6359C423.349 68.8719 422.524 68.2524 421.505 68.2524C420.486 68.2524 419.66 68.8719 419.66 69.6359C419.66 70.4 420.486 71.0194 421.505 71.0194Z" fill="#3F3D56"/>
<path d="M394.357 90.3883L380.783 80.4966L367.394 90.2532L367.087 89.8552L380.783 79.8753L394.293 89.72L407.718 75.427L407.772 75.4056L421.314 70.0971L421.505 70.5585L408.016 75.8457L394.357 90.3883Z" fill="#3F3D56"/>
<path d="M254.443 87.2732H20.5387C19.0909 87.2716 17.7029 86.6957 16.6792 85.672C15.6555 84.6483 15.0797 83.2603 15.078 81.8126V33.3722C15.0797 31.9244 15.6555 30.5365 16.6792 29.5128C17.7029 28.4891 19.0909 27.9132 20.5387 27.9115H254.443C255.891 27.9132 257.279 28.4891 258.303 29.5128C259.326 30.5365 259.902 31.9244 259.904 33.3722V81.8126C259.902 83.2603 259.326 84.6483 258.303 85.672C257.279 86.6957 255.891 87.2716 254.443 87.2732Z" fill="#E6E6E6"/>
<path d="M238.656 83.5899H24.2229C22.7751 83.5883 21.3872 83.0124 20.3634 81.9887C19.3397 80.965 18.7639 79.577 18.7622 78.1293V37.0584C18.7639 35.6107 19.3397 34.2227 20.3634 33.199C21.3872 32.1753 22.7751 31.5994 24.2229 31.5977H250.76C252.208 31.5994 253.596 32.1753 254.619 33.199C255.643 34.2227 256.219 35.6107 256.221 37.0584V66.0255C256.215 70.6823 254.363 75.1468 251.07 78.4396C247.777 81.7325 243.313 83.5847 238.656 83.5899V83.5899Z" fill="white"/>
<path d="M210.377 50.2171H145.072C144.698 50.2171 144.34 50.0687 144.076 49.8046C143.812 49.5405 143.663 49.1823 143.663 48.8088C143.663 48.4353 143.812 48.0771 144.076 47.813C144.34 47.5489 144.698 47.4005 145.072 47.4005H210.377C210.75 47.4005 211.109 47.5489 211.373 47.813C211.637 48.0771 211.785 48.4353 211.785 48.8088C211.785 49.1823 211.637 49.5405 211.373 49.8046C211.109 50.0687 210.75 50.2171 210.377 50.2171V50.2171Z" fill="#A09BFD"/>
<path d="M226.906 58.5763H128.542C128.169 58.5763 127.811 58.4279 127.546 58.1638C127.282 57.8997 127.134 57.5415 127.134 57.168C127.134 56.7945 127.282 56.4363 127.546 56.1722C127.811 55.908 128.169 55.7597 128.542 55.7597H226.906C227.28 55.7597 227.638 55.908 227.902 56.1722C228.166 56.4363 228.314 56.7945 228.314 57.168C228.314 57.5415 228.166 57.8997 227.902 58.1638C227.638 58.4279 227.28 58.5763 226.906 58.5763V58.5763Z" fill="#E6E6E6"/>
<path d="M226.906 67.7873H128.542C128.169 67.7873 127.811 67.6389 127.546 67.3748C127.282 67.1107 127.134 66.7525 127.134 66.379C127.134 66.0055 127.282 65.6472 127.546 65.3831C127.811 65.119 128.169 64.9706 128.542 64.9706H226.906C227.28 64.9706 227.638 65.119 227.902 65.3831C228.166 65.6472 228.314 66.0055 228.314 66.379C228.314 66.7525 228.166 67.1107 227.902 67.3748C227.638 67.6389 227.28 67.7873 226.906 67.7873V67.7873Z" fill="#E6E6E6"/>
<path d="M144.203 35.99H143.401V5.07626H201.445V5.87877H144.203V35.99Z" fill="#CDCDD1"/>
<path d="M225.991 0H204.724C203.341 0 202.014 0.549573 201.036 1.52782C200.058 2.50606 199.508 3.83284 199.508 5.21629C199.508 6.59973 200.058 7.92651 201.036 8.90475C202.014 9.883 203.341 10.4326 204.724 10.4326H225.991C227.374 10.4326 228.701 9.883 229.679 8.90475C230.657 7.92651 231.207 6.59973 231.207 5.21629C231.207 3.83284 230.657 2.50606 229.679 1.52782C228.701 0.549573 227.374 0 225.991 0V0Z" fill="#A09BFD"/>
<path d="M143.337 41.2409C145.984 41.2409 148.13 39.0948 148.13 36.4476C148.13 33.8003 145.984 31.6542 143.337 31.6542C140.689 31.6542 138.543 33.8003 138.543 36.4476C138.543 39.0948 140.689 41.2409 143.337 41.2409Z" fill="#E6E6E6"/>
<path d="M173.094 79.5709H172.291V110.485H230.335V109.682H173.094V79.5709Z" fill="#CDCDD1"/>
<path d="M260.097 110.344C260.096 108.961 259.546 107.635 258.568 106.657C257.59 105.68 256.264 105.13 254.881 105.128H233.614C232.231 105.128 230.904 105.678 229.926 106.656C228.948 107.634 228.398 108.961 228.398 110.344C228.398 111.728 228.948 113.055 229.926 114.033C230.904 115.011 232.231 115.561 233.614 115.561H254.881C256.264 115.559 257.59 115.009 258.568 114.032C259.546 113.054 260.096 111.728 260.097 110.344V110.344Z" fill="#A09BFD"/>
<path d="M173.029 82.5699C175.677 82.5699 177.823 80.4239 177.823 77.7766C177.823 75.1293 175.677 72.9833 173.029 72.9833C170.382 72.9833 168.236 75.1293 168.236 77.7766C168.236 80.4239 170.382 82.5699 173.029 82.5699Z" fill="#E6E6E6"/>
<path d="M87.0037 79.9721H87.8062V110.886H29.7622V110.083H87.0037V79.9721Z" fill="#CDCDD1"/>
<path d="M5.21629 115.962H26.4827C27.8661 115.962 29.1929 115.412 30.1711 114.434C31.1494 113.456 31.699 112.129 31.699 110.746C31.699 109.362 31.1494 108.036 30.1711 107.057C29.1929 106.079 27.8661 105.529 26.4827 105.529H5.21629C3.83284 105.529 2.50606 106.079 1.52782 107.057C0.549573 108.036 0 109.362 0 110.746C0 112.129 0.549573 113.456 1.52782 114.434C2.50606 115.412 3.83284 115.962 5.21629 115.962Z" fill="#A09BFD"/>
<path d="M87.9637 82.3016C90.611 82.3016 92.7571 80.1555 92.7571 77.5082C92.7571 74.8609 90.611 72.7149 87.9637 72.7149C85.3165 72.7149 83.1704 74.8609 83.1704 77.5082C83.1704 80.1555 85.3165 82.3016 87.9637 82.3016Z" fill="#E6E6E6"/>
<path d="M41.7729 71.9633C49.7507 71.9633 56.218 65.496 56.218 57.5182C56.218 49.5404 49.7507 43.0731 41.7729 43.0731C33.795 43.0731 27.3278 49.5404 27.3278 57.5182C27.3278 65.496 33.795 71.9633 41.7729 71.9633Z" fill="#F2F2F2"/>
<path d="M96.5041 50.1414H86.973C86.5995 50.1414 86.2413 49.993 85.9772 49.7289C85.7131 49.4648 85.5647 49.1066 85.5647 48.7331C85.5647 48.3596 85.7131 48.0014 85.9772 47.7372C86.2413 47.4731 86.5995 47.3248 86.973 47.3248H96.5041C96.8776 47.3248 97.2358 47.4731 97.4999 47.7372C97.764 48.0014 97.9124 48.3596 97.9124 48.7331C97.9124 49.1066 97.764 49.4648 97.4999 49.7289C97.2358 49.993 96.8776 50.1414 96.5041 50.1414Z" fill="#A09BFD"/>
<path d="M113.033 58.5006H70.4437C70.0702 58.5006 69.712 58.3522 69.4479 58.0881C69.1838 57.824 69.0354 57.4658 69.0354 57.0923C69.0354 56.7188 69.1838 56.3606 69.4479 56.0965C69.712 55.8324 70.0702 55.684 70.4437 55.684H113.033C113.407 55.684 113.765 55.8324 114.029 56.0965C114.293 56.3606 114.442 56.7188 114.442 57.0923C114.442 57.4658 114.293 57.824 114.029 58.0881C113.765 58.3522 113.407 58.5006 113.033 58.5006V58.5006Z" fill="#E6E6E6"/>
<path d="M113.033 67.7115H70.4437C70.0702 67.7115 69.712 67.5632 69.4479 67.2991C69.1838 67.0349 69.0354 66.6767 69.0354 66.3032C69.0354 65.9297 69.1838 65.5715 69.4479 65.3074C69.712 65.0433 70.0702 64.8949 70.4437 64.8949H113.033C113.407 64.8949 113.765 65.0433 114.029 65.3074C114.293 65.5715 114.442 65.9297 114.442 66.3032C114.442 66.6767 114.293 67.0349 114.029 67.2991C113.765 67.5632 113.407 67.7115 113.033 67.7115V67.7115Z" fill="#E6E6E6"/>
<defs>
<linearGradient id="paint0_linear_21_301" x1="196.548" y1="376.634" x2="196.548" y2="113.431" gradientUnits="userSpaceOnUse">
<stop stop-color="#808080" stop-opacity="0.25"/>
<stop offset="0.54" stop-color="#808080" stop-opacity="0.12"/>
<stop offset="1" stop-color="#808080" stop-opacity="0.1"/>
</linearGradient>
<linearGradient id="paint1_linear_21_301" x1="426.074" y1="373.306" x2="426.074" y2="132.918" gradientUnits="userSpaceOnUse">
<stop stop-color="#808080" stop-opacity="0.25"/>
<stop offset="0.54" stop-color="#808080" stop-opacity="0.12"/>
<stop offset="1" stop-color="#808080" stop-opacity="0.1"/>
</linearGradient>
<clipPath id="clip0_21_301">
<rect width="472.233" height="334.806" fill="white" transform="translate(44.2719 45.1942)"/>
</clipPath>
</defs>
</svg>
