<svg width="635" height="370" viewBox="0 0 635 370" fill="none" xmlns="http://www.w3.org/2000/svg">
<g clip-path="url(#clip0_142_820)">
<path d="M205.081 360.741C304.697 360.741 385.453 279.986 385.453 180.37C385.453 80.7545 304.697 0 205.081 0C105.464 0 24.709 80.7545 24.709 180.37C24.709 279.986 105.464 360.741 205.081 360.741Z" fill="#F2F2F2"/>
<path d="M635 319.966C634.999 320.405 634.964 320.843 634.895 321.276C630.485 348.306 490.068 370 317.5 370C144.932 370 4.51542 348.306 0.105009 321.276C0.036063 320.843 0.000954719 320.405 0 319.966C0 319.843 -2.07332e-06 319.713 0.012352 319.59C0.012352 319.522 0.0185304 319.46 0.0185304 319.392C0.0236326 319.368 0.0257086 319.343 0.0247087 319.318C0.0494169 319.04 0.0864794 318.774 0.135896 318.502C2.14961 307.452 26.9134 297.297 67.3051 289.162C100.34 282.509 143.832 277.203 193.891 273.868C231.88 271.335 273.649 269.933 317.5 269.933C352.783 269.933 386.72 270.841 418.421 272.509H418.433C425.067 272.861 431.602 273.246 438.039 273.664C482.1 276.517 521.2 280.885 552.703 286.351C572.081 289.718 588.592 293.504 601.619 297.606H601.625C621.676 303.925 633.499 311.01 634.864 318.502C634.914 318.774 634.951 319.04 634.975 319.318C634.974 319.343 634.976 319.368 634.981 319.392C634.981 319.46 634.988 319.522 634.988 319.59C635 319.713 635 319.843 635 319.966Z" fill="#3F3D56"/>
<path opacity="0.1" d="M309.47 368.147C365.759 368.147 411.391 361.51 411.391 353.322C411.391 345.135 365.759 338.497 309.47 338.497C253.18 338.497 207.549 345.135 207.549 353.322C207.549 361.51 253.18 368.147 309.47 368.147Z" fill="black"/>
<path opacity="0.1" d="M601.619 297.606C598.055 298.625 594.04 299.57 589.636 300.435C571.5 304.005 546.755 306.198 519.508 306.198C489.067 306.198 461.783 303.461 443.295 299.131C427.952 295.536 418.661 290.86 418.661 285.727C418.661 281.218 425.851 277.043 438.039 273.664C482.1 276.517 521.2 280.885 552.703 286.351C572.081 289.718 588.592 293.504 601.619 297.606Z" fill="black"/>
<path opacity="0.1" d="M328.619 290.78C328.619 300.126 269.986 307.705 197.665 307.705C125.345 307.705 66.7122 300.126 66.7122 290.78C66.7277 290.19 66.936 289.622 67.3052 289.162C100.34 282.509 143.833 277.203 193.891 273.868C195.145 273.861 196.403 273.859 197.665 273.861C269.986 273.861 328.619 281.434 328.619 290.78Z" fill="black"/>
<path d="M283.006 206.914H257.257V290.046H283.006V206.914Z" fill="#A19BFD"/>
<path d="M198.401 167.922H172.652V290.046H198.401V167.922Z" fill="#A19BFD"/>
<path d="M114.532 167.922H88.783V290.046H114.532V167.922Z" fill="#A19BFD"/>
<path d="M156.467 167.922H130.717V251.055H156.467V167.922Z" fill="#A19BFD"/>
<path d="M240.336 167.922H214.586V192.2H240.336V167.922Z" fill="#A19BFD"/>
<path d="M240.336 206.914H214.586V290.046H240.336V206.914Z" fill="#8A8B8C"/>
<path d="M324.94 167.922H257.257V192.2H324.94V167.922Z" fill="#A19BFD"/>
<path d="M503.467 160.62C521.071 160.62 536.055 166.763 548.42 179.051C554.243 184.829 558.831 191.73 561.905 199.336C568.032 214.895 568.053 232.195 561.964 247.769C558.937 255.286 554.362 262.083 548.536 267.717C542.546 273.684 535.444 278.418 527.632 281.653C519.978 284.847 511.765 286.489 503.471 286.485C495.271 286.509 487.149 284.885 479.59 281.708C464.19 275.152 451.926 262.889 445.369 247.489C439.057 232.133 439.077 214.902 445.424 199.56C448.64 191.834 453.357 184.825 459.303 178.937C471.29 166.728 486.012 160.622 503.467 160.62ZM503.695 171.971C489.311 171.971 477.211 176.991 467.394 187.03C462.554 191.894 458.683 197.633 455.987 203.943C453.354 210.126 451.997 216.777 451.997 223.497C451.997 230.217 453.354 236.868 455.987 243.051C461.416 255.658 471.501 265.684 484.141 271.038C490.352 273.607 497.009 274.924 503.73 274.915C510.452 274.905 517.105 273.569 523.309 270.983C529.691 268.324 535.507 264.472 540.445 259.634C550.259 250.044 555.165 238.019 555.164 223.557C555.2 216.777 553.901 210.057 551.342 203.778C548.787 197.545 545.005 191.889 540.223 187.144C530.102 177.03 517.926 171.972 503.695 171.971ZM502.907 213.104L494.475 217.488C493.795 215.871 492.639 214.499 491.162 213.555C490.062 212.869 488.802 212.482 487.508 212.432C481.891 212.432 479.081 216.14 479.078 223.557C479.078 226.928 479.79 229.624 481.212 231.646C482.636 233.67 484.735 234.682 487.508 234.683C491.179 234.683 493.765 232.884 495.264 229.288L503.017 233.221C501.434 236.226 499.056 238.737 496.143 240.481C493.229 242.226 489.892 243.136 486.497 243.112C480.878 243.112 476.345 241.388 472.897 237.941C469.451 234.496 467.729 229.702 467.729 223.559C467.729 217.565 469.47 212.807 472.954 209.287C476.437 205.767 480.839 204.006 486.16 204.004C493.954 204 499.536 207.034 502.907 213.104ZM539.206 213.104L530.889 217.488C530.208 215.871 529.052 214.499 527.573 213.555C526.437 212.859 525.14 212.472 523.809 212.432C518.19 212.432 515.379 216.14 515.377 223.557C515.377 226.928 516.089 229.624 517.513 231.646C518.935 233.67 521.034 234.682 523.809 234.683C527.477 234.683 530.06 232.884 531.559 229.288L539.426 233.221C537.785 236.21 535.382 238.711 532.462 240.47C529.585 242.22 526.277 243.134 522.91 243.112C517.214 243.112 512.664 241.388 509.259 237.941C505.845 234.496 504.139 229.702 504.142 223.559C504.142 217.565 505.884 212.807 509.369 209.287C512.85 205.767 517.251 204.006 522.572 204.004C530.364 204 535.908 207.034 539.206 213.104Z" fill="#A19BFD"/>
<path opacity="0.1" d="M465.389 315.234C465.389 345.339 423.426 336.027 372.046 336.027C320.666 336.027 279.326 345.339 279.326 315.234C279.326 285.129 321.284 278.581 372.663 278.581C424.043 278.581 465.389 285.129 465.389 315.234Z" fill="black"/>
<path d="M465.389 307.821C465.389 337.926 423.426 328.615 372.046 328.615C320.666 328.615 279.326 337.926 279.326 307.821C279.326 277.716 321.284 271.169 372.663 271.169C424.043 271.169 465.389 277.716 465.389 307.821Z" fill="#3F3D56"/>
<path d="M456.818 253.777L458.939 262.525C458.963 262.623 458.959 262.725 458.928 262.821L449.307 292.886C449.269 293.005 449.191 293.108 449.087 293.176C448.982 293.245 448.858 293.276 448.733 293.263C448.609 293.251 448.492 293.197 448.403 293.109C448.314 293.021 448.258 292.906 448.244 292.781L446.913 281.069C446.904 280.991 446.912 280.912 446.936 280.838L455.767 253.736C455.804 253.623 455.877 253.525 455.975 253.457C456.072 253.389 456.189 253.355 456.308 253.359C456.427 253.364 456.541 253.407 456.633 253.482C456.725 253.558 456.79 253.661 456.818 253.777Z" fill="#2F2E41"/>
<path d="M456.037 254.515L457.996 262.022L449.51 289.436L447.552 280.951L456.037 254.515Z" fill="#F2F2F2"/>
<path d="M413.284 295.311C413.61 296.29 447.226 294.985 447.552 294.658C447.837 294.25 448.077 293.812 448.27 293.353C448.577 292.7 448.858 292.047 448.858 292.047L447.552 281.48L414.263 280.298C414.263 280.298 413.43 289.254 413.261 293.353C413.203 294.005 413.211 294.661 413.284 295.311Z" fill="#2F2E41"/>
<path opacity="0.1" d="M443.31 282.909L443.962 292.047H429.275V282.909H443.31Z" fill="black"/>
<path opacity="0.1" d="M424.38 285.846L424.468 285.829L424.054 289.763H415.895V285.846H424.38Z" fill="black"/>
<path opacity="0.1" d="M413.284 295.311C413.61 296.29 447.226 294.985 447.552 294.658C447.837 294.25 448.077 293.812 448.27 293.353H413.261C413.203 294.005 413.211 294.661 413.284 295.311Z" fill="black"/>
<path d="M361.391 261.043H370.529L393.049 252.231C393.049 252.231 409.041 245.704 407.735 258.105C406.43 270.507 404.145 287.152 404.145 287.152C404.145 287.152 396.965 283.888 393.049 284.867C389.132 285.846 391.743 264.959 391.743 264.959C391.743 264.959 359.759 280.298 356.822 278.34C353.885 276.382 353.232 262.675 353.232 262.675L361.391 261.043Z" fill="#2F2E41"/>
<path opacity="0.1" d="M361.391 261.043H370.529L393.049 252.231C393.049 252.231 409.041 245.704 407.735 258.105C406.43 270.507 404.145 287.152 404.145 287.152C404.145 287.152 396.965 283.888 393.049 284.867C389.132 285.846 391.743 264.959 391.743 264.959C391.743 264.959 359.759 280.298 356.822 278.34C353.885 276.382 353.232 262.675 353.232 262.675L361.391 261.043Z" fill="black"/>
<path d="M375.789 232.425L386.848 248.314L412.631 269.855C412.631 269.855 436.456 275.403 433.192 279.319C429.928 283.236 410.02 275.403 410.02 275.403C410.02 275.403 380.321 253.863 379.342 252.231C378.362 250.599 367.592 235.26 367.592 235.26L375.789 232.425Z" fill="#A0616A"/>
<path opacity="0.1" d="M375.789 232.425L386.848 248.314L412.631 269.855C412.631 269.855 436.456 275.403 433.192 279.319C429.928 283.236 410.02 275.403 410.02 275.403C410.02 275.403 380.321 253.863 379.342 252.231C378.362 250.599 367.592 235.26 367.592 235.26L375.789 232.425Z" fill="black"/>
<path d="M374.12 215.025C382.231 215.025 388.806 208.45 388.806 200.339C388.806 192.228 382.231 185.653 374.12 185.653C366.008 185.653 359.433 192.228 359.433 200.339C359.433 208.45 366.008 215.025 374.12 215.025Z" fill="#A0616A"/>
<path d="M373.14 213.394C373.14 213.394 368.245 221.879 367.266 226.448C366.287 231.017 352.579 217.31 352.579 217.31L350.784 212.578C350.784 212.578 363.676 206.54 362.697 201.644C361.718 196.749 373.14 213.394 373.14 213.394Z" fill="#A0616A"/>
<path d="M369.224 219.594L376.404 233.628C376.404 233.628 374.772 240.482 372.161 241.134C369.55 241.787 358.454 232.649 358.454 232.649L369.224 219.594Z" fill="#D0CDE1"/>
<path d="M375.751 238.85L389.132 256.474L421.116 280.298C421.116 280.298 444.288 285.194 439.067 288.784C433.845 292.374 418.832 285.52 418.832 285.52C418.832 285.52 386.521 268.223 379.668 261.043C372.814 253.863 360.086 241.787 360.086 241.787L375.751 238.85Z" fill="#A0616A"/>
<path d="M357.801 266.265L361.717 272.465L385.091 265.112C387.623 264.294 390.303 264.035 392.944 264.354C395.586 264.672 398.127 265.561 400.392 266.958C404.472 269.528 407.083 273.608 401.208 279.646C389.459 291.721 381.626 285.194 381.626 285.194C381.626 285.194 342.135 303.796 335.608 294.658C329.081 285.52 328.754 280.951 328.754 280.951C328.754 280.951 353.885 265.285 357.801 266.265Z" fill="#2F2E41"/>
<path d="M406.756 287.805C406.756 287.805 417.2 294.658 404.798 297.922C392.396 301.186 383.258 296.616 383.258 296.616C383.258 296.616 372.488 296.616 372.488 291.068C372.488 285.52 376.078 284.867 376.078 284.867L387.174 286.499C387.174 286.499 400.555 282.909 406.756 287.805Z" fill="#D0CDE1"/>
<path d="M386.168 196.644C387.133 197.164 388.17 197.535 389.245 197.747C389.785 197.844 390.342 197.78 390.847 197.564C391.351 197.348 391.781 196.989 392.084 196.531C392.324 195.988 392.434 195.397 392.406 194.804C392.446 193.012 392.316 191.075 391.18 189.688C390.457 188.805 389.402 188.249 388.654 187.387C388.151 186.742 387.723 186.042 387.377 185.301C385.922 182.568 383.768 179.942 380.774 179.154C379.508 178.882 378.212 178.783 376.919 178.859L369.38 178.966C368.158 178.926 366.937 179.058 365.752 179.356C363.326 180.09 361.559 182.131 359.94 184.082C358.684 185.505 357.568 187.046 356.607 188.683C355.304 191.113 354.645 193.835 354.693 196.592C354.683 197.299 354.775 198.004 354.964 198.685C355.187 199.309 355.462 199.914 355.787 200.492C357.201 203.269 358.041 206.738 356.448 209.417C359.214 208.287 361.951 206.805 363.776 204.439C364.592 203.381 365.232 202.141 366.32 201.365C367.408 200.588 369.181 200.521 369.879 201.661C370.119 202.122 370.242 202.635 370.239 203.154C370.217 204.013 370.357 204.868 370.651 205.675C370.809 206.075 371.098 206.408 371.471 206.621C371.844 206.834 372.279 206.914 372.703 206.846C374.124 206.446 373.988 204.265 375.082 203.275C375.914 202.522 377.196 202.666 378.264 202.324C378.876 202.092 379.433 201.734 379.899 201.275C380.366 200.816 380.732 200.264 380.973 199.656C381.378 198.749 381.372 196.376 382.137 195.885C383.096 195.269 385.278 196.248 386.168 196.644Z" fill="#2F2E41"/>
<path d="M349.618 211.029C350.279 210.853 350.975 210.855 351.634 211.035C353.73 211.597 358.426 213.086 359.433 215.352C360.738 218.289 365.308 222.858 365.308 222.858C365.308 222.858 371.509 229.059 370.203 233.302C368.898 237.545 364.002 242.44 364.002 242.44C364.002 242.44 365.308 262.675 358.78 267.896C352.253 273.118 349.642 269.528 349.642 274.424C349.642 279.319 329.407 294.658 325.491 285.194C325.491 285.194 327.449 267.57 326.796 261.369C326.153 255.258 327.095 217.127 349.618 211.029Z" fill="#D0CDE1"/>
<path d="M360.086 219.268C360.086 219.268 379.994 233.954 376.404 240.155C376.404 240.155 364.329 246.03 361.718 245.704C359.107 245.377 348.989 233.954 346.378 232.975C343.767 231.996 342.462 214.373 360.086 219.268Z" fill="#D0CDE1"/>
<path d="M305.029 232.429C301.933 233.474 299.128 235.92 298.494 239.126C298.2 240.612 298.38 242.157 298.132 243.652C297.559 247.118 294.838 249.765 292.328 252.224C289.819 254.683 287.227 257.54 287.044 261.049C286.843 264.891 289.63 268.49 289.148 272.307C288.587 276.742 283.904 279.615 282.746 283.932C281.973 286.815 282.92 289.92 284.479 292.466C287.449 297.316 292.526 300.609 297.933 302.374C303.34 304.139 309.098 304.511 314.785 304.57C321.71 304.643 329.229 304.049 334.432 299.478C337.404 296.844 339.27 293.184 339.657 289.232C340.151 283.938 337.942 278.467 339.466 273.373C340.425 270.168 342.83 267.24 342.471 263.913C342.12 260.66 339.279 258.354 337.33 255.726C335.51 253.272 334.406 250.375 333.324 247.518L329.621 237.744C328.893 235.822 328.094 233.801 326.471 232.54C323.434 230.179 318.551 230.643 315 231.13C311.705 231.582 308.197 231.359 305.029 232.429Z" fill="#2F2E41"/>
<path d="M306.189 260.901C306.189 260.901 307.83 266.236 295.519 272.392C283.207 278.548 296.75 285.114 296.75 285.114L311.113 288.397C311.113 288.397 325.887 286.345 327.528 283.883C329.17 281.42 332.043 273.213 331.222 271.982C330.608 271.105 329.921 270.281 329.17 269.519C329.17 269.519 319.321 267.878 319.731 263.364C320.142 258.849 306.189 260.901 306.189 260.901Z" fill="#FFB9B9"/>
<path opacity="0.1" d="M306.189 260.901C306.189 260.901 307.83 266.236 295.519 272.392C283.207 278.548 296.75 285.114 296.75 285.114L311.113 288.397C311.113 288.397 325.887 286.345 327.528 283.883C329.17 281.42 332.043 273.213 331.222 271.982C330.608 271.105 329.921 270.281 329.17 269.519C329.17 269.519 319.321 267.878 319.731 263.364C320.142 258.849 306.189 260.901 306.189 260.901Z" fill="black"/>
<path d="M314.191 269.314C321.444 269.314 327.323 263.435 327.323 256.182C327.323 248.929 321.444 243.05 314.191 243.05C306.938 243.05 301.059 248.929 301.059 256.182C301.059 263.435 306.938 269.314 314.191 269.314Z" fill="#FFB9B9"/>
<path d="M312.755 283.883C312.755 283.883 296.939 282.726 296.639 271.814C296.639 271.814 291.004 271.161 289.363 272.802C287.721 274.444 282.386 275.675 282.386 279.779C282.386 283.883 291.415 296.194 291.415 296.194C291.415 296.194 296.339 312.609 294.287 315.482C292.235 318.355 291.825 325.741 291.825 325.741C291.825 325.741 312.344 324.1 315.627 325.741C318.91 327.383 332.043 327.383 332.863 325.741C333.684 324.1 332.043 303.581 332.043 303.581C332.043 303.581 335.736 298.656 334.915 292.911L344.765 281.42C344.765 281.42 341.071 270.34 335.326 270.34C335.326 270.34 327.529 268.288 327.323 269.314C327.118 270.34 331.222 281.831 312.755 283.883Z" fill="#FF6584"/>
<path d="M275.82 319.996C275.82 319.996 279.514 325.741 288.953 326.973C298.391 328.204 300.033 324.921 299.212 324.1C298.391 323.279 288.542 319.586 288.542 319.586L282.797 315.072L275.82 319.996Z" fill="#FFB9B9"/>
<path d="M343.123 315.072L332.453 321.227C332.453 321.227 318.5 320.406 323.835 324.51C329.17 328.614 339.019 326.973 339.019 326.973L348.458 322.458L343.123 315.072Z" fill="#FFB9B9"/>
<path d="M289.773 325.741C289.773 325.741 279.924 349.954 291.825 353.647C303.726 357.341 336.557 356.52 343.944 351.595C351.331 346.671 353.383 340.105 352.152 338.053C350.92 336.001 342.713 330.256 336.967 329.845C331.222 329.435 289.773 325.741 289.773 325.741Z" fill="#2F2E41"/>
<path opacity="0.05" d="M289.773 325.741C289.773 325.741 279.924 349.954 291.825 353.647C303.726 357.341 336.557 356.52 343.944 351.595C351.331 346.671 353.383 340.105 352.152 338.053C350.92 336.001 342.713 330.256 336.967 329.845C331.222 329.435 289.773 325.741 289.773 325.741Z" fill="black"/>
<path d="M336.264 327.246C336.264 327.246 371.029 314.661 370.619 329.845C370.209 345.029 348.458 349.133 348.458 349.133L341.892 349.954L305.778 351.185C305.778 351.185 307.009 344.619 304.137 343.798C304.137 343.798 313.576 341.336 313.986 340.925C314.396 340.515 337.788 332.307 339.43 331.897C341.071 331.487 345.996 328.204 349.689 328.614C349.689 328.614 353.793 325.331 358.307 326.152L345.586 326.973L336.264 327.246Z" fill="#2F2E41"/>
<path opacity="0.1" d="M336.264 327.246C336.264 327.246 371.029 314.661 370.619 329.845C370.209 345.029 348.458 349.133 348.458 349.133L341.892 349.954L305.778 351.185C305.778 351.185 307.009 344.619 304.137 343.798C304.137 343.798 313.576 341.336 313.986 340.925C314.396 340.515 337.788 332.307 339.43 331.897C341.071 331.487 345.996 328.204 349.689 328.614C349.689 328.614 353.793 325.331 358.307 326.152L345.586 326.973L336.264 327.246Z" fill="black"/>
<path d="M330.122 329.283L334.505 339.284L361.18 329.845L363.232 324.511L356.255 323.279L342.23 325.742L336.147 327.383L330.122 329.283Z" fill="#2F2E41"/>
<path opacity="0.1" d="M330.122 329.283L334.505 339.284L361.18 329.845L363.232 324.511L356.255 323.279L342.23 325.742L336.147 327.383L330.122 329.283Z" fill="black"/>
<path d="M273.358 341.336C273.358 341.336 281.155 351.185 290.184 353.647C299.212 356.11 304.137 352.826 304.137 352.826L301.264 341.336L300.033 333.949L294.698 330.256L284.028 325.331L271.306 321.227C271.306 321.227 265.971 320.406 265.971 321.227C265.971 322.048 270.896 334.359 270.896 334.359L273.358 341.336Z" fill="#2F2E41"/>
<path d="M282.797 346.671C282.797 346.671 284.438 358.572 286.49 359.393C288.542 360.213 294.698 358.572 296.339 357.751C297.981 356.93 303.561 353.144 303.561 353.144C303.561 353.144 284.028 345.85 282.797 346.671Z" fill="#F2F2F2"/>
<path d="M320.142 347.902L327.939 349.133L327.118 358.572L316.242 355.93L320.142 347.902Z" fill="#FFB9B9"/>
<path d="M325.027 350.529C325.027 350.529 321.373 354.878 325.066 357.341L327.529 359.393C327.529 359.393 335.736 361.034 336.557 361.855C337.378 362.676 340.661 360.624 340.661 360.624C340.661 360.624 341.071 348.312 340.661 347.492C340.251 346.671 335.326 345.85 334.916 346.671C334.505 347.492 329.581 348.723 326.708 347.902L325.027 350.529Z" fill="#F2F2F2"/>
<path d="M292.236 328.614C292.236 328.614 263.509 311.788 258.995 317.944C254.48 324.1 249.556 332.718 262.688 339.284C275.82 345.85 316.859 359.393 316.859 359.393C316.859 359.393 323.014 349.954 323.014 347.492C323.014 347.492 301.264 337.642 297.571 336.822C293.877 336.001 279.103 326.562 277.051 325.741C274.999 324.921 272.127 322.458 272.127 322.458L292.236 328.614Z" fill="#2F2E41"/>
<path d="M284.028 277.727L282.386 278.958C282.386 278.958 278.693 288.397 278.282 293.732C277.872 299.067 272.947 315.482 273.358 317.534C273.768 319.586 274.179 321.227 276.641 323.279C276.641 323.279 279.924 315.892 285.669 317.123L292.646 291.68L284.028 277.727Z" fill="#FF6584"/>
<path d="M341.482 277.727L344.765 281.42C344.765 281.42 346.817 286.345 346.817 287.576C346.817 288.807 350.92 306.864 351.331 307.685C351.741 308.505 353.383 318.765 351.331 321.227C349.279 323.689 345.585 325.331 345.585 325.331C345.585 325.331 348.048 316.713 340.25 316.303L341.071 313.02L333.684 288.397L341.482 277.727Z" fill="#FF6584"/>
<path d="M284.849 305.981V327.597C284.849 328.962 285.386 330.272 286.344 331.245C287.302 332.217 288.604 332.773 289.969 332.794L335.175 333.463C336.532 333.484 337.843 332.972 338.828 332.038C339.813 331.105 340.393 329.823 340.446 328.467L341.277 306.848C341.304 306.155 341.192 305.465 340.947 304.816C340.703 304.168 340.332 303.575 339.855 303.072C339.378 302.569 338.805 302.167 338.171 301.889C337.536 301.61 336.852 301.462 336.159 301.452L290.121 300.785C289.432 300.775 288.748 300.902 288.109 301.158C287.47 301.415 286.888 301.796 286.398 302.28C285.907 302.763 285.517 303.339 285.251 303.975C284.986 304.61 284.849 305.292 284.849 305.981Z" fill="#3F3D56"/>
<path d="M314.961 255.761C322.768 255.761 329.097 252.353 329.097 248.149C329.097 243.946 322.768 240.538 314.961 240.538C307.154 240.538 300.826 243.946 300.826 248.149C300.826 252.353 307.154 255.761 314.961 255.761Z" fill="#2F2E41"/>
<path d="M312.55 320.612C314.363 320.612 315.833 319.142 315.833 317.329C315.833 315.515 314.363 314.046 312.55 314.046C310.736 314.046 309.267 315.515 309.267 317.329C309.267 319.142 310.736 320.612 312.55 320.612Z" fill="#F2F2F2"/>
</g>
<defs>
<clipPath id="clip0_142_820">
<rect width="635" height="370" fill="white"/>
</clipPath>
</defs>
</svg>
