<svg width="158" height="83" viewBox="0 0 158 83" fill="none" xmlns="http://www.w3.org/2000/svg">
<g clip-path="url(#clip0_15_1544)">
<path d="M153.54 44.5125C153.297 44.3718 153.088 44.1795 152.928 43.949C152.767 43.7185 152.659 43.4555 152.611 43.1786C152.563 42.9016 152.576 42.6174 152.649 42.3459C152.722 42.0744 152.853 41.8223 153.034 41.6074L151.036 26.948L155.197 27.1531L155.851 41.4518C156.19 41.7802 156.398 42.2223 156.435 42.6944C156.472 43.1664 156.335 43.6356 156.05 44.013C155.765 44.3903 155.352 44.6496 154.889 44.7417C154.427 44.8337 153.946 44.7522 153.54 44.5125Z" fill="#A0616A"/>
<path d="M155.768 27.3474C155.683 27.4482 155.574 27.5258 155.451 27.573L151.711 29.0058C151.523 29.0778 151.315 29.0748 151.129 28.9973C150.944 28.9199 150.795 28.774 150.713 28.5895L147.4 21.1155C147.082 20.4222 147.028 19.6359 147.248 18.9053C147.411 18.3838 147.71 17.9161 148.116 17.5513C148.521 17.1865 149.017 16.9383 149.551 16.8327C149.962 16.7478 150.386 16.7538 150.794 16.8503C151.283 16.9598 151.737 17.19 152.116 17.52C152.494 17.8501 152.784 18.2696 152.96 18.7406L155.906 26.5575C155.955 26.6895 155.968 26.8323 155.944 26.9712C155.92 27.1101 155.859 27.24 155.768 27.3474Z" fill="#CCCCCC"/>
<path d="M136.28 80.2928H133.693L132.754 70.2262L136.28 70.2736V80.2928Z" fill="#A0616A"/>
<path d="M131.844 79.5507H136.834V82.7049H128.702C128.702 81.8684 129.033 81.0661 129.622 80.4745C130.211 79.883 131.011 79.5507 131.844 79.5507H131.844Z" fill="#2F2E41"/>
<path d="M148.31 80.2929H145.723L144.492 70.2736H148.311L148.31 80.2929Z" fill="#A0616A"/>
<path d="M143.875 79.5507H148.864V82.7049H140.732C140.732 81.8684 141.063 81.0661 141.652 80.4745C142.242 79.883 143.041 79.5507 143.874 79.5507H143.875Z" fill="#2F2E41"/>
<path d="M148.636 76.7281L144.572 76.426C144.341 76.4089 144.124 76.3074 143.962 76.1408C143.8 75.9742 143.704 75.7539 143.693 75.5214L142.787 56.7213C142.778 56.5409 142.704 56.37 142.579 56.2404C142.453 56.1109 142.285 56.0317 142.106 56.0177C141.927 56.0038 141.748 56.056 141.605 56.1645C141.461 56.2731 141.361 56.4306 141.325 56.6075L137.545 75.1273C137.498 75.3552 137.37 75.558 137.185 75.6978C137 75.8375 136.77 75.9045 136.539 75.8862L132.865 75.5912C132.741 75.5812 132.62 75.5468 132.509 75.4898C132.398 75.4328 132.299 75.3545 132.218 75.2592C132.137 75.1639 132.076 75.0535 132.037 74.9344C131.999 74.8153 131.984 74.6897 131.994 74.5649C131.995 74.5586 131.995 74.5524 131.996 74.5462L135.404 40.3327C135.417 40.199 135.459 40.0696 135.525 39.9531C135.592 39.8365 135.683 39.7354 135.791 39.6564C135.899 39.5774 136.023 39.5223 136.154 39.4946C136.285 39.467 136.42 39.4675 136.551 39.496L149.511 42.3243C149.726 42.3716 149.917 42.4919 150.054 42.6648C150.19 42.8377 150.262 43.0525 150.259 43.273L149.655 75.7952C149.651 76.0445 149.549 76.2821 149.372 76.457C149.195 76.6319 148.956 76.7302 148.708 76.7309C148.684 76.7307 148.66 76.7298 148.636 76.7281Z" fill="#2F2E41"/>
<path d="M145.08 11.7264C147.943 11.7264 150.264 9.39648 150.264 6.52242C150.264 3.64837 147.943 1.31848 145.08 1.31848C142.218 1.31848 139.897 3.64837 139.897 6.52242C139.897 9.39648 142.218 11.7264 145.08 11.7264Z" fill="#A0616A"/>
<path d="M137.038 42.9715C136.539 42.5228 136.144 41.971 135.878 41.3541C135.612 40.7372 135.483 40.0698 135.498 39.3979C135.498 31.9183 141.947 15.2072 142.149 14.6868C142.168 14.5612 142.338 14.5069 143.232 13.9015C144.126 13.296 145.413 13.2025 147.06 13.6248C147.228 13.6679 147.38 13.7562 147.501 13.8801C147.622 14.0041 147.707 14.159 147.746 14.328L148.053 14.7723C148.079 14.8851 148.132 14.99 148.207 15.0785C148.281 15.1671 148.375 15.2368 148.482 15.2821C149.81 15.8439 154.032 18.4345 152.593 28.1838C151.257 37.2403 150.714 42.5654 150.543 44.436C150.523 44.6579 150.426 44.8656 150.269 45.023C150.112 45.1804 149.905 45.2775 149.684 45.2974C149.033 45.3558 147.915 45.4338 146.585 45.4338C143.497 45.4329 139.264 45.0154 137.038 42.9715Z" fill="#CCCCCC"/>
<path d="M130.843 40.2004C130.72 39.9479 130.653 39.6714 130.648 39.3902C130.643 39.1091 130.699 38.8302 130.813 38.5732C130.926 38.3162 131.095 38.0874 131.306 37.9028C131.517 37.7182 131.766 37.5824 132.036 37.5049L138.514 24.2148L141.855 26.713L134.462 38.9516C134.562 39.4144 134.489 39.8979 134.257 40.3105C134.026 40.7231 133.651 41.036 133.205 41.1899C132.759 41.3439 132.273 41.3282 131.837 41.1458C131.402 40.9635 131.048 40.6271 130.844 40.2004H130.843Z" fill="#A0616A"/>
<path d="M142.221 27.1946C142.094 27.2307 141.961 27.234 141.832 27.2043L137.931 26.3021C137.736 26.2569 137.564 26.1379 137.453 25.9698C137.342 25.8016 137.299 25.5971 137.334 25.3982L138.732 17.3389C138.853 16.5852 139.244 15.9021 139.833 15.4184C140.257 15.0764 140.766 14.8557 141.305 14.7795C141.844 14.7034 142.393 14.7746 142.895 14.9856C143.283 15.1449 143.632 15.3872 143.918 15.6956C144.263 16.0601 144.512 16.5053 144.643 16.9909C144.774 17.4766 144.782 17.9873 144.667 18.4769L142.774 26.6148C142.742 26.7522 142.673 26.8784 142.576 26.9804C142.479 27.0823 142.357 27.1563 142.221 27.1946H142.221Z" fill="#CCCCCC"/>
<path d="M143.867 11.2244C143.614 10.966 143.428 10.6502 143.324 10.3039C143.22 9.95758 143.2 9.59107 143.267 9.23563C143.448 8.28697 143.554 7.66561 143.575 7.43964C143.643 6.66686 142.865 6.04113 142.095 5.94076C142.065 5.93677 142.04 5.93431 142.02 5.9326C142.038 5.95157 142.06 5.97169 142.079 5.98952C142.225 6.12746 142.407 6.29916 142.364 6.47637C142.338 6.583 142.24 6.6587 142.067 6.70746C140.863 7.04575 139.935 6.73517 139.148 5.7294C138.926 5.44359 138.774 5.11006 138.703 4.75513C138.421 3.3663 139.173 2.18238 139.853 1.43389C140.413 0.816698 141.322 0.067828 142.469 0.00331943C143.36 -0.0465798 144.42 0.468349 144.737 1.39632C144.886 1.17395 145.085 0.989601 145.318 0.857876C145.551 0.726151 145.811 0.650667 146.078 0.637399C146.687 0.624153 147.286 0.791391 147.8 1.11818C150.314 2.56355 151.394 6.00679 150.159 8.63722C149.382 10.2919 147.699 11.5236 145.767 11.8518C145.646 11.8725 145.524 11.8829 145.401 11.8829C145.114 11.8824 144.83 11.8239 144.567 11.7109C144.303 11.5979 144.064 11.4327 143.865 11.2251L143.867 11.2244Z" fill="#2F2E41"/>
<path d="M68.7296 37.1056C68.6206 36.8458 68.438 36.6237 68.2046 36.4669C67.9711 36.31 67.697 36.2254 67.4161 36.2234H41.1978C40.821 36.2236 40.4596 36.374 40.1931 36.6415C39.9266 36.909 39.7768 37.2718 39.7766 37.6502V70.9479C39.7768 71.3263 39.9266 71.6891 40.1931 71.9566C40.4596 72.2241 40.821 72.3745 41.1978 72.3747H67.417C67.7938 72.3742 68.155 72.2237 68.4214 71.9563C68.6878 71.6888 68.8377 71.3262 68.8382 70.9479V37.6502C68.8389 37.4633 68.8022 37.2781 68.7305 37.1056H68.7296ZM68.5217 70.9479C68.5213 71.2422 68.4047 71.5243 68.1975 71.7324C67.9902 71.9405 67.7092 72.0575 67.4161 72.0579H41.1978C40.9047 72.0578 40.6235 71.9409 40.4162 71.7328C40.2089 71.5247 40.0923 71.2425 40.0922 70.9481V37.6504C40.0926 37.3561 40.2092 37.074 40.4165 36.866C40.6238 36.6579 40.9047 36.5408 41.1978 36.5404H67.417C67.6378 36.5413 67.8534 36.6081 68.0361 36.7325C68.2189 36.8569 68.3607 37.0331 68.4432 37.2386C68.4593 37.2796 68.4732 37.3214 68.4848 37.3639C68.5099 37.4573 68.5226 37.5536 68.5226 37.6504L68.5217 70.9479Z" fill="#3F3D56"/>
<path d="M63.2581 44.0848H55.3608C55.1932 44.0848 55.0325 44.018 54.9141 43.8991C54.7956 43.7801 54.729 43.6188 54.729 43.4506C54.729 43.2823 54.7956 43.121 54.9141 43.0021C55.0325 42.8831 55.1932 42.8163 55.3608 42.8163H63.2581C63.4257 42.8163 63.5864 42.8831 63.7049 43.0021C63.8234 43.121 63.8899 43.2823 63.8899 43.4506C63.8899 43.6188 63.8234 43.7801 63.7049 43.8991C63.5864 44.018 63.4257 44.0848 63.2581 44.0848Z" fill="#3F3D56"/>
<path d="M63.2581 47.4147H55.3608C55.1932 47.4147 55.0325 47.3478 54.9141 47.2289C54.7956 47.1099 54.729 46.9486 54.729 46.7804C54.729 46.6122 54.7956 46.4508 54.9141 46.3319C55.0325 46.2129 55.1932 46.1461 55.3608 46.1461H63.2581C63.4257 46.1461 63.5864 46.2129 63.7049 46.3319C63.8234 46.4508 63.8899 46.6122 63.8899 46.7804C63.8899 46.9486 63.8234 47.1099 63.7049 47.2289C63.5864 47.3478 63.4257 47.4147 63.2581 47.4147Z" fill="#3F3D56"/>
<path d="M51.3088 49.3106H45.5375C45.349 49.3104 45.1683 49.2351 45.0351 49.1013C44.9018 48.9676 44.8269 48.7862 44.8267 48.597V41.7598C44.8269 41.5706 44.9018 41.3893 45.0351 41.2555C45.1683 41.1217 45.349 41.0465 45.5375 41.0463H51.3088C51.4972 41.0465 51.6779 41.1217 51.8112 41.2555C51.9444 41.3893 52.0194 41.5706 52.0196 41.7598V48.597C52.0194 48.7862 51.9444 48.9676 51.8112 49.1013C51.6779 49.2351 51.4972 49.3104 51.3088 49.3106Z" fill="#673AB7"/>
<path d="M63.2033 54.2328H45.3554C45.1879 54.2328 45.0272 54.1659 44.9087 54.047C44.7902 53.9281 44.7236 53.7667 44.7236 53.5985C44.7236 53.4303 44.7902 53.269 44.9087 53.15C45.0272 53.0311 45.1879 52.9642 45.3554 52.9642H63.2033C63.2863 52.9642 63.3684 52.9806 63.4451 53.0125C63.5217 53.0444 63.5914 53.0911 63.6501 53.15C63.7087 53.2089 63.7553 53.2788 63.787 53.3558C63.8188 53.4327 63.8351 53.5152 63.8351 53.5985C63.8351 53.6818 63.8188 53.7643 63.787 53.8412C63.7553 53.9182 63.7087 53.9881 63.6501 54.047C63.5914 54.1059 63.5217 54.1526 63.4451 54.1845C63.3684 54.2164 63.2863 54.2328 63.2033 54.2328Z" fill="#CCCCCC"/>
<path d="M63.2033 57.5626H45.3554C45.1879 57.5626 45.0272 57.4958 44.9087 57.3768C44.7902 57.2579 44.7236 57.0966 44.7236 56.9283C44.7236 56.7601 44.7902 56.5988 44.9087 56.4798C45.0272 56.3609 45.1879 56.2941 45.3554 56.2941H63.2033C63.3709 56.2941 63.5316 56.3609 63.6501 56.4798C63.7685 56.5988 63.8351 56.7601 63.8351 56.9283C63.8351 57.0966 63.7685 57.2579 63.6501 57.3768C63.5316 57.4958 63.3709 57.5626 63.2033 57.5626Z" fill="#CCCCCC"/>
<path d="M63.2033 60.8923H45.3554C45.1879 60.8923 45.0272 60.8255 44.9087 60.7065C44.7902 60.5876 44.7236 60.4263 44.7236 60.2581C44.7236 60.0898 44.7902 59.9285 44.9087 59.8095C45.0272 59.6906 45.1879 59.6238 45.3554 59.6238H63.2033C63.3709 59.6238 63.5316 59.6906 63.6501 59.8095C63.7685 59.9285 63.8351 60.0898 63.8351 60.2581C63.8351 60.4263 63.7685 60.5876 63.6501 60.7065C63.5316 60.8255 63.3709 60.8923 63.2033 60.8923Z" fill="#CCCCCC"/>
<path d="M63.2033 64.2221H45.3554C45.1879 64.2221 45.0272 64.1553 44.9087 64.0364C44.7902 63.9174 44.7236 63.7561 44.7236 63.5879C44.7236 63.4197 44.7902 63.2583 44.9087 63.1394C45.0272 63.0204 45.1879 62.9536 45.3554 62.9536H63.2033C63.3709 62.9536 63.5316 63.0204 63.6501 63.1394C63.7685 63.2583 63.8351 63.4197 63.8351 63.5879C63.8351 63.7561 63.7685 63.9174 63.6501 64.0364C63.5316 64.1553 63.3709 64.2221 63.2033 64.2221Z" fill="#CCCCCC"/>
<path d="M63.2033 67.5519H45.3554C45.1879 67.5519 45.0272 67.485 44.9087 67.3661C44.7902 67.2471 44.7236 67.0858 44.7236 66.9176C44.7236 66.7494 44.7902 66.588 44.9087 66.4691C45.0272 66.3501 45.1879 66.2833 45.3554 66.2833H63.2033C63.3709 66.2833 63.5316 66.3501 63.6501 66.4691C63.7685 66.588 63.8351 66.7494 63.8351 66.9176C63.8351 67.0858 63.7685 67.2471 63.6501 67.3661C63.5316 67.485 63.3709 67.5519 63.2033 67.5519Z" fill="#CCCCCC"/>
<path d="M120.957 83.0001H157.811C157.861 83.0001 157.909 82.9801 157.945 82.9445C157.98 82.9089 158 82.8607 158 82.8103C158 82.76 157.98 82.7118 157.945 82.6762C157.909 82.6406 157.861 82.6206 157.811 82.6206H120.957C120.907 82.6206 120.859 82.6406 120.824 82.6762C120.788 82.7118 120.768 82.76 120.768 82.8103C120.768 82.8607 120.788 82.9089 120.824 82.9445C120.859 82.9801 120.907 83.0001 120.957 83.0001Z" fill="#3F3D56"/>
<path d="M54.7509 28.2006C58.1184 28.2006 60.8482 25.4601 60.8482 22.0795C60.8482 18.6989 58.1184 15.9584 54.7509 15.9584C51.3834 15.9584 48.6536 18.6989 48.6536 22.0795C48.6536 25.4601 51.3834 28.2006 54.7509 28.2006Z" fill="#673AB7"/>
<path d="M54.1468 24.4144C54.0096 24.4147 53.8761 24.3701 53.7663 24.2875L53.7595 24.2824L52.3266 23.1819C52.2601 23.1309 52.2043 23.0672 52.1624 22.9945C52.1204 22.9218 52.0932 22.8415 52.0822 22.7582C52.0712 22.675 52.0766 22.5903 52.0982 22.5092C52.1198 22.428 52.1572 22.3519 52.2081 22.2852C52.259 22.2186 52.3225 22.1626 52.395 22.1206C52.4674 22.0786 52.5474 22.0513 52.6304 22.0404C52.7134 22.0294 52.7977 22.035 52.8785 22.0567C52.9593 22.0785 53.0351 22.1161 53.1014 22.1673L54.0296 22.8818L56.2229 20.0093C56.3256 19.8748 56.4773 19.7867 56.6447 19.7645C56.812 19.7423 56.9813 19.7878 57.1153 19.8909L57.1155 19.8911L57.1019 19.91L57.1159 19.8911C57.2497 19.9943 57.3373 20.1467 57.3593 20.3147C57.3814 20.4827 57.3362 20.6526 57.2336 20.7872L54.6538 24.1644C54.5941 24.2422 54.5174 24.3051 54.4296 24.3484C54.3417 24.3916 54.2452 24.414 54.1473 24.4137L54.1468 24.4144Z" fill="white"/>
<path d="M14.6086 19.2832C16.8905 19.2832 18.7404 17.4261 18.7404 15.1353C18.7404 12.8445 16.8905 10.9874 14.6086 10.9874C12.3267 10.9874 10.4768 12.8445 10.4768 15.1353C10.4768 17.4261 12.3267 19.2832 14.6086 19.2832Z" fill="#CCCCCC"/>
<path d="M14.1991 16.7174C14.1061 16.7176 14.0157 16.6874 13.9413 16.6315L13.9368 16.6281L12.9657 15.8817C12.8775 15.8109 12.8204 15.7083 12.8068 15.5958C12.7931 15.4833 12.8239 15.3699 12.8925 15.2799C12.9612 15.1899 13.0622 15.1305 13.174 15.1145C13.2858 15.0984 13.3993 15.127 13.4904 15.1941L14.1193 15.6783L15.6056 13.7324C15.6752 13.6413 15.778 13.5816 15.8914 13.5666C16.0048 13.5516 16.1195 13.5824 16.2103 13.6522L16.2104 13.6523L16.2011 13.6648L16.2105 13.6525C16.3012 13.7225 16.3605 13.8257 16.3755 13.9395C16.3904 14.0533 16.3598 14.1685 16.2903 14.2597L14.5421 16.5486C14.5017 16.6013 14.4497 16.644 14.3902 16.6733C14.3306 16.7027 14.2652 16.7178 14.1989 16.7176L14.1991 16.7174Z" fill="white"/>
<path d="M26.2194 24.861C26.1336 24.6565 25.99 24.4818 25.8063 24.3584C25.6226 24.235 25.407 24.1684 25.186 24.1667H4.55517C4.25863 24.1669 3.97428 24.2852 3.76459 24.4957C3.55491 24.7062 3.43704 24.9917 3.43689 25.2894V51.4899C3.43704 51.7876 3.55491 52.0731 3.76459 52.2836C3.97428 52.4941 4.25863 52.6124 4.55517 52.6125H25.186C25.4824 52.6121 25.7666 52.4937 25.9763 52.2833C26.1859 52.0728 26.3038 51.7875 26.3042 51.4899V25.2894C26.3047 25.1423 26.2759 24.9967 26.2194 24.861ZM26.0559 51.4901C26.0555 51.7214 25.9637 51.9432 25.8008 52.1067C25.6378 52.2703 25.417 52.3624 25.1865 52.3629H4.55517C4.3246 52.3629 4.10347 52.2709 3.94043 52.1072C3.77739 51.9436 3.6858 51.7216 3.6858 51.4901V25.2894C3.68624 25.0581 3.77799 24.8363 3.94093 24.6727C4.10387 24.5092 4.32474 24.4171 4.55517 24.4166H25.186C25.3598 24.4173 25.5295 24.4701 25.6734 24.5681C25.8172 24.6661 25.9287 24.8049 25.9935 24.9668C26.0062 24.9991 26.0171 25.0319 26.0262 25.0653C26.046 25.1388 26.0561 25.2146 26.0561 25.2907L26.0559 51.4901Z" fill="#CCCCCC"/>
<path d="M21.9135 30.3527H15.6994C15.5676 30.3527 15.4411 30.3001 15.3479 30.2065C15.2547 30.1129 15.2023 29.9859 15.2023 29.8536C15.2023 29.7212 15.2547 29.5943 15.3479 29.5007C15.4411 29.4071 15.5676 29.3545 15.6994 29.3545H21.9134C22.0452 29.3545 22.1717 29.4071 22.2649 29.5007C22.3581 29.5943 22.4105 29.7212 22.4105 29.8536C22.4105 29.9859 22.3581 30.1129 22.2649 30.2065C22.1717 30.3001 22.0452 30.3527 21.9134 30.3527H21.9135Z" fill="#CCCCCC"/>
<path d="M21.9135 32.9729H15.6994C15.5676 32.9729 15.4411 32.9203 15.3479 32.8267C15.2547 32.7331 15.2023 32.6062 15.2023 32.4738C15.2023 32.3415 15.2547 32.2145 15.3479 32.1209C15.4411 32.0273 15.5676 31.9747 15.6994 31.9747H21.9134C22.0452 31.9747 22.1717 32.0273 22.2649 32.1209C22.3581 32.2145 22.4105 32.3415 22.4105 32.4738C22.4105 32.6062 22.3581 32.7331 22.2649 32.8267C22.1717 32.9203 22.0452 32.9729 21.9134 32.9729H21.9135Z" fill="#CCCCCC"/>
<path d="M12.5109 34.4647H7.96976C7.82148 34.4645 7.67933 34.4053 7.57448 34.3001C7.46964 34.1948 7.41067 34.0521 7.41052 33.9033V28.5235C7.41067 28.3746 7.46964 28.2319 7.57448 28.1266C7.67933 28.0214 7.82148 27.9622 7.96976 27.962H12.5109C12.6592 27.9622 12.8013 28.0214 12.9061 28.1267C13.011 28.2319 13.0699 28.3746 13.0701 28.5235V33.9033C13.07 34.0521 13.011 34.1948 12.9062 34.3001C12.8013 34.4053 12.6592 34.4645 12.5109 34.4647Z" fill="#CCCCCC"/>
<path d="M21.8703 38.3377H7.82674C7.69489 38.3377 7.56844 38.2851 7.4752 38.1915C7.38197 38.0979 7.32959 37.9709 7.32959 37.8386C7.32959 37.7062 7.38197 37.5793 7.4752 37.4857C7.56844 37.3921 7.69489 37.3395 7.82674 37.3395H21.8703C22.0022 37.3395 22.1286 37.3921 22.2219 37.4857C22.3151 37.5793 22.3675 37.7062 22.3675 37.8386C22.3675 37.9709 22.3151 38.0979 22.2219 38.1915C22.1286 38.2851 22.0022 38.3377 21.8703 38.3377Z" fill="#CCCCCC"/>
<path d="M21.8703 40.9586H7.82674C7.69489 40.9586 7.56844 40.906 7.4752 40.8124C7.38197 40.7188 7.32959 40.5919 7.32959 40.4595C7.32959 40.3272 7.38197 40.2002 7.4752 40.1066C7.56844 40.013 7.69489 39.9604 7.82674 39.9604H21.8703C22.0022 39.9604 22.1286 40.013 22.2219 40.1066C22.3151 40.2002 22.3675 40.3272 22.3675 40.4595C22.3675 40.5919 22.3151 40.7188 22.2219 40.8124C22.1286 40.906 22.0022 40.9586 21.8703 40.9586Z" fill="#CCCCCC"/>
<path d="M21.8703 43.5779H7.82674C7.69489 43.5779 7.56844 43.5253 7.4752 43.4317C7.38197 43.3381 7.32959 43.2112 7.32959 43.0788C7.32959 42.9464 7.38197 42.8195 7.4752 42.7259C7.56844 42.6323 7.69489 42.5797 7.82674 42.5797H21.8703C22.0022 42.5797 22.1286 42.6323 22.2219 42.7259C22.3151 42.8195 22.3675 42.9464 22.3675 43.0788C22.3675 43.2112 22.3151 43.3381 22.2219 43.4317C22.1286 43.5253 22.0022 43.5779 21.8703 43.5779Z" fill="#CCCCCC"/>
<path d="M21.8703 46.1986H7.82674C7.69489 46.1986 7.56844 46.146 7.4752 46.0524C7.38197 45.9588 7.32959 45.8319 7.32959 45.6995C7.32959 45.5672 7.38197 45.4402 7.4752 45.3466C7.56844 45.253 7.69489 45.2004 7.82674 45.2004H21.8703C22.0022 45.2004 22.1286 45.253 22.2219 45.3466C22.3151 45.4402 22.3675 45.5672 22.3675 45.6995C22.3675 45.8319 22.3151 45.9588 22.2219 46.0524C22.1286 46.146 22.0022 46.1986 21.8703 46.1986Z" fill="#CCCCCC"/>
<path d="M21.8703 48.8181H7.82674C7.69489 48.8181 7.56844 48.7655 7.4752 48.6719C7.38197 48.5783 7.32959 48.4514 7.32959 48.319C7.32959 48.1867 7.38197 48.0597 7.4752 47.9661C7.56844 47.8725 7.69489 47.8199 7.82674 47.8199H21.8703C22.0022 47.8199 22.1286 47.8725 22.2219 47.9661C22.3151 48.0597 22.3675 48.1867 22.3675 48.319C22.3675 48.4514 22.3151 48.5783 22.2219 48.6719C22.1286 48.7655 22.0022 48.8181 21.8703 48.8181Z" fill="#CCCCCC"/>
<path d="M0.149586 52.722H29.1477C29.1872 52.722 29.225 52.7062 29.2529 52.6782C29.2808 52.6502 29.2965 52.6123 29.2965 52.5727C29.2965 52.5331 29.2808 52.4951 29.2529 52.4671C29.225 52.4391 29.1872 52.4233 29.1477 52.4233H0.149586C0.130054 52.4232 0.11069 52.427 0.0926019 52.4344C0.0745137 52.4418 0.0580554 52.4527 0.0441653 52.4665C0.0302752 52.4803 0.0192275 52.4967 0.0116502 52.5147C0.00407285 52.5328 0.000113341 52.5522 2.39925e-06 52.5718C-0.000108542 52.5914 0.00362899 52.6109 0.0110013 52.629C0.0183736 52.6472 0.0292382 52.6637 0.0429714 52.6776C0.0567046 52.6916 0.0730385 52.7027 0.0910418 52.7103C0.109045 52.7179 0.128364 52.7219 0.147896 52.722H0.149586Z" fill="#CCCCCC"/>
<path d="M93.9862 19.2832C96.2681 19.2832 98.118 17.4261 98.118 15.1353C98.118 12.8445 96.2681 10.9874 93.9862 10.9874C91.7042 10.9874 89.8544 12.8445 89.8544 15.1353C89.8544 17.4261 91.7042 19.2832 93.9862 19.2832Z" fill="#CCCCCC"/>
<path d="M93.5766 16.7174C93.4837 16.7176 93.3932 16.6874 93.3189 16.6315L93.3143 16.6281L92.3433 15.8817C92.2551 15.8109 92.198 15.7083 92.1843 15.5958C92.1707 15.4833 92.2014 15.3699 92.2701 15.2799C92.3388 15.1899 92.4398 15.1305 92.5516 15.1145C92.6633 15.0984 92.7769 15.127 92.8679 15.1941L93.4969 15.6783L94.9831 13.7324C95.0527 13.6413 95.1555 13.5816 95.2689 13.5666C95.3823 13.5516 95.497 13.5824 95.5878 13.6522L95.5879 13.6523L95.5787 13.6648L95.5881 13.6525C95.6788 13.7225 95.7381 13.8257 95.753 13.9395C95.768 14.0533 95.7374 14.1685 95.6679 14.2597L93.9197 16.5486C93.8792 16.6013 93.8272 16.644 93.7677 16.6733C93.7082 16.7027 93.6428 16.7178 93.5765 16.7176L93.5766 16.7174Z" fill="white"/>
<path d="M105.597 24.861C105.511 24.6565 105.368 24.4818 105.184 24.3584C105 24.235 104.785 24.1684 104.564 24.1667H83.9327C83.6362 24.1669 83.3518 24.2852 83.1422 24.4957C82.9325 24.7062 82.8146 24.9917 82.8145 25.2894V51.4899C82.8146 51.7876 82.9325 52.0731 83.1422 52.2836C83.3518 52.4941 83.6362 52.6124 83.9327 52.6125H104.564C104.86 52.6121 105.144 52.4937 105.354 52.2833C105.563 52.0728 105.681 51.7875 105.682 51.4899V25.2894C105.682 25.1423 105.653 24.9967 105.597 24.861ZM105.433 51.4901C105.433 51.7214 105.341 51.9432 105.178 52.1067C105.015 52.2703 104.795 52.3624 104.564 52.3629H83.9327C83.8186 52.3629 83.7055 52.3403 83.6 52.2964C83.4946 52.2526 83.3987 52.1883 83.318 52.1072C83.2373 52.0262 83.1732 51.93 83.1295 51.8241C83.0858 51.7182 83.0634 51.6047 83.0634 51.4901V25.2894C83.0638 25.0581 83.1555 24.8363 83.3185 24.6727C83.4814 24.5092 83.7023 24.4171 83.9327 24.4166H104.564C104.737 24.4173 104.907 24.4701 105.051 24.5681C105.195 24.6661 105.306 24.8049 105.371 24.9668C105.384 24.9991 105.395 25.0319 105.404 25.0653C105.424 25.1388 105.434 25.2146 105.434 25.2907L105.433 51.4901Z" fill="#CCCCCC"/>
<path d="M101.291 30.3527H95.077C94.9451 30.3527 94.8187 30.3001 94.7254 30.2065C94.6322 30.1129 94.5798 29.9859 94.5798 29.8536C94.5798 29.7212 94.6322 29.5943 94.7254 29.5007C94.8187 29.4071 94.9451 29.3545 95.077 29.3545H101.291C101.423 29.3545 101.549 29.4071 101.642 29.5007C101.736 29.5943 101.788 29.7212 101.788 29.8536C101.788 29.9859 101.736 30.1129 101.642 30.2065C101.549 30.3001 101.423 30.3527 101.291 30.3527H101.291Z" fill="#CCCCCC"/>
<path d="M101.291 32.9729H95.077C94.9451 32.9729 94.8187 32.9203 94.7254 32.8267C94.6322 32.7331 94.5798 32.6062 94.5798 32.4738C94.5798 32.3415 94.6322 32.2145 94.7254 32.1209C94.8187 32.0273 94.9451 31.9747 95.077 31.9747H101.291C101.423 31.9747 101.549 32.0273 101.642 32.1209C101.736 32.2145 101.788 32.3415 101.788 32.4738C101.788 32.6062 101.736 32.7331 101.642 32.8267C101.549 32.9203 101.423 32.9729 101.291 32.9729H101.291Z" fill="#CCCCCC"/>
<path d="M91.8885 34.4647H87.3473C87.199 34.4645 87.0569 34.4053 86.952 34.3001C86.8472 34.1948 86.7882 34.0521 86.7881 33.9033V28.5235C86.7882 28.3746 86.8472 28.2319 86.952 28.1266C87.0569 28.0214 87.199 27.9622 87.3473 27.962H91.8885C92.0367 27.9622 92.1789 28.0214 92.2837 28.1267C92.3885 28.2319 92.4475 28.3746 92.4477 28.5235V33.9033C92.4476 34.0521 92.3886 34.1948 92.2837 34.3001C92.1789 34.4053 92.0367 34.4645 91.8885 34.4647Z" fill="#CCCCCC"/>
<path d="M101.248 38.3377H87.2043C87.0724 38.3377 86.946 38.2851 86.8528 38.1915C86.7595 38.0979 86.7072 37.9709 86.7072 37.8386C86.7072 37.7062 86.7595 37.5793 86.8528 37.4857C86.946 37.3921 87.0724 37.3395 87.2043 37.3395H101.248C101.38 37.3395 101.506 37.3921 101.599 37.4857C101.693 37.5793 101.745 37.7062 101.745 37.8386C101.745 37.9709 101.693 38.0979 101.599 38.1915C101.506 38.2851 101.38 38.3377 101.248 38.3377Z" fill="#CCCCCC"/>
<path d="M101.248 40.9586H87.2043C87.0724 40.9586 86.946 40.906 86.8528 40.8124C86.7595 40.7188 86.7072 40.5919 86.7072 40.4595C86.7072 40.3272 86.7595 40.2002 86.8528 40.1066C86.946 40.013 87.0724 39.9604 87.2043 39.9604H101.248C101.38 39.9604 101.506 40.013 101.599 40.1066C101.693 40.2002 101.745 40.3272 101.745 40.4595C101.745 40.5919 101.693 40.7188 101.599 40.8124C101.506 40.906 101.38 40.9586 101.248 40.9586Z" fill="#CCCCCC"/>
<path d="M101.248 43.5779H87.2043C87.0724 43.5779 86.946 43.5253 86.8528 43.4317C86.7595 43.3381 86.7072 43.2112 86.7072 43.0788C86.7072 42.9464 86.7595 42.8195 86.8528 42.7259C86.946 42.6323 87.0724 42.5797 87.2043 42.5797H101.248C101.38 42.5797 101.506 42.6323 101.599 42.7259C101.693 42.8195 101.745 42.9464 101.745 43.0788C101.745 43.2112 101.693 43.3381 101.599 43.4317C101.506 43.5253 101.38 43.5779 101.248 43.5779Z" fill="#CCCCCC"/>
<path d="M101.248 46.1986H87.2043C87.0724 46.1986 86.946 46.146 86.8528 46.0524C86.7595 45.9588 86.7072 45.8319 86.7072 45.6995C86.7072 45.5672 86.7595 45.4402 86.8528 45.3466C86.946 45.253 87.0724 45.2004 87.2043 45.2004H101.248C101.38 45.2004 101.506 45.253 101.599 45.3466C101.693 45.4402 101.745 45.5672 101.745 45.6995C101.745 45.8319 101.693 45.9588 101.599 46.0524C101.506 46.146 101.38 46.1986 101.248 46.1986Z" fill="#CCCCCC"/>
<path d="M101.248 48.8181H87.2043C87.0724 48.8181 86.946 48.7655 86.8528 48.6719C86.7595 48.5783 86.7072 48.4514 86.7072 48.319C86.7072 48.1867 86.7595 48.0597 86.8528 47.9661C86.946 47.8725 87.0724 47.8199 87.2043 47.8199H101.248C101.38 47.8199 101.506 47.8725 101.599 47.9661C101.693 48.0597 101.745 48.1867 101.745 48.319C101.745 48.4514 101.693 48.5783 101.599 48.6719C101.506 48.7655 101.38 48.8181 101.248 48.8181Z" fill="#CCCCCC"/>
<path d="M79.5271 52.722H108.525C108.565 52.722 108.603 52.7062 108.63 52.6782C108.658 52.6502 108.674 52.6123 108.674 52.5727C108.674 52.5331 108.658 52.4951 108.63 52.4671C108.603 52.4391 108.565 52.4233 108.525 52.4233H79.5271C79.5076 52.4232 79.4882 52.427 79.4702 52.4344C79.4521 52.4418 79.4356 52.4527 79.4217 52.4665C79.4078 52.4803 79.3968 52.4967 79.3892 52.5147C79.3816 52.5328 79.3777 52.5522 79.3776 52.5718C79.3775 52.5914 79.3812 52.6109 79.3886 52.629C79.3959 52.6472 79.4068 52.6637 79.4205 52.6776C79.4343 52.6916 79.4506 52.7027 79.4686 52.7103C79.4866 52.7179 79.5059 52.7219 79.5255 52.722H79.5271Z" fill="#CCCCCC"/>
<path d="M35.7207 72.4883H72.5746C72.6247 72.4883 72.6728 72.4684 72.7082 72.4328C72.7437 72.3972 72.7636 72.3489 72.7636 72.2986C72.7636 72.2483 72.7437 72.2 72.7082 72.1644C72.6728 72.1289 72.6247 72.1089 72.5746 72.1089H35.7207C35.6706 72.1089 35.6225 72.1289 35.5871 72.1644C35.5516 72.2 35.5317 72.2483 35.5317 72.2986C35.5317 72.3489 35.5516 72.3972 35.5871 72.4328C35.6225 72.4684 35.6706 72.4883 35.7207 72.4883Z" fill="#3F3D56"/>
</g>
<defs>
<clipPath id="clip0_15_1544">
<rect width="158" height="83" fill="white"/>
</clipPath>
</defs>
</svg>
