<svg width="80" height="80" viewBox="0 0 80 80" fill="none" xmlns="http://www.w3.org/2000/svg">
<circle opacity="0.12" cx="40" cy="40" r="40" fill="#673AB7"/>
<g clip-path="url(#clip0_15_1037)">
<path d="M58 32C55.1 32 53.48 34.88 54.14 37.02L47.04 44.14C46.44 43.96 45.56 43.96 44.96 44.14L39.86 39.04C40.54 36.9 38.92 34 36 34C33.1 34 31.46 36.88 32.14 39.04L23.02 48.14C20.88 47.48 18 49.1 18 52C18 54.2 19.8 56 22 56C24.9 56 26.52 53.12 25.86 50.98L34.96 41.86C35.56 42.04 36.44 42.04 37.04 41.86L42.14 46.96C41.46 49.1 43.08 52 46 52C48.9 52 50.54 49.12 49.86 46.96L56.98 39.86C59.12 40.52 62 38.9 62 36C62 33.8 60.2 32 58 32Z" fill="#673AB7"/>
<path d="M46 34L47.88 29.86L52 28L47.88 26.14L46 22L44.16 26.14L40 28L44.16 29.86L46 34Z" fill="#673AB7"/>
<path d="M23 38L24 34L28 33L24 32L23 28L22 32L18 33L22 34L23 38Z" fill="#673AB7"/>
</g>
<defs>
<clipPath id="clip0_15_1037">
<rect width="48" height="48" fill="white" transform="translate(16 16)"/>
</clipPath>
</defs>
</svg>
