<svg width="80" height="80" viewBox="0 0 80 80" fill="none" xmlns="http://www.w3.org/2000/svg">
<circle opacity="0.12" cx="40" cy="40" r="40" fill="#F44336"/>
<g clip-path="url(#clip0_15_983)">
<path d="M18 58H26V34H18V58ZM62 36C62 33.8 60.2 32 58 32H45.38L47.28 22.86L47.34 22.22C47.34 21.4 47 20.64 46.46 20.1L44.34 18L31.18 31.18C30.44 31.9 30 32.9 30 34V54C30 56.2 31.8 58 34 58H52C53.66 58 55.08 57 55.68 55.56L61.72 41.46C61.9 41 62 40.52 62 40V36Z" fill="#F44336"/>
</g>
<defs>
<clipPath id="clip0_15_983">
<rect width="48" height="48" fill="white" transform="translate(16 16)"/>
</clipPath>
</defs>
</svg>
